happy-times_italic.ufo
<glyph name="exclam" format="1">
  <advance width="408"/>
  <unicode hex="0021"/>
  <outline>
    <contour>
      <point x="260" y="375" type="line"/>
      <point x="361" y="695"/>
      <point x="476" y="939"/>
      <point x="621" y="1375" type="curve"/>
      <point x="621" y="1375"/>
      <point x="416" y="1375"/>
      <point x="416" y="1375" type="curve"/>
      <point x="301" y="939"/>
      <point x="276" y="695"/>
      <point x="185" y="375" type="curve"/>
    </contour>
    <contour>
      <point x="50" y="0" type="line"/>
      <point x="258" y="0" type="line"/>
      <point x="258" y="208" type="line"/>
      <point x="50" y="208" type="line"/>
    </contour>
  </outline>
</glyph>
<glyph name="quotedbl" format="1">
  <advance width="385"/>
  <unicode hex="0022"/>
  <outline>
    <contour>
      <point x="480" y="1375" type="line"/>
      <point x="405" y="1375" type="line"/>
      <point x="405" y="1003" type="line"/>
      <point x="480" y="1003" type="line"/>
    </contour>
    <contour>
      <point x="280" y="1375" type="line"/>
      <point x="205" y="1375" type="line"/>
      <point x="205" y="1003" type="line"/>
      <point x="280" y="1003" type="line"/>
    </contour>
  </outline>
</glyph>
<glyph name="numbersign" format="1">
  <advance width="1001"/>
  <unicode hex="0023"/>
  <outline>
    <contour>
      <point x="1030" y="849" type="line"/>
      <point x="1070" y="919" type="line"/>
      <point x="189" y="919" type="line"/>
      <point x="149" y="849" type="line"/>
    </contour>
    <contour>
      <point x="802" y="420" type="line"/>
      <point x="842" y="490" type="line"/>
      <point x="-39" y="490" type="line"/>
      <point x="-79" y="420" type="line"/>
    </contour>
    <contour>
      <point x="244" y="-20" type="line"/>
      <point x="326" y="-20" type="line"/>
      <point x="1106" y="1375" type="line"/>
      <point x="1024" y="1375" type="line"/>
    </contour>
    <contour>
      <point x="-101" y="-20" type="line"/>
      <point x="-19" y="-20" type="line"/>
      <point x="761" y="1375" type="line"/>
      <point x="679" y="1375" type="line"/>
    </contour>
    <contour>
      <point x="257" y="490" type="line"/>
      <point x="277" y="490" type="line"/>
      <point x="277" y="510" type="line"/>
      <point x="257" y="510" type="line"/>
    </contour>
    <contour>
      <point x="134" y="400" type="line"/>
      <point x="154" y="400" type="line"/>
      <point x="154" y="420" type="line"/>
      <point x="134" y="420" type="line"/>
    </contour>
    <contour>
      <point x="602" y="490" type="line"/>
      <point x="622" y="490" type="line"/>
      <point x="622" y="510" type="line"/>
      <point x="602" y="510" type="line"/>
    </contour>
    <contour>
      <point x="479" y="400" type="line"/>
      <point x="499" y="400" type="line"/>
      <point x="499" y="420" type="line"/>
      <point x="479" y="420" type="line"/>
    </contour>
    <contour>
      <point x="497" y="919" type="line"/>
      <point x="517" y="919" type="line"/>
      <point x="517" y="939" type="line"/>
      <point x="497" y="939" type="line"/>
    </contour>
    <contour>
      <point x="374" y="829" type="line"/>
      <point x="394" y="829" type="line"/>
      <point x="394" y="849" type="line"/>
      <point x="374" y="849" type="line"/>
    </contour>
    <contour>
      <point x="842" y="919" type="line"/>
      <point x="862" y="919" type="line"/>
      <point x="862" y="939" type="line"/>
      <point x="842" y="939" type="line"/>
    </contour>
    <contour>
      <point x="719" y="829" type="line"/>
      <point x="739" y="829" type="line"/>
      <point x="739" y="849" type="line"/>
      <point x="719" y="849" type="line"/>
    </contour>
  </outline>
</glyph>
<glyph name="dollar" format="1">
  <advance width="1184"/>
  <unicode hex="0024"/>
  <outline>
    <contour>
      <point x="882" y="1575" type="line"/>
      <point x="334" y="-200" type="line"/>
      <point x="408" y="-200" type="line"/>
      <point x="956" y="1575" type="line"/>
    </contour>
    <component base="S"/>
  </outline>
</glyph>
<glyph name="percent" format="1">
  <advance width="1104"/>
  <unicode hex="0025"/>
  <outline>
    <contour>
      <point x="45" y="-20" type="line"/>
      <point x="125" y="-20" type="line"/>
      <point x="1168" y="1355" type="line"/>
      <point x="1148" y="1375" type="line"/>
      <point x="1102" y="1375" type="line"/>
    </contour>
    <contour>
      <point x="377" y="1375"/>
      <point x="166" y="1017"/>
      <point x="166" y="841" type="curve" smooth="yes"/>
      <point x="166" y="733"/>
      <point x="222" y="678"/>
      <point x="297" y="678" type="curve"/>
      <point x="491" y="678"/>
      <point x="733" y="998"/>
      <point x="733" y="1200" type="curve" smooth="yes"/>
      <point x="733" y="1239"/>
      <point x="726" y="1271"/>
      <point x="713" y="1295" type="curve"/>
      <point x="743" y="1315" type="line"/>
      <point x="1021" y="1315" type="line"/>
      <point x="1041" y="1295" type="line"/>
      <point x="1079" y="1295" type="line"/>
      <point x="1102" y="1375" type="line"/>
      <point x="637" y="1375" type="line" smooth="yes"/>
    </contour>
    <contour>
      <point x="610" y="1305" type="curve"/>
      <point x="653" y="1305"/>
      <point x="673" y="1280"/>
      <point x="673" y="1228" type="curve" smooth="yes"/>
      <point x="673" y="1064"/>
      <point x="463" y="733"/>
      <point x="336" y="733" type="curve"/>
      <point x="303" y="733"/>
      <point x="280" y="762"/>
      <point x="280" y="819" type="curve" smooth="yes"/>
      <point x="280" y="964"/>
      <point x="457" y="1305"/>
    </contour>
    <contour>
      <point x="908" y="678" type="curve"/>
      <point x="684" y="678"/>
      <point x="466" y="320"/>
      <point x="466" y="144" type="curve" smooth="yes"/>
      <point x="466" y="36"/>
      <point x="523" y="-19"/>
      <point x="604" y="-19" type="curve"/>
      <point x="789" y="-19"/>
      <point x="1040" y="300"/>
      <point x="1040" y="528" type="curve" smooth="yes"/>
      <point x="1040" y="618"/>
      <point x="999" y="678"/>
    </contour>
    <contour>
      <point x="908" y="608" type="curve"/>
      <point x="948" y="608"/>
      <point x="971" y="580"/>
      <point x="971" y="522" type="curve" smooth="yes"/>
      <point x="971" y="352"/>
      <point x="761" y="36"/>
      <point x="640" y="36" type="curve"/>
      <point x="604" y="36"/>
      <point x="580" y="65"/>
      <point x="580" y="124" type="curve" smooth="yes"/>
      <point x="580" y="269"/>
      <point x="759" y="608"/>
    </contour>
    <contour>
      <point x="696" y="1375" type="move" name="top"/>
    </contour>
    <contour>
      <point x="496" y="678" type="move" name="bottom"/>
    </contour>
  </outline>
</glyph>
<glyph name="ampersand" format="1">
  <advance width="1412"/>
  <unicode hex="0026"/>
  <outline>
    <contour>
      <point x="515" y="672" type="line"/>
      <point x="536" y="672" type="line"/>
      <point x="541" y="692" type="line"/>
      <point x="520" y="692" type="line"/>
    </contour>
    <contour>
      <point x="693" y="835" type="line"/>
      <point x="714" y="835" type="line"/>
      <point x="720" y="855" type="line"/>
      <point x="699" y="855" type="line"/>
    </contour>
    <contour>
      <point x="880" y="371" type="line"/>
      <point x="901" y="371" type="line"/>
      <point x="907" y="391" type="line"/>
      <point x="886" y="391" type="line"/>
    </contour>
    <contour>
      <point x="786" y="112" type="line" smooth="yes"/>
      <point x="826" y="25"/>
      <point x="876" y="-20"/>
      <point x="980" y="-20" type="curve"/>
      <point x="1137" y="-20"/>
      <point x="1256" y="127"/>
      <point x="1319" y="210" type="curve"/>
      <point x="1249" y="210" type="line"/>
      <point x="1200" y="155"/>
      <point x="1153" y="95"/>
      <point x="1097" y="95" type="curve"/>
      <point x="1037" y="95"/>
      <point x="1006" y="131"/>
      <point x="971" y="206" type="curve" smooth="yes"/>
      <point x="813" y="549" type="line" smooth="yes"/>
      <point x="773" y="635"/>
      <point x="690" y="814"/>
      <point x="690" y="964" type="curve"/>
      <point x="690" y="1170"/>
      <point x="808" y="1295"/>
      <point x="937" y="1295" type="curve"/>
      <point x="1025" y="1295"/>
      <point x="1050" y="1239"/>
      <point x="1050" y="1189" type="curve"/>
      <point x="1050" y="998"/>
      <point x="708" y="847"/>
      <point x="488" y="740" type="curve" smooth="yes"/>
      <point x="362" y="679"/>
      <point x="2" y="518"/>
      <point x="2" y="238" type="curve"/>
      <point x="2" y="73"/>
      <point x="110" y="-20"/>
      <point x="300" y="-20" type="curve"/>
      <point x="744" y="-20"/>
      <point x="1088" y="476"/>
      <point x="1304" y="745" type="curve"/>
      <point x="1344" y="765" type="line"/>
      <point x="1511" y="765" type="line"/>
      <point x="1531" y="835" type="line"/>
      <point x="1061" y="835" type="line"/>
      <point x="1041" y="765" type="line"/>
      <point x="1186" y="765" type="line"/>
      <point x="1206" y="745" type="line"/>
      <point x="1061" y="547"/>
      <point x="731" y="130"/>
      <point x="439" y="130" type="curve"/>
      <point x="329" y="130"/>
      <point x="245" y="201"/>
      <point x="245" y="328" type="curve"/>
      <point x="245" y="492"/>
      <point x="385" y="618"/>
      <point x="596" y="711" type="curve"/>
      <point x="697" y="756"/>
      <point x="1165" y="960"/>
      <point x="1165" y="1192" type="curve"/>
      <point x="1165" y="1322"/>
      <point x="1070" y="1375"/>
      <point x="940" y="1375" type="curve"/>
      <point x="666" y="1375"/>
      <point x="490" y="1144"/>
      <point x="490" y="908" type="curve"/>
      <point x="490" y="765"/>
      <point x="541" y="647"/>
      <point x="610" y="496" type="curve" smooth="yes"/>
    </contour>
  </outline>
</glyph>
<glyph name="quotesingle" format="1">
  <advance width="185"/>
  <unicode hex="0027"/>
  <outline>
    <contour>
      <point x="280" y="1375" type="line"/>
      <point x="205" y="1375" type="line"/>
      <point x="205" y="1003" type="line"/>
      <point x="280" y="1003" type="line"/>
    </contour>
  </outline>
</glyph>
<glyph name="parenleft" format="1">
  <advance width="727"/>
  <unicode hex="0028"/>
  <outline>
    <contour>
      <point x="851" y="1263" type="line"/>
      <point x="532" y="1064"/>
      <point x="100" y="749"/>
      <point x="100" y="214" type="curve"/>
      <point x="100" y="-85"/>
      <point x="290" y="-262"/>
      <point x="391" y="-343" type="curve"/>
      <point x="448" y="-288" type="line"/>
      <point x="368" y="-222"/>
      <point x="241" y="-88"/>
      <point x="241" y="183" type="curve"/>
      <point x="241" y="692"/>
      <point x="602" y="1044"/>
      <point x="877" y="1208" type="curve"/>
    </contour>
  </outline>
</glyph>
<glyph name="parenright" format="1">
  <advance width="827"/>
  <unicode hex="0029"/>
  <outline>
    <contour>
      <point x="-24" y="-343" type="line"/>
      <point x="295" y="-144"/>
      <point x="727" y="171"/>
      <point x="727" y="706" type="curve"/>
      <point x="727" y="1005"/>
      <point x="537" y="1182"/>
      <point x="436" y="1263" type="curve"/>
      <point x="379" y="1208" type="line"/>
      <point x="459" y="1142"/>
      <point x="586" y="1008"/>
      <point x="586" y="737" type="curve"/>
      <point x="586" y="228"/>
      <point x="225" y="-124"/>
      <point x="-50" y="-288" type="curve"/>
    </contour>
  </outline>
</glyph>
<glyph name="asterisk" format="1">
  <advance width="830.0"/>
  <unicode hex="002A"/>
  <outline>
    <contour>
      <point x="795" y="1152" type="line"/>
      <point x="830" y="1213" type="line"/>
      <point x="653" y="1315" type="line"/>
      <point x="653" y="1335" type="line"/>
      <point x="829" y="1437" type="line"/>
      <point x="794" y="1498" type="line"/>
      <point x="617" y="1395" type="line"/>
      <point x="600" y="1408" type="line"/>
      <point x="600" y="1610" type="line"/>
      <point x="530" y="1610" type="line"/>
      <point x="530" y="1408" type="line"/>
      <point x="513" y="1395" type="line"/>
      <point x="335" y="1498" type="line"/>
      <point x="300" y="1437" type="line"/>
      <point x="478" y="1335" type="line"/>
      <point x="478" y="1315" type="line"/>
      <point x="301" y="1213" type="line"/>
      <point x="336" y="1152" type="line"/>
      <point x="513" y="1255" type="line"/>
      <point x="530" y="1242" type="line"/>
      <point x="530" y="1040" type="line"/>
      <point x="600" y="1040" type="line"/>
      <point x="600" y="1242" type="line"/>
      <point x="617" y="1255" type="line"/>
    </contour>
  </outline>
</glyph>
<glyph name="comma" format="1">
  <advance width="508"/>
  <unicode hex="002C"/>
  <outline>
    <contour>
      <point x="319" y="70" type="curve" smooth="yes"/>
      <point x="319" y="208" type="line"/>
      <point x="101" y="208" type="line"/>
      <point x="101" y="0" type="line"/>
      <point x="210" y="0" type="line"/>
      <point x="225" y="-20" type="line"/>
      <point x="195" y="-134"/>
      <point x="76" y="-216"/>
      <point x="1" y="-254" type="curve"/>
      <point x="1" y="-314" type="line"/>
      <point x="123" y="-254"/>
      <point x="319" y="-144"/>
    </contour>
  </outline>
</glyph>
<glyph name="slash" format="1">
  <advance width="475"/>
  <unicode hex="002F"/>
  <outline>
    <contour>
      <point x="-188" y="0" type="line"/>
      <point x="-110" y="0" type="line"/>
      <point x="664" y="1375" type="line"/>
      <point x="586" y="1375" type="line"/>
    </contour>
  </outline>
</glyph>
<glyph name="zero" format="1">
  <advance width="1128"/>
  <unicode hex="0030"/>
  <outline>
    <contour>
      <point x="448" y="70" type="curve"/>
      <point x="337" y="70"/>
      <point x="286" y="170"/>
      <point x="286" y="342" type="curve" smooth="yes"/>
      <point x="286" y="713"/>
      <point x="481" y="1285"/>
      <point x="738" y="1285" type="curve"/>
      <point x="854" y="1285"/>
      <point x="903" y="1190"/>
      <point x="903" y="1024" type="curve" smooth="yes"/>
      <point x="903" y="635"/>
      <point x="690" y="70"/>
    </contour>
    <contour>
      <point x="373" y="-20" type="curve" smooth="yes"/>
      <point x="751" y="-20"/>
      <point x="1108" y="559"/>
      <point x="1108" y="987" type="curve" smooth="yes"/>
      <point x="1108" y="1216"/>
      <point x="1008" y="1375"/>
      <point x="813" y="1375" type="curve" smooth="yes"/>
      <point x="446" y="1375"/>
      <point x="80" y="846"/>
      <point x="80" y="379" type="curve" smooth="yes"/>
      <point x="80" y="151"/>
      <point x="177" y="-20"/>
    </contour>
    <contour>
      <point x="793" y="1375" type="move" name="top"/>
    </contour>
    <contour>
      <point x="393" y="-20" type="move" name="bottom"/>
    </contour>
  </outline>
</glyph>
<glyph name="one" format="1">
  <advance width="732"/>
  <unicode hex="0031"/>
  <outline>
    <contour>
      <point x="250" y="1131" type="line"/>
      <point x="418" y="1203" type="line"/>
      <point x="438" y="1183" type="line"/>
      <point x="96" y="0" type="line"/>
      <point x="283" y="0" type="line"/>
      <point x="672" y="1355" type="line"/>
      <point x="652" y="1375" type="line"/>
      <point x="231" y="1191" type="line"/>
    </contour>
    <contour>
      <point x="119" y="80" type="line"/>
      <point x="89" y="60" type="line"/>
      <point x="-60" y="60" type="line"/>
      <point x="-80" y="0" type="line"/>
      <point x="473" y="0" type="line"/>
      <point x="493" y="60" type="line"/>
      <point x="326" y="60" type="line"/>
      <point x="306" y="80" type="line"/>
    </contour>
  </outline>
</glyph>
<glyph name="two" format="1">
  <advance width="1004"/>
  <unicode hex="0032"/>
  <outline>
    <contour>
      <point x="723" y="383" type="line"/>
      <point x="713" y="348" type="line" smooth="yes"/>
      <point x="667" y="188"/>
      <point x="607" y="154"/>
      <point x="467" y="154" type="curve"/>
      <point x="188" y="154" type="line"/>
      <point x="168" y="174" type="line"/>
      <point x="752" y="562"/>
      <point x="984" y="820"/>
      <point x="984" y="1092" type="curve"/>
      <point x="983" y="1260"/>
      <point x="886" y="1375"/>
      <point x="674" y="1375" type="curve"/>
      <point x="389" y="1375"/>
      <point x="209" y="1114"/>
      <point x="142" y="1000" type="curve"/>
      <point x="192" y="960" type="line"/>
      <point x="269" y="1056"/>
      <point x="390" y="1206"/>
      <point x="592" y="1206" type="curve"/>
      <point x="716" y="1206"/>
      <point x="802" y="1137"/>
      <point x="802" y="995" type="curve"/>
      <point x="802" y="779"/>
      <point x="595" y="607"/>
      <point x="265" y="336" type="curve" smooth="yes"/>
      <point x="-120" y="20" type="line"/>
      <point x="-120" y="0" type="line"/>
      <point x="673" y="0" type="line"/>
      <point x="783" y="383" type="line"/>
    </contour>
    <contour>
      <point x="395" y="397" type="move" name="top"/>
    </contour>
    <contour>
      <point x="676" y="1376" type="move" name="bottom"/>
    </contour>
  </outline>
</glyph>
<glyph name="three" format="1">
  <advance width="964"/>
  <unicode hex="0033"/>
  <outline>
    <contour>
      <point x="323" y="660" type="line"/>
      <point x="594" y="760" type="line"/>
      <point x="594" y="780" type="line"/>
      <point x="748" y="841"/>
      <point x="924" y="941"/>
      <point x="924" y="1130" type="curve"/>
      <point x="924" y="1254"/>
      <point x="838" y="1375"/>
      <point x="637" y="1375" type="curve"/>
      <point x="350" y="1375"/>
      <point x="194" y="1128"/>
      <point x="136" y="1032" type="curve"/>
      <point x="186" y="992" type="line"/>
      <point x="260" y="1092"/>
      <point x="366" y="1238"/>
      <point x="538" y="1238" type="curve"/>
      <point x="655" y="1238"/>
      <point x="730" y="1176"/>
      <point x="730" y="1064" type="curve"/>
      <point x="730" y="864"/>
      <point x="450" y="760"/>
      <point x="323" y="720" type="curve"/>
    </contour>
    <contour>
      <point x="317" y="58" type="curve"/>
      <point x="247" y="58"/>
      <point x="205" y="86"/>
      <point x="156" y="140" type="curve" smooth="yes"/>
      <point x="65" y="240" type="line"/>
      <point x="-71" y="138" type="line"/>
      <point x="-80" y="108" type="line"/>
      <point x="-40" y="60"/>
      <point x="34" y="-20"/>
      <point x="222" y="-20" type="curve"/>
      <point x="543" y="-20"/>
      <point x="812" y="228"/>
      <point x="812" y="470" type="curve"/>
      <point x="812" y="644"/>
      <point x="704" y="740"/>
      <point x="594" y="760" type="curve"/>
      <point x="323" y="660" type="line"/>
      <point x="475" y="650"/>
      <point x="616" y="569"/>
      <point x="616" y="354" type="curve"/>
      <point x="616" y="170"/>
      <point x="469" y="58"/>
    </contour>
    <contour>
      <point x="362" y="397" type="move" name="top"/>
    </contour>
    <contour>
      <point x="643" y="1376" type="move" name="bottom"/>
    </contour>
  </outline>
</glyph>
<glyph name="four" format="1">
  <advance width="973"/>
  <unicode hex="0034"/>
  <outline>
    <contour>
      <point x="86" y="468" type="line"/>
      <point x="86" y="488" type="line"/>
      <point x="680" y="1045" type="line" smooth="yes"/>
      <point x="700" y="1045" type="line"/>
      <point x="399" y="0" type="line"/>
      <point x="574" y="0" type="line"/>
      <point x="963" y="1355" type="line"/>
      <point x="933" y="1375" type="line"/>
      <point x="-40" y="468" type="line"/>
    </contour>
    <contour>
      <point x="-80" y="328" type="line"/>
      <point x="886" y="328" type="line"/>
      <point x="926" y="468" type="line"/>
      <point x="-40" y="468" type="line"/>
    </contour>
  </outline>
</glyph>
<glyph name="five" format="1">
  <advance width="925"/>
  <unicode hex="0035"/>
  <outline>
    <contour>
      <point x="277" y="58" type="curve"/>
      <point x="207" y="58"/>
      <point x="165" y="86"/>
      <point x="116" y="140" type="curve" smooth="yes"/>
      <point x="25" y="240" type="line"/>
      <point x="-111" y="138" type="line"/>
      <point x="-120" y="108" type="line"/>
      <point x="-80" y="60"/>
      <point x="-6" y="-20"/>
      <point x="182" y="-20" type="curve"/>
      <point x="482" y="-20"/>
      <point x="817" y="201"/>
      <point x="817" y="560" type="curve"/>
      <point x="817" y="880"/>
      <point x="585" y="966"/>
      <point x="388" y="1001" type="curve"/>
      <point x="166" y="827" type="line"/>
      <point x="384" y="828"/>
      <point x="636" y="734"/>
      <point x="636" y="448" type="curve"/>
      <point x="636" y="144"/>
      <point x="407" y="58"/>
    </contour>
    <contour>
      <point x="526" y="1355" type="line"/>
      <point x="146" y="847" type="line"/>
      <point x="166" y="827" type="line"/>
      <point x="388" y="1001" type="line"/>
      <point x="368" y="1021" type="line"/>
      <point x="504" y="1201" type="line"/>
      <point x="1065" y="1201" type="line"/>
      <point x="1105" y="1355" type="line"/>
    </contour>
  </outline>
</glyph>
<glyph name="six" format="1">
  <advance width="1054"/>
  <unicode hex="0036"/>
  <outline>
    <contour>
      <point x="379" y="-20" type="curve"/>
      <point x="708" y="-20"/>
      <point x="981" y="299"/>
      <point x="981" y="584" type="curve"/>
      <point x="981" y="787"/>
      <point x="863" y="888"/>
      <point x="707" y="888" type="curve"/>
      <point x="584" y="888"/>
      <point x="498" y="838"/>
      <point x="418" y="774" type="curve"/>
      <point x="398" y="774" type="line"/>
      <point x="358" y="774" type="line"/>
      <point x="311" y="612" type="line"/>
      <point x="369" y="708"/>
      <point x="483" y="782"/>
      <point x="592" y="782" type="curve"/>
      <point x="710" y="782"/>
      <point x="773" y="696"/>
      <point x="773" y="549" type="curve"/>
      <point x="773" y="357"/>
      <point x="639" y="50"/>
      <point x="416" y="50" type="curve"/>
      <point x="310" y="50"/>
      <point x="249" y="130"/>
      <point x="249" y="275" type="curve" smooth="yes"/>
      <point x="249" y="484"/>
      <point x="337" y="674"/>
      <point x="398" y="754" type="curve"/>
      <point x="398" y="774" type="line"/>
      <point x="520" y="1038"/>
      <point x="842" y="1261"/>
      <point x="1118" y="1319" type="curve" smooth="yes"/>
      <point x="1194" y="1335" type="line"/>
      <point x="1183" y="1398" type="line"/>
      <point x="662" y="1339"/>
      <point x="60" y="933"/>
      <point x="60" y="325" type="curve" smooth="yes"/>
      <point x="60" y="93"/>
      <point x="199" y="-20"/>
    </contour>
  </outline>
</glyph>
<glyph name="seven" format="1">
  <advance width="898"/>
  <unicode hex="0037"/>
  <outline>
    <contour>
      <point x="1068" y="1355" type="line"/>
      <point x="561" y="1355" type="line"/>
      <point x="516" y="1201" type="line"/>
      <point x="894" y="1201" type="line"/>
      <point x="914" y="1181" type="line"/>
      <point x="65" y="0" type="line"/>
      <point x="270" y="0" type="line"/>
      <point x="1088" y="1335" type="line"/>
    </contour>
    <contour>
      <point x="516" y="1201" type="curve"/>
      <point x="561" y="1355" type="line"/>
      <point x="246" y="1355" type="line"/>
      <point x="135" y="970" type="line"/>
      <point x="205" y="970" type="line"/>
      <point x="220" y="1022" type="line" smooth="yes"/>
      <point x="269" y="1192"/>
      <point x="324" y="1201"/>
    </contour>
  </outline>
</glyph>
<glyph name="eight" format="1">
  <advance width="955"/>
  <unicode hex="0038"/>
  <outline>
    <contour>
      <point x="362" y="50" type="curve"/>
      <point x="281" y="50"/>
      <point x="166" y="82"/>
      <point x="166" y="235" type="curve"/>
      <point x="166" y="409"/>
      <point x="312" y="565"/>
      <point x="445" y="642" type="curve"/>
      <point x="657" y="764" type="line"/>
      <point x="848" y="863"/>
      <point x="1035" y="971"/>
      <point x="1035" y="1166" type="curve"/>
      <point x="1035" y="1310"/>
      <point x="910" y="1375"/>
      <point x="756" y="1375" type="curve"/>
      <point x="467" y="1375"/>
      <point x="233" y="1183"/>
      <point x="233" y="975" type="curve" smooth="yes"/>
      <point x="233" y="840"/>
      <point x="341" y="745"/>
      <point x="399" y="693" type="curve"/>
      <point x="393" y="673" type="line"/>
      <point x="604" y="796" type="line"/>
      <point x="475" y="895"/>
      <point x="426" y="967"/>
      <point x="426" y="1066" type="curve"/>
      <point x="426" y="1227"/>
      <point x="552" y="1305"/>
      <point x="708" y="1305" type="curve"/>
      <point x="831" y="1305"/>
      <point x="889" y="1240"/>
      <point x="889" y="1144" type="curve"/>
      <point x="889" y="978"/>
      <point x="732" y="864"/>
      <point x="604" y="796" type="curve"/>
      <point x="393" y="673" type="line"/>
      <point x="200" y="571"/>
      <point x="0" y="444"/>
      <point x="0" y="232" type="curve"/>
      <point x="0" y="66"/>
      <point x="129" y="-20"/>
      <point x="314" y="-20" type="curve"/>
      <point x="670" y="-20"/>
      <point x="857" y="221"/>
      <point x="857" y="406" type="curve"/>
      <point x="857" y="563"/>
      <point x="760" y="651"/>
      <point x="651" y="744" type="curve"/>
      <point x="657" y="764" type="line"/>
      <point x="445" y="642" type="line"/>
      <point x="577" y="525"/>
      <point x="660" y="450"/>
      <point x="660" y="309" type="curve"/>
      <point x="660" y="168"/>
      <point x="540" y="50"/>
    </contour>
  </outline>
</glyph>
<glyph name="nine" format="1">
  <advance width="1074"/>
  <unicode hex="0039"/>
  <outline>
    <contour>
      <point x="775" y="1398" type="curve"/>
      <point x="446" y="1398"/>
      <point x="173" y="1079"/>
      <point x="173" y="794" type="curve"/>
      <point x="173" y="591"/>
      <point x="291" y="490"/>
      <point x="447" y="490" type="curve"/>
      <point x="570" y="490"/>
      <point x="656" y="540"/>
      <point x="736" y="604" type="curve"/>
      <point x="756" y="604" type="line"/>
      <point x="796" y="604" type="line"/>
      <point x="843" y="766" type="line"/>
      <point x="785" y="670"/>
      <point x="671" y="596"/>
      <point x="562" y="596" type="curve"/>
      <point x="444" y="596"/>
      <point x="381" y="682"/>
      <point x="381" y="829" type="curve"/>
      <point x="381" y="1021"/>
      <point x="515" y="1328"/>
      <point x="738" y="1328" type="curve"/>
      <point x="844" y="1328"/>
      <point x="905" y="1248"/>
      <point x="905" y="1103" type="curve" smooth="yes"/>
      <point x="905" y="894"/>
      <point x="817" y="704"/>
      <point x="756" y="624" type="curve"/>
      <point x="756" y="604" type="line"/>
      <point x="634" y="340"/>
      <point x="312" y="117"/>
      <point x="36" y="59" type="curve" smooth="yes"/>
      <point x="-40" y="43" type="line"/>
      <point x="-29" y="-20" type="line"/>
      <point x="492" y="39"/>
      <point x="1094" y="445"/>
      <point x="1094" y="1053" type="curve" smooth="yes"/>
      <point x="1094" y="1285"/>
      <point x="955" y="1398"/>
    </contour>
  </outline>
</glyph>
<glyph name="less" format="1">
  <advance width="1041"/>
  <unicode hex="003C"/>
  <outline>
    <contour>
      <point x="893" y="225" type="line"/>
      <point x="893" y="305" type="line"/>
      <point x="202" y="668" type="line"/>
      <point x="202" y="688" type="line"/>
      <point x="893" y="1051" type="line"/>
      <point x="893" y="1131" type="line"/>
      <point x="40" y="688" type="line"/>
      <point x="40" y="678" type="line"/>
      <point x="40" y="668" type="line"/>
    </contour>
  </outline>
</glyph>
<glyph name="question" format="1">
  <advance width="865"/>
  <unicode hex="003F"/>
  <outline>
    <contour>
      <point x="707" y="1398" type="curve"/>
      <point x="892" y="1398"/>
      <point x="1030" y="1300"/>
      <point x="1030" y="1110" type="curve"/>
      <point x="1030" y="825"/>
      <point x="706" y="710"/>
      <point x="496" y="627" type="curve"/>
      <point x="424" y="375" type="line"/>
      <point x="350" y="375" type="line"/>
      <point x="428" y="646" type="line"/>
      <point x="448" y="666" type="line"/>
      <point x="561" y="710"/>
      <point x="824" y="841"/>
      <point x="824" y="1090" type="curve"/>
      <point x="824" y="1251"/>
      <point x="752" y="1332"/>
      <point x="636" y="1332" type="curve"/>
      <point x="550" y="1332"/>
      <point x="487" y="1302"/>
      <point x="437" y="1204" type="curve" smooth="yes"/>
      <point x="355" y="1043" type="line"/>
      <point x="175" y="1023" type="line"/>
      <point x="170" y="1049" type="line"/>
      <point x="240" y="1228"/>
      <point x="418" y="1398"/>
    </contour>
    <contour>
      <point x="210" y="0" type="line"/>
      <point x="418" y="0" type="line"/>
      <point x="418" y="208" type="line"/>
      <point x="210" y="208" type="line"/>
    </contour>
  </outline>
</glyph>
<glyph name="at" format="1">
  <advance width="1622"/>
  <unicode hex="0040"/>
  <outline>
    <contour>
      <point x="1056" y="703" type="line"/>
      <point x="1042" y="703" type="line"/>
      <point x="1026" y="725"/>
      <point x="994" y="770"/>
      <point x="897" y="770" type="curve"/>
      <point x="704" y="770"/>
      <point x="465" y="572"/>
      <point x="465" y="279" type="curve"/>
      <point x="465" y="110"/>
      <point x="570" y="64"/>
      <point x="648" y="64" type="curve"/>
      <point x="763" y="64"/>
      <point x="867" y="183"/>
      <point x="915" y="269" type="curve"/>
      <point x="923" y="269" type="line"/>
      <point x="978" y="446" type="line"/>
      <point x="960" y="409"/>
      <point x="843" y="183"/>
      <point x="720" y="183" type="curve"/>
      <point x="676" y="183"/>
      <point x="639" y="216"/>
      <point x="639" y="299" type="curve"/>
      <point x="639" y="469"/>
      <point x="791" y="702"/>
      <point x="925" y="702" type="curve"/>
      <point x="1001" y="702"/>
      <point x="1029" y="644"/>
      <point x="1029" y="577" type="curve"/>
      <point x="1056" y="577" type="line"/>
    </contour>
    <contour>
      <point x="1224" y="756" type="line"/>
      <point x="1073" y="756" type="line"/>
      <point x="923" y="269" type="line"/>
      <point x="930" y="269" type="line"/>
      <point x="921" y="236" type="line"/>
      <point x="900" y="157"/>
      <point x="905" y="106"/>
      <point x="956" y="79" type="curve"/>
      <point x="1019" y="79" type="line"/>
      <point x="1195" y="79"/>
      <point x="1542" y="204"/>
      <point x="1542" y="588" type="curve"/>
      <point x="1542" y="894"/>
      <point x="1275" y="1134"/>
      <point x="897" y="1134" type="curve"/>
      <point x="471" y="1134"/>
      <point x="80" y="845"/>
      <point x="80" y="398" type="curve"/>
      <point x="80" y="-19"/>
      <point x="466" y="-242"/>
      <point x="811" y="-242" type="curve" smooth="yes"/>
      <point x="1156" y="-242"/>
      <point x="1382" y="-73"/>
      <point x="1382" y="-73" type="curve"/>
      <point x="1345" y="-15" type="line"/>
      <point x="1345" y="-15"/>
      <point x="1163" y="-172"/>
      <point x="835" y="-172" type="curve" smooth="yes"/>
      <point x="507" y="-172"/>
      <point x="231" y="50"/>
      <point x="230" y="413" type="curve"/>
      <point x="229" y="836"/>
      <point x="574" y="1064"/>
      <point x="912" y="1064" type="curve"/>
      <point x="1190" y="1064"/>
      <point x="1468" y="889"/>
      <point x="1468" y="592" type="curve"/>
      <point x="1468" y="208"/>
      <point x="1152" y="157"/>
      <point x="1079" y="157" type="curve"/>
      <point x="1064" y="172" type="line"/>
    </contour>
  </outline>
</glyph>
<glyph name="A" format="1">
  <advance width="1337"/>
  <unicode hex="0041"/>
  <outline>
    <contour>
      <point x="939" y="500" type="line"/>
      <point x="895" y="500" type="line"/>
      <point x="875" y="480" type="line"/>
      <point x="490" y="480" type="line"/>
      <point x="490" y="500" type="line"/>
      <point x="395" y="500" type="line"/>
      <point x="395" y="380" type="line"/>
      <point x="939" y="380" type="line"/>
    </contour>
    <contour>
      <point x="56" y="90" type="curve"/>
      <point x="164" y="90" type="line"/>
      <point x="497" y="506"/>
      <point x="618" y="659"/>
      <point x="865" y="997" type="curve"/>
      <point x="885" y="997" type="line"/>
      <point x="885" y="90" type="line"/>
      <point x="1085" y="90" type="line"/>
      <point x="1085" y="1375" type="line"/>
      <point x="1065" y="1375" type="line"/>
      <point x="560" y="756"/>
      <point x="458" y="630"/>
    </contour>
    <contour>
      <point x="164" y="90" type="line"/>
      <point x="56" y="90" type="line"/>
      <point x="26" y="70" type="line"/>
      <point x="-80" y="70" type="line"/>
      <point x="-100" y="0" type="line"/>
      <point x="-100" y="0"/>
      <point x="313" y="0"/>
      <point x="313" y="0" type="curve"/>
      <point x="333" y="70" type="line"/>
      <point x="184" y="70" type="line"/>
    </contour>
    <contour>
      <point x="1085" y="90" type="line"/>
      <point x="885" y="90" type="line"/>
      <point x="865" y="70" type="line"/>
      <point x="704" y="70" type="line"/>
      <point x="704" y="0" type="line"/>
      <point x="704" y="0"/>
      <point x="1212" y="0"/>
      <point x="1212" y="0" type="curve"/>
      <point x="1212" y="70" type="line"/>
      <point x="1105" y="70" type="line"/>
    </contour>
    <contour>
      <point x="1085" y="1395" type="move" name="top"/>
    </contour>
  </outline>
</glyph>
<glyph name="B" format="1">
  <advance width="1387"/>
  <unicode hex="0042"/>
  <outline>
    <contour>
      <point x="531" y="695" type="line"/>
      <point x="560" y="770" type="line"/>
      <point x="560" y="750" type="line"/>
      <point x="724" y="750" type="line" smooth="yes"/>
      <point x="937" y="750"/>
      <point x="1112" y="875"/>
      <point x="1112" y="1066" type="curve"/>
      <point x="1112" y="1215"/>
      <point x="1016" y="1255"/>
      <point x="869" y="1255" type="curve" smooth="yes"/>
      <point x="699" y="1255" type="line"/>
      <point x="728" y="1355" type="line"/>
      <point x="928" y="1355" type="line" smooth="yes"/>
      <point x="1174" y="1355"/>
      <point x="1347" y="1271"/>
      <point x="1347" y="1076" type="curve"/>
      <point x="1347" y="861"/>
      <point x="1109" y="750"/>
      <point x="936" y="715" type="curve"/>
      <point x="936" y="695" type="line"/>
    </contour>
    <contour>
      <point x="728" y="1355" type="line"/>
      <point x="339" y="0" type="line"/>
      <point x="-30" y="0" type="line"/>
      <point x="-10" y="70" type="line"/>
      <point x="141" y="70" type="line"/>
      <point x="171" y="90" type="line"/>
      <point x="486" y="1265" type="line"/>
      <point x="466" y="1285" type="line"/>
      <point x="317" y="1285" type="line"/>
      <point x="337" y="1355" type="line"/>
    </contour>
    <contour>
      <point x="339" y="0" type="line"/>
      <point x="373" y="120" type="line"/>
      <point x="373" y="100" type="line"/>
      <point x="578" y="100" type="line" smooth="yes"/>
      <point x="892" y="100"/>
      <point x="972" y="291"/>
      <point x="972" y="441" type="curve"/>
      <point x="972" y="594"/>
      <point x="881" y="650"/>
      <point x="735" y="650" type="curve" smooth="yes"/>
      <point x="525" y="650" type="line"/>
      <point x="531" y="695" type="line"/>
      <point x="936" y="695" type="line"/>
      <point x="1099" y="660"/>
      <point x="1206" y="574"/>
      <point x="1206" y="420" type="curve"/>
      <point x="1206" y="230"/>
      <point x="1032" y="0"/>
      <point x="579" y="0" type="curve" smooth="yes"/>
    </contour>
  </outline>
</glyph>
<glyph name="C" format="1">
  <advance width="1380"/>
  <unicode hex="0043"/>
  <outline>
    <contour>
      <point x="1363" y="879" type="line"/>
      <point x="1500" y="1355" type="line"/>
      <point x="1500" y="1355"/>
      <point x="1430" y="1355"/>
      <point x="1430" y="1355" type="curve"/>
      <point x="1407" y="1275" type="line"/>
      <point x="1387" y="1275" type="line"/>
      <point x="1387" y="1275"/>
      <point x="1275" y="1375"/>
      <point x="1030" y="1375" type="curve"/>
      <point x="567" y="1375"/>
      <point x="100" y="953"/>
      <point x="100" y="467" type="curve"/>
      <point x="100" y="172"/>
      <point x="300" y="-20"/>
      <point x="640" y="-20" type="curve"/>
      <point x="976" y="-20"/>
      <point x="1188" y="198"/>
      <point x="1264" y="286" type="curve"/>
      <point x="1264" y="286"/>
      <point x="1224" y="336"/>
      <point x="1224" y="336" type="curve"/>
      <point x="1160" y="266"/>
      <point x="993" y="82"/>
      <point x="711" y="82" type="curve"/>
      <point x="450" y="82"/>
      <point x="334" y="242"/>
      <point x="334" y="467" type="curve"/>
      <point x="334" y="885"/>
      <point x="633" y="1295"/>
      <point x="1025" y="1295" type="curve"/>
      <point x="1270" y="1295"/>
      <point x="1366" y="1136"/>
      <point x="1310" y="939" type="curve" smooth="yes"/>
      <point x="1293" y="879" type="line"/>
    </contour>
    <contour>
      <point x="670" y="1395" type="move" name="top"/>
    </contour>
    <contour>
      <point x="640" y="-20" type="move" name="bottom"/>
    </contour>
  </outline>
</glyph>
<glyph name="D" format="1">
  <advance width="1552"/>
  <unicode hex="0044"/>
  <outline>
    <contour>
      <point x="724" y="1355" type="line"/>
      <point x="814" y="1355" type="line"/>
      <point x="1250" y="1355"/>
      <point x="1552" y="1200"/>
      <point x="1552" y="836" type="curve"/>
      <point x="1552" y="334"/>
      <point x="1065" y="0"/>
      <point x="525" y="0" type="curve"/>
      <point x="335" y="0" type="line"/>
      <point x="369" y="120" type="line"/>
      <point x="369" y="100" type="line"/>
      <point x="535" y="100" type="line" smooth="yes"/>
      <point x="1005" y="100"/>
      <point x="1317" y="414"/>
      <point x="1317" y="819" type="curve"/>
      <point x="1317" y="1128"/>
      <point x="1157" y="1255"/>
      <point x="845" y="1255" type="curve" smooth="yes"/>
      <point x="695" y="1255" type="line"/>
    </contour>
    <contour>
      <point x="335" y="0" type="line"/>
      <point x="-40" y="0" type="line"/>
      <point x="-20" y="70" type="line"/>
      <point x="131" y="70" type="line"/>
      <point x="161" y="90" type="line"/>
      <point x="498" y="1265" type="line"/>
      <point x="478" y="1285" type="line"/>
      <point x="329" y="1285" type="line"/>
      <point x="349" y="1355" type="line"/>
      <point x="724" y="1355" type="line"/>
    </contour>
  </outline>
</glyph>
<glyph name="E" format="1">
  <advance width="1315"/>
  <unicode hex="0045"/>
  <outline>
    <contour>
      <point x="525" y="660" type="line"/>
      <point x="915" y="660" type="line"/>
      <point x="935" y="640" type="line"/>
      <point x="897" y="510" type="line"/>
      <point x="967" y="510" type="line"/>
      <point x="1082" y="910" type="line"/>
      <point x="1012" y="910" type="line"/>
      <point x="975" y="780" type="line"/>
      <point x="945" y="760" type="line"/>
      <point x="560" y="760" type="line"/>
      <point x="560" y="780" type="line"/>
      <point x="691" y="1239" type="line"/>
      <point x="1096" y="1239" type="line" smooth="yes"/>
      <point x="1258" y="1239"/>
      <point x="1309" y="1231"/>
      <point x="1260" y="1060" type="curve" smooth="yes"/>
      <point x="1234" y="970" type="line"/>
      <point x="1304" y="970" type="line"/>
      <point x="1415" y="1355" type="line"/>
      <point x="349" y="1355" type="line"/>
      <point x="328" y="1285" type="line"/>
      <point x="478" y="1285" type="line"/>
      <point x="498" y="1265" type="line"/>
      <point x="161" y="90" type="line"/>
      <point x="131" y="70" type="line"/>
      <point x="-20" y="70" type="line"/>
      <point x="-40" y="0" type="line"/>
      <point x="1076" y="0" type="line"/>
      <point x="1192" y="405" type="line"/>
      <point x="1122" y="405" type="line"/>
      <point x="1095" y="310" type="line"/>
      <point x="1049" y="150"/>
      <point x="979" y="116"/>
      <point x="839" y="116" type="curve" smooth="yes"/>
      <point x="374" y="116" type="line"/>
      <point x="374" y="136" type="line"/>
    </contour>
    <contour>
      <point x="913" y="1395" type="move" name="top"/>
    </contour>
  </outline>
</glyph>
<glyph name="F" format="1">
  <advance width="1274"/>
  <unicode hex="0046"/>
  <outline>
    <contour>
      <point x="349" y="1355" type="line"/>
      <point x="329" y="1285" type="line"/>
      <point x="478" y="1285" type="line"/>
      <point x="498" y="1265" type="line"/>
      <point x="135" y="0" type="line"/>
      <point x="335" y="0" type="line"/>
      <point x="524" y="660" type="line"/>
      <point x="914" y="660" type="line"/>
      <point x="934" y="640" type="line"/>
      <point x="896" y="510" type="line"/>
      <point x="966" y="510" type="line"/>
      <point x="1081" y="910" type="line"/>
      <point x="1011" y="910" type="line"/>
      <point x="974" y="780" type="line"/>
      <point x="944" y="760" type="line"/>
      <point x="559" y="760" type="line"/>
      <point x="559" y="780" type="line"/>
      <point x="690" y="1239" type="line"/>
      <point x="1095" y="1239" type="line"/>
      <point x="1257" y="1239"/>
      <point x="1306" y="1222"/>
      <point x="1256" y="1050" type="curve"/>
      <point x="1233" y="970" type="line"/>
      <point x="1303" y="970" type="line"/>
      <point x="1414" y="1355" type="line"/>
    </contour>
    <contour>
      <point x="361" y="90" type="line"/>
      <point x="161" y="90" type="line"/>
      <point x="131" y="70" type="line"/>
      <point x="-20" y="70" type="line"/>
      <point x="-40" y="0" type="line"/>
      <point x="-40" y="0"/>
      <point x="530" y="0"/>
      <point x="530" y="0" type="curve"/>
      <point x="550" y="70" type="line"/>
      <point x="381" y="70" type="line"/>
    </contour>
  </outline>
</glyph>
<glyph name="G" format="1">
  <advance width="1480"/>
  <unicode hex="0047"/>
  <outline>
    <contour>
      <point x="616" y="-20" type="move"/>
      <point x="866" y="-20"/>
      <point x="1010" y="80"/>
      <point x="1075" y="114" type="curve"/>
      <point x="1095" y="114" type="line"/>
      <point x="1062" y="0" type="line"/>
      <point x="1142" y="0" type="line"/>
      <point x="1305" y="570" type="line"/>
      <point x="1335" y="590" type="line"/>
      <point x="1446" y="590" type="line"/>
      <point x="1466" y="660" type="line"/>
      <point x="1001" y="660" type="line"/>
      <point x="981" y="590" type="line"/>
      <point x="1130" y="590" type="line"/>
      <point x="1150" y="570" type="line"/>
      <point x="1112" y="435" type="line"/>
      <point x="1053" y="229"/>
      <point x="941" y="72"/>
      <point x="704" y="72" type="curve"/>
      <point x="450" y="72"/>
      <point x="334" y="242"/>
      <point x="334" y="467" type="curve"/>
      <point x="334" y="885"/>
      <point x="633" y="1295"/>
      <point x="1025" y="1295" type="curve"/>
      <point x="1270" y="1295"/>
      <point x="1366" y="1136"/>
      <point x="1310" y="939" type="curve" smooth="yes"/>
      <point x="1293" y="879" type="line"/>
      <point x="1363" y="879" type="line"/>
      <point x="1500" y="1355" type="line"/>
      <point x="1500" y="1355"/>
      <point x="1430" y="1355"/>
      <point x="1430" y="1355" type="curve"/>
      <point x="1407" y="1275" type="line"/>
      <point x="1387" y="1275" type="line"/>
      <point x="1387" y="1275"/>
      <point x="1275" y="1375"/>
      <point x="1030" y="1375" type="curve"/>
      <point x="567" y="1375"/>
      <point x="100" y="953"/>
      <point x="100" y="467" type="curve"/>
      <point x="100" y="172"/>
      <point x="300" y="-20"/>
      <point x="640" y="-20" type="curve"/>
    </contour>
  </outline>
</glyph>
<glyph name="H" format="1">
  <advance width="1529"/>
  <unicode hex="0048"/>
  <outline>
    <contour>
      <point x="1212" y="740" type="line"/>
      <point x="533" y="740" type="line"/>
      <point x="533" y="760" type="line"/>
      <point x="412" y="740" type="line"/>
      <point x="384" y="640" type="line"/>
      <point x="1103" y="640" type="line"/>
      <point x="1103" y="620" type="line"/>
      <point x="1184" y="640" type="line"/>
    </contour>
    <contour>
      <point x="341" y="90" type="line"/>
      <point x="678" y="1265" type="line"/>
      <point x="678" y="1265"/>
      <point x="478" y="1265"/>
      <point x="478" y="1265" type="curve"/>
      <point x="141" y="90" type="line"/>
    </contour>
    <contour>
      <point x="341" y="90" type="line"/>
      <point x="141" y="90" type="line"/>
      <point x="111" y="70" type="line"/>
      <point x="-40" y="70" type="line"/>
      <point x="-60" y="0" type="line"/>
      <point x="-60" y="0"/>
      <point x="490" y="0"/>
      <point x="490" y="0" type="curve"/>
      <point x="510" y="70" type="line"/>
      <point x="361" y="70" type="line"/>
    </contour>
    <contour>
      <point x="678" y="1265" type="line"/>
      <point x="708" y="1285" type="line"/>
      <point x="859" y="1285" type="line"/>
      <point x="879" y="1355" type="line"/>
      <point x="879" y="1355"/>
      <point x="329" y="1355"/>
      <point x="329" y="1355" type="curve"/>
      <point x="309" y="1285" type="line"/>
      <point x="458" y="1285" type="line"/>
      <point x="478" y="1265" type="line"/>
    </contour>
    <contour>
      <point x="1151" y="90" type="line"/>
      <point x="1488" y="1265" type="line"/>
      <point x="1488" y="1265"/>
      <point x="1288" y="1265"/>
      <point x="1288" y="1265" type="curve"/>
      <point x="951" y="90" type="line"/>
    </contour>
    <contour>
      <point x="1151" y="90" type="line"/>
      <point x="951" y="90" type="line"/>
      <point x="921" y="70" type="line"/>
      <point x="770" y="70" type="line"/>
      <point x="750" y="0" type="line"/>
      <point x="750" y="0"/>
      <point x="1300" y="0"/>
      <point x="1300" y="0" type="curve"/>
      <point x="1320" y="70" type="line"/>
      <point x="1171" y="70" type="line"/>
    </contour>
    <contour>
      <point x="1488" y="1265" type="line"/>
      <point x="1518" y="1285" type="line"/>
      <point x="1669" y="1285" type="line"/>
      <point x="1689" y="1355" type="line"/>
      <point x="1689" y="1355"/>
      <point x="1139" y="1355"/>
      <point x="1139" y="1355" type="curve"/>
      <point x="1119" y="1285" type="line"/>
      <point x="1268" y="1285" type="line"/>
      <point x="1288" y="1265" type="line"/>
    </contour>
  </outline>
</glyph>
<glyph name="I" format="1">
  <advance width="739"/>
  <unicode hex="0049"/>
  <outline>
    <contour>
      <point x="351" y="90" type="line"/>
      <point x="688" y="1265" type="line"/>
      <point x="688" y="1265"/>
      <point x="488" y="1265"/>
      <point x="488" y="1265" type="curve"/>
      <point x="151" y="90" type="line"/>
    </contour>
    <contour>
      <point x="351" y="90" type="line"/>
      <point x="151" y="90" type="line"/>
      <point x="121" y="70" type="line"/>
      <point x="-40" y="70" type="line"/>
      <point x="-60" y="0" type="line"/>
      <point x="-60" y="0"/>
      <point x="510" y="0"/>
      <point x="510" y="0" type="curve"/>
      <point x="530" y="70" type="line"/>
      <point x="371" y="70" type="line"/>
    </contour>
    <contour>
      <point x="688" y="1265" type="line"/>
      <point x="718" y="1285" type="line"/>
      <point x="879" y="1285" type="line"/>
      <point x="899" y="1355" type="line"/>
      <point x="899" y="1355"/>
      <point x="329" y="1355"/>
      <point x="329" y="1355" type="curve"/>
      <point x="309" y="1285" type="line"/>
      <point x="468" y="1285" type="line"/>
      <point x="488" y="1265" type="line"/>
    </contour>
    <contour>
      <point x="620" y="1395" type="move" name="top"/>
    </contour>
  </outline>
</glyph>
<glyph name="J" format="1">
  <advance width="617"/>
  <unicode hex="004A"/>
  <outline>
    <contour>
      <point x="370" y="286" type="curve"/>
      <point x="651" y="1265" type="line"/>
      <point x="651" y="1265"/>
      <point x="451" y="1265"/>
      <point x="451" y="1265" type="curve"/>
      <point x="137" y="170" type="line"/>
      <point x="79" y="-30"/>
      <point x="-31" y="-101"/>
      <point x="-193" y="-130" type="curve" smooth="yes"/>
      <point x="-260" y="-142" type="line"/>
      <point x="-249" y="-198" type="line"/>
      <point x="-193" y="-192" type="line" smooth="yes"/>
      <point x="119" y="-158"/>
      <point x="278" y="-36"/>
    </contour>
    <contour>
      <point x="651" y="1265" type="line"/>
      <point x="681" y="1285" type="line"/>
      <point x="807" y="1285" type="line"/>
      <point x="827" y="1355" type="line"/>
      <point x="827" y="1355"/>
      <point x="302" y="1355"/>
      <point x="302" y="1355" type="curve"/>
      <point x="282" y="1285" type="line"/>
      <point x="431" y="1285" type="line"/>
      <point x="451" y="1265" type="line"/>
    </contour>
  </outline>
</glyph>
<glyph name="K" format="1">
  <advance width="1414"/>
  <unicode hex="004B"/>
  <outline>
    <contour>
      <point x="1393" y="1285" type="line"/>
      <point x="1524" y="1285" type="line"/>
      <point x="1544" y="1355" type="line"/>
      <point x="1105" y="1355" type="line"/>
      <point x="1085" y="1285" type="line"/>
      <point x="1214" y="1285" type="line"/>
      <point x="1234" y="1265" type="line"/>
      <point x="980" y="1076"/>
      <point x="917" y="1028"/>
      <point x="569" y="752" type="curve"/>
      <point x="549" y="752" type="line"/>
      <point x="515" y="635" type="line"/>
      <point x="535" y="635" type="line"/>
      <point x="915" y="0" type="line"/>
      <point x="1241" y="0" type="line"/>
      <point x="1261" y="70" type="line"/>
      <point x="1113" y="70" type="line"/>
      <point x="691" y="748" type="line"/>
      <point x="1018" y="986"/>
      <point x="1086" y="1042"/>
      <point x="1363" y="1265" type="curve"/>
    </contour>
    <contour>
      <point x="359" y="90" type="line"/>
      <point x="696" y="1265" type="line"/>
      <point x="696" y="1265"/>
      <point x="495" y="1265"/>
      <point x="495" y="1265" type="curve"/>
      <point x="160" y="90" type="line"/>
    </contour>
    <contour>
      <point x="359" y="90" type="line"/>
      <point x="160" y="90" type="line"/>
      <point x="130" y="70" type="line"/>
      <point x="-20" y="70" type="line"/>
      <point x="-40" y="0" type="line"/>
      <point x="-40" y="0"/>
      <point x="528" y="0"/>
      <point x="528" y="0" type="curve"/>
      <point x="548" y="70" type="line"/>
      <point x="379" y="70" type="line"/>
    </contour>
    <contour>
      <point x="696" y="1265" type="line"/>
      <point x="726" y="1285" type="line"/>
      <point x="877" y="1285" type="line"/>
      <point x="897" y="1355" type="line"/>
      <point x="897" y="1355"/>
      <point x="349" y="1355"/>
      <point x="349" y="1355" type="curve"/>
      <point x="329" y="1285" type="line"/>
      <point x="475" y="1285" type="line"/>
      <point x="495" y="1265" type="line"/>
    </contour>
  </outline>
</glyph>
<glyph name="L" format="1">
  <advance width="1252"/>
  <unicode hex="004C"/>
  <outline>
    <contour>
      <point x="699" y="1265" type="line"/>
      <point x="729" y="1285" type="line"/>
      <point x="899" y="1285" type="line"/>
      <point x="920" y="1355" type="line"/>
      <point x="920" y="1355"/>
      <point x="349" y="1355"/>
      <point x="349" y="1355" type="curve"/>
      <point x="328" y="1285" type="line"/>
      <point x="478" y="1285" type="line"/>
      <point x="498" y="1265" type="line"/>
    </contour>
    <contour>
      <point x="1076" y="0" type="line"/>
      <point x="1192" y="405" type="line"/>
      <point x="1122" y="405" type="line"/>
      <point x="1101" y="330" type="line" smooth="yes"/>
      <point x="1051" y="152"/>
      <point x="979" y="116"/>
      <point x="829" y="116" type="curve"/>
      <point x="374" y="116" type="line"/>
      <point x="374" y="136" type="line"/>
      <point x="725" y="1355" type="line"/>
      <point x="524" y="1355" type="line"/>
      <point x="161" y="90" type="line"/>
      <point x="131" y="70" type="line"/>
      <point x="-20" y="70" type="line"/>
      <point x="-40" y="0" type="line"/>
    </contour>
  </outline>
</glyph>
<glyph name="M" format="1">
  <advance width="1829"/>
  <unicode hex="004D"/>
  <outline>
    <contour>
      <point x="1644" y="1355" type="line"/>
      <point x="1576" y="1118" type="line"/>
      <point x="1556" y="1118" type="line"/>
      <point x="1311" y="750"/>
      <point x="1242" y="668"/>
      <point x="751" y="-20" type="curve"/>
      <point x="731" y="-20" type="line"/>
      <point x="531" y="1068" type="line"/>
      <point x="511" y="1068" type="line"/>
      <point x="589" y="1355" type="line"/>
      <point x="681" y="1355" type="line"/>
      <point x="873" y="309" type="line"/>
      <point x="893" y="309" type="line"/>
      <point x="1191" y="765"/>
      <point x="1260" y="864"/>
      <point x="1616" y="1355" type="curve"/>
    </contour>
    <contour>
      <point x="589" y="1355" type="line"/>
      <point x="402" y="664"/>
      <point x="371" y="560"/>
      <point x="226" y="90" type="curve"/>
      <point x="246" y="70" type="line"/>
      <point x="415" y="70" type="line"/>
      <point x="395" y="0" type="line"/>
      <point x="-80" y="0" type="line"/>
      <point x="-60" y="70" type="line"/>
      <point x="91" y="70" type="line"/>
      <point x="121" y="90" type="line"/>
      <point x="247" y="562"/>
      <point x="276" y="664"/>
      <point x="458" y="1265" type="curve"/>
      <point x="438" y="1285" type="line"/>
      <point x="299" y="1285" type="line"/>
      <point x="319" y="1355" type="line"/>
    </contour>
    <contour>
      <point x="1644" y="1355" type="line"/>
      <point x="2019" y="1355" type="line"/>
      <point x="1999" y="1285" type="line"/>
      <point x="1848" y="1285" type="line"/>
      <point x="1818" y="1265" type="line"/>
      <point x="1481" y="90" type="line"/>
      <point x="1501" y="70" type="line"/>
      <point x="1650" y="70" type="line"/>
      <point x="1630" y="0" type="line"/>
      <point x="1060" y="0" type="line"/>
      <point x="1080" y="70" type="line"/>
      <point x="1251" y="70" type="line"/>
      <point x="1281" y="90" type="line"/>
    </contour>
  </outline>
</glyph>
<glyph name="N" format="1">
  <advance width="1549"/>
  <unicode hex="004E"/>
  <outline>
    <contour>
      <point x="1548" y="1265" type="curve"/>
      <point x="1578" y="1285" type="line"/>
      <point x="1729" y="1285" type="line"/>
      <point x="1749" y="1355" type="line"/>
      <point x="1274" y="1355" type="line"/>
      <point x="1254" y="1285" type="line"/>
      <point x="1423" y="1285" type="line"/>
      <point x="1443" y="1265" type="line"/>
      <point x="1316" y="858"/>
      <point x="1304" y="817"/>
      <point x="1189" y="385" type="curve"/>
      <point x="1169" y="385" type="line"/>
      <point x="646" y="1355" type="line"/>
      <point x="319" y="1355" type="line"/>
      <point x="299" y="1285" type="line"/>
      <point x="438" y="1285" type="line"/>
      <point x="458" y="1265" type="line"/>
      <point x="276" y="664"/>
      <point x="247" y="562"/>
      <point x="121" y="90" type="curve"/>
      <point x="91" y="70" type="line"/>
      <point x="-60" y="70" type="line"/>
      <point x="-80" y="0" type="line"/>
      <point x="395" y="0" type="line"/>
      <point x="415" y="70" type="line"/>
      <point x="246" y="70" type="line"/>
      <point x="226" y="90" type="line"/>
      <point x="352" y="498"/>
      <point x="392" y="630"/>
      <point x="522" y="1109" type="curve"/>
      <point x="542" y="1109" type="line"/>
      <point x="1151" y="-20" type="line"/>
      <point x="1171" y="-20" type="line"/>
      <point x="1412" y="767"/>
      <point x="1437" y="847"/>
    </contour>
    <contour>
      <point x="1070" y="1395" type="move" name="top"/>
    </contour>
  </outline>
</glyph>
<glyph name="O" format="1">
  <advance width="1518"/>
  <unicode hex="004F"/>
  <outline>
    <contour>
      <point x="670" y="80" type="curve"/>
      <point x="450" y="80"/>
      <point x="360" y="250"/>
      <point x="360" y="489" type="curve"/>
      <point x="360" y="847"/>
      <point x="618" y="1275"/>
      <point x="966" y="1275" type="curve"/>
      <point x="1176" y="1275"/>
      <point x="1266" y="1103"/>
      <point x="1266" y="863" type="curve"/>
      <point x="1266" y="485"/>
      <point x="992" y="80"/>
    </contour>
    <contour>
      <point x="590" y="-20" type="curve"/>
      <point x="1074" y="-20"/>
      <point x="1518" y="508"/>
      <point x="1518" y="910" type="curve"/>
      <point x="1518" y="1199"/>
      <point x="1338" y="1375"/>
      <point x="1040" y="1375" type="curve"/>
      <point x="563" y="1375"/>
      <point x="110" y="884"/>
      <point x="110" y="445" type="curve" smooth="yes"/>
      <point x="110" y="152"/>
      <point x="287" y="-20"/>
    </contour>
    <contour>
      <point x="1055" y="1395" type="move" name="top"/>
    </contour>
  </outline>
</glyph>
<glyph name="P" format="1">
  <advance width="1218"/>
  <unicode hex="0050"/>
  <outline>
    <contour>
      <point x="511" y="615" type="line"/>
      <point x="543" y="725" type="line"/>
      <point x="543" y="715" type="line"/>
      <point x="710" y="715" type="line" smooth="yes"/>
      <point x="945" y="715"/>
      <point x="1104" y="840"/>
      <point x="1104" y="1056" type="curve"/>
      <point x="1104" y="1189"/>
      <point x="1010" y="1255"/>
      <point x="815" y="1255" type="curve"/>
      <point x="695" y="1255" type="line"/>
      <point x="724" y="1355" type="line"/>
      <point x="875" y="1355" type="line"/>
      <point x="1175" y="1355"/>
      <point x="1338" y="1245"/>
      <point x="1338" y="1050" type="curve"/>
      <point x="1338" y="810"/>
      <point x="1085" y="615"/>
      <point x="711" y="615" type="curve" smooth="yes"/>
    </contour>
    <contour>
      <point x="724" y="1355" type="line"/>
      <point x="361" y="90" type="line"/>
      <point x="381" y="70" type="line"/>
      <point x="550" y="70" type="line"/>
      <point x="530" y="0" type="line"/>
      <point x="-40" y="0" type="line"/>
      <point x="-20" y="70" type="line"/>
      <point x="131" y="70" type="line"/>
      <point x="161" y="90" type="line"/>
      <point x="498" y="1265" type="line"/>
      <point x="478" y="1285" type="line"/>
      <point x="329" y="1285" type="line"/>
      <point x="349" y="1355" type="line"/>
    </contour>
  </outline>
</glyph>
<glyph name="Q" format="1">
  <advance width="1508"/>
  <unicode hex="0051"/>
  <outline>
    <contour>
      <point x="768" y="359" type="line"/>
      <point x="1102" y="-100" type="line"/>
      <point x="1183" y="-37" type="line"/>
      <point x="1007" y="202" type="line"/>
      <point x="1000" y="240" type="line"/>
      <point x="980" y="240" type="line"/>
      <point x="850" y="422" type="line"/>
    </contour>
    <component base="O" xOffset="-10"/>
  </outline>
</glyph>
<glyph name="R" format="1">
  <advance width="1327"/>
  <unicode hex="0052"/>
  <outline>
    <contour>
      <point x="526" y="666" type="line"/>
      <point x="551" y="755" type="line"/>
      <point x="551" y="735" type="line"/>
      <point x="686" y="735" type="line" smooth="yes"/>
      <point x="950" y="735"/>
      <point x="1074" y="875"/>
      <point x="1074" y="1054" type="curve" smooth="yes"/>
      <point x="1074" y="1175"/>
      <point x="997" y="1255"/>
      <point x="785" y="1255" type="curve"/>
      <point x="695" y="1255" type="line"/>
      <point x="724" y="1355" type="line"/>
      <point x="851" y="1355" type="line" smooth="yes"/>
      <point x="1145" y="1355"/>
      <point x="1307" y="1240"/>
      <point x="1307" y="1057" type="curve" smooth="yes"/>
      <point x="1307" y="850"/>
      <point x="1109" y="666"/>
      <point x="732" y="666" type="curve"/>
    </contour>
    <contour>
      <point x="724" y="1355" type="line"/>
      <point x="361" y="90" type="line"/>
      <point x="381" y="70" type="line"/>
      <point x="550" y="70" type="line"/>
      <point x="530" y="0" type="line"/>
      <point x="-40" y="0" type="line"/>
      <point x="-20" y="70" type="line"/>
      <point x="131" y="70" type="line"/>
      <point x="161" y="90" type="line"/>
      <point x="498" y="1265" type="line"/>
      <point x="478" y="1285" type="line"/>
      <point x="329" y="1285" type="line"/>
      <point x="349" y="1355" type="line"/>
    </contour>
    <contour>
      <point x="813" y="0" type="line" smooth="yes"/>
      <point x="538" y="638" type="line"/>
      <point x="518" y="638" type="line"/>
      <point x="526" y="666" type="line"/>
      <point x="722" y="666" type="line"/>
      <point x="722" y="646" type="line"/>
      <point x="993" y="70" type="line"/>
      <point x="1142" y="70" type="line"/>
      <point x="1122" y="0" type="line"/>
    </contour>
  </outline>
</glyph>
<glyph name="S" format="1">
  <advance width="1184"/>
  <unicode hex="0053"/>
  <outline>
    <contour>
      <point x="550" y="1375"/>
      <point x="352" y="1230"/>
      <point x="352" y="1001" type="curve"/>
      <point x="352" y="860"/>
      <point x="418" y="779"/>
      <point x="512" y="688" type="curve" smooth="yes"/>
      <point x="652" y="552" type="line" smooth="yes"/>
      <point x="744" y="463"/>
      <point x="770" y="366"/>
      <point x="770" y="283" type="curve"/>
      <point x="770" y="134"/>
      <point x="663" y="60"/>
      <point x="495" y="60" type="curve"/>
      <point x="248" y="60"/>
      <point x="152" y="249"/>
      <point x="199" y="415" type="curve" smooth="yes"/>
      <point x="216" y="475" type="line"/>
      <point x="146" y="475" type="line"/>
      <point x="10" y="-1" type="line"/>
      <point x="10" y="-1"/>
      <point x="80" y="-1"/>
      <point x="80" y="-1" type="curve"/>
      <point x="103" y="79" type="line"/>
      <point x="123" y="79" type="line"/>
      <point x="170" y="54"/>
      <point x="284" y="-20"/>
      <point x="484" y="-20" type="curve"/>
      <point x="774" y="-20"/>
      <point x="982" y="140"/>
      <point x="982" y="380" type="curve"/>
      <point x="982" y="519"/>
      <point x="928" y="604"/>
      <point x="838" y="690" type="curve" smooth="yes"/>
      <point x="680" y="842" type="line" smooth="yes"/>
      <point x="599" y="920"/>
      <point x="543" y="980"/>
      <point x="543" y="1086" type="curve"/>
      <point x="543" y="1209"/>
      <point x="636" y="1295"/>
      <point x="787" y="1295" type="curve"/>
      <point x="1024" y="1295"/>
      <point x="1081" y="1105"/>
      <point x="1034" y="939" type="curve" smooth="yes"/>
      <point x="1017" y="879" type="line"/>
      <point x="1087" y="879" type="line"/>
      <point x="1224" y="1355" type="line"/>
      <point x="1224" y="1355"/>
      <point x="1154" y="1355"/>
      <point x="1154" y="1355" type="curve"/>
      <point x="1131" y="1275" type="line"/>
      <point x="1111" y="1275" type="line"/>
      <point x="1062" y="1308"/>
      <point x="964" y="1375"/>
      <point x="800" y="1375" type="curve"/>
    </contour>
  </outline>
</glyph>
<glyph name="T" format="1">
  <advance width="1235"/>
  <unicode hex="0054"/>
  <outline>
    <contour>
      <point x="590" y="70" type="line"/>
      <point x="930" y="1255" type="line"/>
      <point x="930" y="1255"/>
      <point x="730" y="1255"/>
      <point x="730" y="1255" type="curve"/>
      <point x="720" y="1239" type="line"/>
      <point x="720" y="1219" type="line"/>
      <point x="390" y="70" type="line"/>
    </contour>
    <contour>
      <point x="596" y="90" type="line"/>
      <point x="396" y="90" type="line"/>
      <point x="366" y="70" type="line"/>
      <point x="215" y="70" type="line"/>
      <point x="195" y="0" type="line"/>
      <point x="195" y="0"/>
      <point x="745" y="0"/>
      <point x="745" y="0" type="curve"/>
      <point x="765" y="70" type="line"/>
      <point x="616" y="70" type="line"/>
    </contour>
    <contour>
      <point x="267" y="1050" type="line" smooth="yes"/>
      <point x="314" y="1220"/>
      <point x="374" y="1239"/>
      <point x="566" y="1239" type="curve" smooth="yes"/>
      <point x="1116" y="1239" type="line"/>
      <point x="1278" y="1239"/>
      <point x="1325" y="1223"/>
      <point x="1277" y="1050" type="curve" smooth="yes"/>
      <point x="1260" y="989" type="line"/>
      <point x="1330" y="989" type="line"/>
      <point x="1435" y="1355" type="line"/>
      <point x="285" y="1355" type="line"/>
      <point x="180" y="989" type="line"/>
      <point x="250" y="989" type="line"/>
    </contour>
  </outline>
</glyph>
<glyph name="U" format="1">
  <advance width="1480"/>
  <unicode hex="0055"/>
  <outline>
    <contour>
      <point x="622" y="-20" type="curve"/>
      <point x="966" y="-20"/>
      <point x="1174" y="162"/>
      <point x="1294" y="550" type="curve" smooth="yes"/>
      <point x="1389" y="856"/>
      <point x="1429" y="1008"/>
      <point x="1499" y="1265" type="curve"/>
      <point x="1529" y="1285" type="line"/>
      <point x="1660" y="1285" type="line"/>
      <point x="1680" y="1355" type="line"/>
      <point x="1245" y="1355" type="line"/>
      <point x="1225" y="1285" type="line"/>
      <point x="1369" y="1285" type="line"/>
      <point x="1389" y="1265" type="line"/>
      <point x="1328" y="1056"/>
      <point x="1304" y="979"/>
      <point x="1168" y="520" type="curve" smooth="yes"/>
      <point x="1076" y="210"/>
      <point x="942" y="90"/>
      <point x="692" y="90" type="curve"/>
      <point x="482" y="90"/>
      <point x="353" y="199"/>
      <point x="437" y="493" type="curve" smooth="yes"/>
      <point x="659" y="1265" type="line"/>
      <point x="659" y="1265"/>
      <point x="459" y="1265"/>
      <point x="459" y="1265" type="curve"/>
      <point x="242" y="510" type="line" smooth="yes"/>
      <point x="126" y="105"/>
      <point x="327" y="-20"/>
    </contour>
    <contour>
      <point x="659" y="1265" type="line"/>
      <point x="689" y="1285" type="line"/>
      <point x="840" y="1285" type="line"/>
      <point x="860" y="1355" type="line"/>
      <point x="860" y="1355"/>
      <point x="310" y="1355"/>
      <point x="310" y="1355" type="curve"/>
      <point x="290" y="1285" type="line"/>
      <point x="439" y="1285" type="line"/>
      <point x="459" y="1265" type="line"/>
    </contour>
    <contour>
      <point x="1054" y="1395" type="move" name="top"/>
    </contour>
  </outline>
</glyph>
<glyph name="V" format="1">
  <advance width="1336"/>
  <unicode hex="0056"/>
  <outline>
    <contour>
      <point x="1400" y="1265" type="curve"/>
      <point x="1292" y="1265" type="line"/>
      <point x="959" y="829"/>
      <point x="841" y="677"/>
      <point x="591" y="337" type="curve"/>
      <point x="571" y="337" type="line"/>
      <point x="571" y="1265" type="line"/>
      <point x="371" y="1265" type="line"/>
      <point x="371" y="-20" type="line"/>
      <point x="391" y="-20" type="line"/>
      <point x="942" y="639"/>
      <point x="998" y="705"/>
    </contour>
    <contour>
      <point x="1292" y="1265" type="line"/>
      <point x="1400" y="1265" type="line"/>
      <point x="1430" y="1285" type="line"/>
      <point x="1536" y="1285" type="line"/>
      <point x="1556" y="1355" type="line"/>
      <point x="1556" y="1355"/>
      <point x="1143" y="1355"/>
      <point x="1143" y="1355" type="curve"/>
      <point x="1123" y="1285" type="line"/>
      <point x="1272" y="1285" type="line"/>
    </contour>
    <contour>
      <point x="371" y="1265" type="line"/>
      <point x="571" y="1265" type="line"/>
      <point x="591" y="1285" type="line"/>
      <point x="752" y="1285" type="line"/>
      <point x="752" y="1355" type="line"/>
      <point x="752" y="1355"/>
      <point x="244" y="1355"/>
      <point x="244" y="1355" type="curve"/>
      <point x="244" y="1285" type="line"/>
      <point x="351" y="1285" type="line"/>
    </contour>
  </outline>
</glyph>
<glyph name="W" format="1">
  <advance width="2006"/>
  <unicode hex="0057"/>
  <outline>
    <contour>
      <point x="1204" y="763" type="line"/>
      <point x="1204" y="1158" type="line"/>
      <point x="913" y="780"/>
      <point x="831" y="678"/>
      <point x="591" y="347" type="curve"/>
      <point x="571" y="347" type="line"/>
      <point x="571" y="1265" type="line"/>
      <point x="371" y="1265" type="line"/>
      <point x="371" y="-20" type="line"/>
      <point x="391" y="-20" type="line"/>
      <point x="732" y="384"/>
      <point x="915" y="622"/>
      <point x="1021" y="763" type="curve"/>
      <point x="1041" y="763" type="line"/>
    </contour>
    <contour>
      <point x="371" y="1265" type="line"/>
      <point x="571" y="1265" type="line"/>
      <point x="591" y="1285" type="line"/>
      <point x="752" y="1285" type="line"/>
      <point x="752" y="1355" type="line"/>
      <point x="752" y="1355"/>
      <point x="244" y="1355"/>
      <point x="244" y="1355" type="curve"/>
      <point x="244" y="1285" type="line"/>
      <point x="351" y="1285" type="line"/>
    </contour>
    <contour>
      <point x="2070" y="1265" type="curve"/>
      <point x="1962" y="1265" type="line"/>
      <point x="1619" y="829"/>
      <point x="1524" y="705"/>
      <point x="1261" y="347" type="curve"/>
      <point x="1241" y="347" type="line"/>
      <point x="1241" y="1265" type="line"/>
      <point x="1041" y="1265" type="line"/>
      <point x="1041" y="-20" type="line"/>
      <point x="1061" y="-20" type="line"/>
      <point x="1608" y="639"/>
      <point x="1658" y="705"/>
    </contour>
    <contour>
      <point x="1962" y="1265" type="line"/>
      <point x="2070" y="1265" type="line"/>
      <point x="2100" y="1285" type="line"/>
      <point x="2206" y="1285" type="line"/>
      <point x="2226" y="1355" type="line"/>
      <point x="2226" y="1355"/>
      <point x="1813" y="1355"/>
      <point x="1813" y="1355" type="curve"/>
      <point x="1793" y="1285" type="line"/>
      <point x="1942" y="1285" type="line"/>
    </contour>
    <contour>
      <point x="1041" y="1265" type="line"/>
      <point x="1241" y="1265" type="line"/>
      <point x="1261" y="1285" type="line"/>
      <point x="1422" y="1285" type="line"/>
      <point x="1422" y="1355" type="line"/>
      <point x="1422" y="1355"/>
      <point x="914" y="1355"/>
      <point x="914" y="1355" type="curve"/>
      <point x="914" y="1285" type="line"/>
      <point x="1021" y="1285" type="line"/>
    </contour>
  </outline>
</glyph>
<glyph name="X" format="1">
  <advance width="1327"/>
  <unicode hex="0058"/>
  <outline>
    <contour>
      <point x="1293" y="1265" type="line"/>
      <point x="1421" y="1265" type="line"/>
      <point x="1451" y="1285" type="line"/>
      <point x="1567" y="1285" type="line"/>
      <point x="1587" y="1355" type="line"/>
      <point x="1587" y="1355"/>
      <point x="1139" y="1355"/>
      <point x="1139" y="1355" type="curve"/>
      <point x="1119" y="1285" type="line"/>
      <point x="1273" y="1285" type="line"/>
    </contour>
    <contour>
      <point x="467" y="1265" type="line"/>
      <point x="674" y="1265" type="line"/>
      <point x="694" y="1285" type="line"/>
      <point x="850" y="1285" type="line"/>
      <point x="860" y="1355" type="line"/>
      <point x="860" y="1355"/>
      <point x="313" y="1355"/>
      <point x="313" y="1355" type="curve"/>
      <point x="303" y="1285" type="line"/>
      <point x="447" y="1285" type="line"/>
    </contour>
    <contour>
      <point x="997" y="90" type="line"/>
      <point x="674" y="1265" type="line"/>
      <point x="467" y="1265" type="line"/>
      <point x="790" y="90" type="line"/>
    </contour>
    <contour>
      <point x="1421" y="1265" type="curve"/>
      <point x="1293" y="1265" type="line"/>
      <point x="1095" y="1086"/>
      <point x="1023" y="1016"/>
      <point x="817" y="818" type="curve"/>
      <point x="797" y="818" type="line"/>
      <point x="719" y="747" type="line"/>
      <point x="474" y="531"/>
      <point x="378" y="450"/>
      <point x="6" y="90" type="curve"/>
      <point x="134" y="90" type="line"/>
      <point x="330" y="270"/>
      <point x="461" y="389"/>
      <point x="639" y="567" type="curve"/>
      <point x="659" y="567" type="line"/>
      <point x="762" y="668" type="line"/>
      <point x="972" y="850"/>
      <point x="1106" y="962"/>
    </contour>
    <contour>
      <point x="997" y="90" type="line"/>
      <point x="790" y="90" type="line"/>
      <point x="770" y="70" type="line"/>
      <point x="614" y="70" type="line"/>
      <point x="604" y="0" type="line"/>
      <point x="604" y="0"/>
      <point x="1151" y="0"/>
      <point x="1151" y="0" type="curve"/>
      <point x="1161" y="70" type="line"/>
      <point x="1017" y="70" type="line"/>
    </contour>
    <contour>
      <point x="134" y="90" type="line"/>
      <point x="6" y="90" type="line"/>
      <point x="-24" y="70" type="line"/>
      <point x="-140" y="70" type="line"/>
      <point x="-160" y="0" type="line"/>
      <point x="-160" y="0"/>
      <point x="308" y="0"/>
      <point x="308" y="0" type="curve"/>
      <point x="328" y="70" type="line"/>
      <point x="154" y="70" type="line"/>
    </contour>
  </outline>
</glyph>
<glyph name="Y" format="1">
  <advance width="1179"/>
  <unicode hex="0059"/>
  <outline>
    <contour>
      <point x="1125" y="1265" type="line"/>
      <point x="1233" y="1265" type="line"/>
      <point x="1263" y="1285" type="line"/>
      <point x="1399" y="1285" type="line"/>
      <point x="1419" y="1355" type="line"/>
      <point x="1419" y="1355"/>
      <point x="971" y="1355"/>
      <point x="971" y="1355" type="curve"/>
      <point x="951" y="1285" type="line"/>
      <point x="1105" y="1285" type="line"/>
    </contour>
    <contour>
      <point x="374" y="1265" type="line"/>
      <point x="580" y="1265" type="line"/>
      <point x="600" y="1285" type="line"/>
      <point x="776" y="1285" type="line"/>
      <point x="796" y="1355" type="line"/>
      <point x="796" y="1355"/>
      <point x="240" y="1355"/>
      <point x="240" y="1355" type="curve"/>
      <point x="220" y="1285" type="line"/>
      <point x="354" y="1285" type="line"/>
    </contour>
    <contour>
      <point x="374" y="1265" type="line"/>
      <point x="576" y="614" type="line"/>
      <point x="771" y="614" type="line"/>
      <point x="758" y="654" type="line"/>
      <point x="580" y="1265" type="line"/>
    </contour>
    <contour>
      <point x="1233" y="1265" type="curve"/>
      <point x="1125" y="1265" type="line"/>
      <point x="1015" y="1102"/>
      <point x="938" y="990"/>
      <point x="759" y="718" type="curve"/>
      <point x="739" y="718" type="line"/>
      <point x="726" y="614" type="line"/>
      <point x="771" y="614" type="line"/>
      <point x="995" y="917"/>
      <point x="1038" y="979"/>
    </contour>
    <contour>
      <point x="621" y="90" type="line"/>
      <point x="771" y="614" type="line"/>
      <point x="771" y="614"/>
      <point x="576" y="614"/>
      <point x="576" y="614" type="curve"/>
      <point x="426" y="90" type="line"/>
    </contour>
    <contour>
      <point x="621" y="90" type="line"/>
      <point x="426" y="90" type="line"/>
      <point x="400" y="70" type="line"/>
      <point x="245" y="70" type="line"/>
      <point x="225" y="0" type="line"/>
      <point x="225" y="0"/>
      <point x="770" y="0"/>
      <point x="770" y="0" type="curve"/>
      <point x="790" y="70" type="line"/>
      <point x="635" y="70" type="line"/>
    </contour>
    <contour>
      <point x="905" y="1395" type="move" name="top"/>
    </contour>
  </outline>
</glyph>
<glyph name="Z" format="1">
  <advance width="1167"/>
  <unicode hex="005A"/>
  <outline>
    <contour>
      <point x="1227" y="1285" type="line"/>
      <point x="969" y="1265" type="line"/>
      <point x="969" y="1245" type="line"/>
      <point x="20" y="70" type="line"/>
      <point x="279" y="90" type="line"/>
      <point x="279" y="110" type="line"/>
    </contour>
    <contour>
      <point x="969" y="1265" type="line"/>
      <point x="1227" y="1285" type="line"/>
      <point x="1247" y="1355" type="line"/>
      <point x="303" y="1355" type="line"/>
      <point x="192" y="970" type="line"/>
      <point x="262" y="970" type="line"/>
      <point x="291" y="1070" type="line" smooth="yes"/>
      <point x="340" y="1240"/>
      <point x="400" y="1265"/>
      <point x="592" y="1265" type="curve" smooth="yes"/>
    </contour>
    <contour>
      <point x="279" y="90" type="line"/>
      <point x="20" y="70" type="line"/>
      <point x="0" y="0" type="line"/>
      <point x="974" y="0" type="line"/>
      <point x="1093" y="415" type="line"/>
      <point x="1023" y="415" type="line"/>
      <point x="986" y="285" type="line" smooth="yes"/>
      <point x="938" y="115"/>
      <point x="877" y="90"/>
      <point x="685" y="90" type="curve" smooth="yes"/>
    </contour>
  </outline>
</glyph>
<glyph name="bracketleft" format="1">
  <advance width="707"/>
  <unicode hex="005B"/>
  <outline>
    <contour>
      <point x="0" y="-333" type="line"/>
      <point x="403" y="-333" type="line"/>
      <point x="423" y="-263" type="line"/>
      <point x="180" y="-263" type="line"/>
      <point x="160" y="-243" type="line"/>
      <point x="563" y="1163" type="line" smooth="yes"/>
      <point x="593" y="1183" type="line"/>
      <point x="837" y="1183" type="line"/>
      <point x="857" y="1253" type="line"/>
      <point x="454" y="1253" type="line"/>
    </contour>
  </outline>
</glyph>
<glyph name="bracketright" format="1">
  <advance width="813"/>
  <unicode hex="005D"/>
  <outline>
    <contour>
      <point x="807" y="1253" type="line"/>
      <point x="404" y="1253" type="line"/>
      <point x="384" y="1183" type="line"/>
      <point x="627" y="1183" type="line"/>
      <point x="647" y="1163" type="line"/>
      <point x="244" y="-243" type="line" smooth="yes"/>
      <point x="214" y="-263" type="line"/>
      <point x="-30" y="-263" type="line"/>
      <point x="-50" y="-333" type="line"/>
      <point x="353" y="-333" type="line"/>
    </contour>
  </outline>
</glyph>
<glyph name="grave" format="2">
  <advance width="570"/>
  <unicode hex="0060"/>
  <anchor x="285" y="959" name="_top"/>
  <outline>
    <contour>
      <point x="370" y="1016" type="line"/>
      <point x="-60" y="1281" type="line"/>
      <point x="50" y="1395" type="line"/>
      <point x="430" y="1016" type="line"/>
    </contour>
  </outline>
</glyph>
<glyph name="a" format="1">
  <advance width="996"/>
  <unicode hex="0061"/>
  <outline>
    <contour>
      <point x="599" y="214" type="line"/>
      <point x="570" y="107"/>
      <point x="577" y="37"/>
      <point x="646" y="0" type="curve"/>
      <point x="730" y="0" type="line"/>
      <point x="801" y="58"/>
      <point x="897" y="184"/>
      <point x="956" y="276" type="curve"/>
      <point x="886" y="276" type="line"/>
      <point x="831" y="198"/>
      <point x="773" y="132"/>
      <point x="749" y="107" type="curve"/>
      <point x="729" y="127" type="line"/>
      <point x="946" y="920" type="line"/>
      <point x="805" y="920" type="line"/>
      <point x="601" y="258" type="line"/>
      <point x="611" y="258" type="line"/>
    </contour>
    <contour>
      <point x="783" y="849" type="line"/>
      <point x="763" y="849" type="line"/>
      <point x="742" y="880"/>
      <point x="701" y="939"/>
      <point x="594" y="939" type="curve"/>
      <point x="318" y="939"/>
      <point x="30" y="534"/>
      <point x="30" y="232" type="curve"/>
      <point x="30" y="42"/>
      <point x="122" y="-20"/>
      <point x="228" y="-20" type="curve"/>
      <point x="384" y="-20"/>
      <point x="525" y="142"/>
      <point x="591" y="258" type="curve"/>
      <point x="601" y="258" type="line"/>
      <point x="667" y="472" type="line"/>
      <point x="643" y="421"/>
      <point x="484" y="114"/>
      <point x="316" y="114" type="curve"/>
      <point x="262" y="114"/>
      <point x="216" y="160"/>
      <point x="216" y="272" type="curve"/>
      <point x="216" y="530"/>
      <point x="427" y="874"/>
      <point x="628" y="874" type="curve"/>
      <point x="725" y="874"/>
      <point x="753" y="795"/>
      <point x="753" y="704" type="curve"/>
      <point x="783" y="704" type="line"/>
    </contour>
    <contour>
      <point x="663" y="959" type="move" name="top"/>
    </contour>
  </outline>
</glyph>
<glyph name="b" format="2">
  <advance width="985"/>
  <unicode hex="0062"/>
  <guideline x="344" y="661" angle="0" identifier="GgJOkgQxVG"/>
  <guideline x="137" y="122" angle="0" identifier="UkNVX61Elp"/>
  <outline>
    <contour>
      <point x="935" y="687" type="curve"/>
      <point x="935" y="877"/>
      <point x="843" y="939"/>
      <point x="737" y="939" type="curve"/>
      <point x="571" y="939"/>
      <point x="435" y="807"/>
      <point x="359" y="661" type="curve"/>
      <point x="339" y="661" type="line"/>
      <point x="427" y="963"/>
      <point x="518.1566449035" y="1275.5221496782"/>
      <point x="542" y="1355" type="curve"/>
      <point x="171" y="1355" type="line"/>
      <point x="161" y="1295" type="line"/>
      <point x="319" y="1295" type="line"/>
      <point x="339" y="1275" type="line"/>
      <point x="0" y="0" type="line"/>
      <point x="70" y="0" type="line"/>
      <point x="106" y="122" type="line"/>
      <point x="126" y="122" type="line"/>
      <point x="153" y="80"/>
      <point x="211" y="-20"/>
      <point x="357" y="-20" type="curve"/>
      <point x="657" y="-20"/>
      <point x="935" y="385"/>
    </contour>
    <contour>
      <point x="639" y="815" type="curve"/>
      <point x="703" y="815"/>
      <point x="749" y="759"/>
      <point x="749" y="647" type="curve"/>
      <point x="749" y="389"/>
      <point x="563" y="55"/>
      <point x="333" y="55" type="curve"/>
      <point x="235" y="55"/>
      <point x="190" y="112"/>
      <point x="184" y="121" type="curve"/>
      <point x="279" y="450" type="line"/>
      <point x="313" y="514"/>
      <point x="483" y="815"/>
    </contour>
  </outline>
</glyph>
<glyph name="c" format="2">
  <advance width="851"/>
  <unicode hex="0063"/>
  <anchor x="411" y="959" name="top"/>
  <anchor x="301" y="-20" name="bottom"/>
  <outline>
    <contour>
      <point x="654" y="939" type="curve"/>
      <point x="350" y="939"/>
      <point x="40" y="622"/>
      <point x="40" y="280" type="curve"/>
      <point x="40" y="72"/>
      <point x="156" y="-20"/>
      <point x="306" y="-20" type="curve"/>
      <point x="532" y="-20"/>
      <point x="696" y="172"/>
      <point x="754" y="236" type="curve"/>
      <point x="686" y="236" type="line"/>
      <point x="646" y="198"/>
      <point x="538" y="94"/>
      <point x="414" y="94" type="curve"/>
      <point x="304" y="94"/>
      <point x="226" y="170"/>
      <point x="226" y="340" type="curve"/>
      <point x="226" y="638"/>
      <point x="445" y="874"/>
      <point x="586" y="874" type="curve"/>
      <point x="633" y="874"/>
      <point x="653" y="856"/>
      <point x="665" y="808" type="curve" smooth="yes"/>
      <point x="696" y="688" type="line"/>
      <point x="866" y="714" type="line"/>
      <point x="881" y="744" type="line"/>
      <point x="872" y="792"/>
      <point x="854" y="939"/>
    </contour>
  </outline>
</glyph>
<glyph name="d" format="1">
  <advance width="1019"/>
  <unicode hex="0064"/>
  <outline>
    <contour>
      <point x="655" y="0" type="curve"/>
      <point x="743" y="0" type="line"/>
      <point x="814" y="58"/>
      <point x="910" y="184"/>
      <point x="969" y="276" type="curve"/>
      <point x="899" y="276" type="line"/>
      <point x="844" y="198"/>
      <point x="786" y="132"/>
      <point x="762" y="107" type="curve"/>
      <point x="734" y="107" type="line"/>
      <point x="789" y="348"/>
      <point x="1057.7741285810698" y="1230.9137619368994"/>
      <point x="1095" y="1355" type="curve"/>
      <point x="724" y="1355" type="line"/>
      <point x="714" y="1295" type="line"/>
      <point x="872" y="1295" type="line"/>
      <point x="892" y="1275" type="line"/>
      <point x="746" y="704" type="line"/>
      <point x="713" y="588" type="line"/>
      <point x="619" y="258" type="line"/>
      <point x="607" y="214" type="line" smooth="yes"/>
      <point x="578" y="107"/>
      <point x="586" y="37"/>
    </contour>
    <contour>
      <point x="783" y="849" type="line"/>
      <point x="763" y="849" type="line"/>
      <point x="742" y="880"/>
      <point x="701" y="939"/>
      <point x="594" y="939" type="curve"/>
      <point x="318" y="939"/>
      <point x="30" y="534"/>
      <point x="30" y="232" type="curve"/>
      <point x="30" y="42"/>
      <point x="122" y="-20"/>
      <point x="228" y="-20" type="curve"/>
      <point x="384" y="-20"/>
      <point x="533" y="142"/>
      <point x="599" y="258" type="curve"/>
      <point x="619" y="258" type="line"/>
      <point x="680" y="472" type="line"/>
      <point x="656" y="421"/>
      <point x="489" y="114"/>
      <point x="316" y="114" type="curve"/>
      <point x="262" y="114"/>
      <point x="216" y="160"/>
      <point x="216" y="272" type="curve"/>
      <point x="216" y="530"/>
      <point x="427" y="874"/>
      <point x="628" y="874" type="curve"/>
      <point x="719" y="874"/>
      <point x="763" y="795"/>
      <point x="763" y="704" type="curve"/>
      <point x="783" y="704" type="line"/>
    </contour>
  </outline>
</glyph>
<glyph name="e" format="2">
  <advance width="852"/>
  <unicode hex="0065"/>
  <guideline x="271" y="491" angle="90" identifier="zsSCibygCl"/>
  <anchor x="601" y="959" name="top"/>
  <outline>
    <contour>
      <point x="656" y="939" type="curve"/>
      <point x="320" y="939"/>
      <point x="40" y="576"/>
      <point x="40" y="278" type="curve"/>
      <point x="40" y="108"/>
      <point x="122" y="-20"/>
      <point x="310" y="-20" type="curve"/>
      <point x="526" y="-20"/>
      <point x="692" y="166"/>
      <point x="754" y="236" type="curve"/>
      <point x="686" y="236" type="line"/>
      <point x="632" y="188"/>
      <point x="538" y="94"/>
      <point x="413" y="94" type="curve"/>
      <point x="292" y="94"/>
      <point x="226" y="186"/>
      <point x="226" y="338" type="curve"/>
      <point x="226" y="647"/>
      <point x="453" y="876"/>
      <point x="596" y="876" type="curve"/>
      <point x="655" y="876"/>
      <point x="690" y="838"/>
      <point x="690" y="782" type="curve"/>
      <point x="690" y="711"/>
      <point x="639" y="654"/>
      <point x="478" y="588" type="curve" smooth="yes"/>
      <point x="274" y="504" type="line"/>
      <point x="254" y="524" type="line"/>
      <point x="227" y="445" type="line"/>
      <point x="686" y="529"/>
      <point x="852" y="641"/>
      <point x="852" y="788" type="curve"/>
      <point x="852" y="872"/>
      <point x="786" y="939"/>
    </contour>
  </outline>
</glyph>
<glyph name="f" format="1">
  <advance width="557"/>
  <unicode hex="0066"/>
  <outline>
    <contour>
      <point x="102" y="775" type="line"/>
      <point x="620" y="775" type="line"/>
      <point x="640" y="850" type="line"/>
      <point x="122" y="850" type="line"/>
    </contour>
    <contour>
      <point x="28" y="-172" type="line" smooth="yes"/>
      <point x="11" y="-239"/>
      <point x="-22" y="-289"/>
      <point x="-114" y="-289" type="curve" smooth="yes"/>
      <point x="-335" y="-289" type="line"/>
      <point x="-400" y="-430" type="line"/>
      <point x="-385" y="-450" type="line"/>
      <point x="-248" y="-442" type="line" smooth="yes"/>
      <point x="-18" y="-429"/>
      <point x="170" y="-174"/>
      <point x="240" y="68" type="curve" smooth="yes"/>
      <point x="466" y="850" type="line"/>
      <point x="506" y="1100" type="line" smooth="yes"/>
      <point x="517" y="1167"/>
      <point x="551" y="1214"/>
      <point x="643" y="1214" type="curve"/>
      <point x="892" y="1214" type="line"/>
      <point x="957" y="1355" type="line"/>
      <point x="942" y="1375" type="line"/>
      <point x="728" y="1362" type="line" smooth="yes"/>
      <point x="542" y="1351"/>
      <point x="437" y="1144"/>
      <point x="303" y="870" type="curve"/>
      <point x="273" y="850" type="line"/>
      <point x="286" y="822" type="line"/>
    </contour>
  </outline>
</glyph>
<glyph name="g" format="1">
  <advance width="994"/>
  <unicode hex="0067"/>
  <outline>
    <contour>
      <point x="-100" y="-229" type="curve"/>
      <point x="-100" y="-356"/>
      <point x="54" y="-450"/>
      <point x="310" y="-450" type="curve"/>
      <point x="632" y="-450"/>
      <point x="834" y="-315"/>
      <point x="834" y="-146" type="curve"/>
      <point x="834" y="-40"/>
      <point x="770" y="21"/>
      <point x="592" y="64" type="curve" smooth="yes"/>
      <point x="351" y="122" type="line" smooth="yes"/>
      <point x="295" y="136"/>
      <point x="256" y="146"/>
      <point x="256" y="186" type="curve"/>
      <point x="256" y="220"/>
      <point x="282" y="234"/>
      <point x="342" y="268" type="curve" smooth="yes"/>
      <point x="406" y="304" type="line"/>
      <point x="406" y="340" type="line"/>
      <point x="293" y="340" type="line"/>
      <point x="293" y="295" type="line"/>
      <point x="137" y="222"/>
      <point x="95" y="160"/>
      <point x="95" y="106" type="curve" smooth="yes"/>
      <point x="95" y="64"/>
      <point x="121" y="44"/>
      <point x="142" y="34" type="curve"/>
      <point x="142" y="14" type="line"/>
      <point x="-9" y="-52"/>
      <point x="-100" y="-128"/>
    </contour>
    <contour>
      <point x="661" y="-125"/>
      <point x="694" y="-156"/>
      <point x="694" y="-214" type="curve"/>
      <point x="694" y="-292"/>
      <point x="597" y="-371"/>
      <point x="379" y="-371" type="curve"/>
      <point x="176" y="-371"/>
      <point x="62" y="-323"/>
      <point x="62" y="-200" type="curve" smooth="yes"/>
      <point x="62" y="-130"/>
      <point x="88" y="-80"/>
      <point x="130" y="-48" type="curve" smooth="yes"/>
      <point x="206" y="10" type="line"/>
      <point x="596" y="-106" type="line" smooth="yes"/>
    </contour>
    <contour>
      <point x="249" y="939"/>
      <point x="92" y="748"/>
      <point x="92" y="579" type="curve" smooth="yes"/>
      <point x="92" y="423"/>
      <point x="212" y="302"/>
      <point x="386" y="302" type="curve"/>
      <point x="683" y="302"/>
      <point x="860" y="474"/>
      <point x="860" y="644" type="curve" smooth="yes"/>
      <point x="860" y="801"/>
      <point x="779" y="939"/>
      <point x="535" y="939" type="curve"/>
    </contour>
    <contour>
      <point x="273" y="670"/>
      <point x="372" y="874"/>
      <point x="530" y="874" type="curve"/>
      <point x="621" y="874"/>
      <point x="679" y="814"/>
      <point x="679" y="705" type="curve" smooth="yes"/>
      <point x="679" y="546"/>
      <point x="569" y="367"/>
      <point x="420" y="367" type="curve"/>
      <point x="335" y="367"/>
      <point x="273" y="421"/>
      <point x="273" y="536" type="curve"/>
    </contour>
    <contour>
      <point x="678" y="824" type="line"/>
      <point x="810" y="824" type="line"/>
      <point x="810" y="844" type="line"/>
      <point x="1014" y="844" type="line"/>
      <point x="1034" y="919" type="line"/>
      <point x="678" y="919" type="line"/>
    </contour>
  </outline>
</glyph>
<glyph name="h" format="1">
  <advance width="1006"/>
  <unicode hex="0068"/>
  <outline>
    <contour>
      <point x="10" y="0" type="line"/>
      <point x="138" y="0" type="line"/>
      <point x="272" y="436" type="line" smooth="yes"/>
      <point x="548" y="1335" type="line"/>
      <point x="528" y="1355" type="line"/>
      <point x="183" y="1355" type="line"/>
      <point x="173" y="1295" type="line"/>
      <point x="331" y="1295" type="line"/>
      <point x="351" y="1275" type="line"/>
    </contour>
    <contour>
      <point x="621" y="0" type="curve"/>
      <point x="710" y="0" type="line"/>
      <point x="781" y="58"/>
      <point x="877" y="184"/>
      <point x="936" y="276" type="curve"/>
      <point x="866" y="276" type="line"/>
      <point x="811" y="198"/>
      <point x="753" y="132"/>
      <point x="729" y="107" type="curve"/>
      <point x="709" y="127" type="line"/>
      <point x="863" y="662" type="line" smooth="yes"/>
      <point x="913" y="834"/>
      <point x="890" y="939"/>
      <point x="764" y="939" type="curve"/>
      <point x="509" y="939"/>
      <point x="364" y="608"/>
      <point x="292" y="436" type="curve"/>
      <point x="272" y="436" type="line"/>
      <point x="138" y="0" type="line"/>
      <point x="158" y="0" type="line"/>
      <point x="284" y="350"/>
      <point x="536" y="824"/>
      <point x="672" y="824" type="curve"/>
      <point x="728" y="824"/>
      <point x="720" y="749"/>
      <point x="692" y="651" type="curve" smooth="yes"/>
      <point x="569" y="214" type="line" smooth="yes"/>
      <point x="539" y="109"/>
      <point x="552" y="37"/>
    </contour>
  </outline>
</glyph>
<glyph name="i" format="1">
  <advance width="584"/>
  <unicode hex="0069"/>
  <outline>
    <contour>
      <point x="396" y="1157" type="line"/>
      <point x="594" y="1157" type="line"/>
      <point x="594" y="1355" type="line"/>
      <point x="396" y="1355" type="line"/>
    </contour>
    <contour>
      <point x="262" y="127" type="line"/>
      <point x="430" y="662" type="line" smooth="yes"/>
      <point x="477" y="812"/>
      <point x="457" y="874"/>
      <point x="402" y="919" type="curve"/>
      <point x="296" y="919" type="line"/>
      <point x="238" y="875"/>
      <point x="156" y="778"/>
      <point x="70" y="643" type="curve"/>
      <point x="140" y="643" type="line"/>
      <point x="224" y="764"/>
      <point x="258" y="798"/>
      <point x="273" y="812" type="curve"/>
      <point x="293" y="792" type="line"/>
      <point x="124" y="214" type="line" smooth="yes"/>
      <point x="93" y="109"/>
      <point x="110" y="37"/>
      <point x="179" y="0" type="curve"/>
      <point x="263" y="0" type="line"/>
      <point x="334" y="58"/>
      <point x="430" y="184"/>
      <point x="489" y="276" type="curve"/>
      <point x="419" y="276" type="line"/>
      <point x="364" y="198"/>
      <point x="306" y="132"/>
      <point x="282" y="107" type="curve"/>
    </contour>
  </outline>
</glyph>
<glyph name="j" format="2">
  <advance width="494"/>
  <unicode hex="006A"/>
  <guideline x="266" y="997" angle="90" identifier="u49umUOMQi"/>
  <outline>
    <contour>
      <point x="366" y="1157" type="line"/>
      <point x="564" y="1157" type="line"/>
      <point x="564" y="1355" type="line"/>
      <point x="366" y="1355" type="line"/>
    </contour>
    <contour>
      <point x="14" y="-184" type="line" smooth="yes"/>
      <point x="-3" y="-251"/>
      <point x="-24" y="-299"/>
      <point x="-116" y="-299" type="curve"/>
      <point x="-335" y="-299" type="line"/>
      <point x="-400" y="-440" type="line"/>
      <point x="-385" y="-460" type="line"/>
      <point x="-241" y="-447" type="line" smooth="yes"/>
      <point x="-1" y="-425"/>
      <point x="159" y="-177"/>
      <point x="230" y="68" type="curve"/>
      <point x="410" y="662" type="line" smooth="yes"/>
      <point x="455" y="811"/>
      <point x="437" y="874"/>
      <point x="382" y="919" type="curve"/>
      <point x="276" y="919" type="line"/>
      <point x="218" y="875"/>
      <point x="136" y="778"/>
      <point x="50" y="643" type="curve"/>
      <point x="120" y="643" type="line"/>
      <point x="204" y="764"/>
      <point x="238" y="798"/>
      <point x="253" y="812" type="curve"/>
      <point x="273" y="792" type="line"/>
    </contour>
  </outline>
</glyph>
<glyph name="k" format="1">
  <advance width="921"/>
  <unicode hex="006B"/>
  <outline>
    <contour>
      <point x="636" y="114" type="line"/>
      <point x="514" y="545" type="line"/>
      <point x="668" y="667"/>
      <point x="722" y="732"/>
      <point x="884" y="859" type="curve"/>
      <point x="1001" y="859" type="line"/>
      <point x="1021" y="919" type="line"/>
      <point x="638" y="919" type="line"/>
      <point x="618" y="859" type="line"/>
      <point x="719" y="859" type="line"/>
      <point x="739" y="839" type="line"/>
      <point x="628" y="740"/>
      <point x="464" y="596"/>
      <point x="316" y="460" type="curve"/>
      <point x="296" y="460" type="line"/>
      <point x="268" y="363" type="line"/>
      <point x="366" y="443" type="line"/>
      <point x="386" y="443" type="line"/>
      <point x="482" y="80" type="line" smooth="yes"/>
      <point x="496" y="27"/>
      <point x="532" y="13"/>
      <point x="571" y="0" type="curve"/>
      <point x="634" y="0" type="line"/>
      <point x="705" y="58"/>
      <point x="801" y="184"/>
      <point x="860" y="276" type="curve"/>
      <point x="790" y="276" type="line"/>
      <point x="735" y="198"/>
      <point x="680" y="139"/>
      <point x="656" y="114" type="curve"/>
    </contour>
    <contour>
      <point x="10" y="0" type="line"/>
      <point x="162" y="0" type="line"/>
      <point x="558" y="1355" type="line"/>
      <point x="193" y="1355" type="line"/>
      <point x="183" y="1295" type="line"/>
      <point x="341" y="1295" type="line"/>
      <point x="361" y="1275" type="line"/>
    </contour>
  </outline>
</glyph>
<glyph name="l" format="1">
  <advance width="486"/>
  <unicode hex="006C"/>
  <outline>
    <contour>
      <point x="108" y="0" type="curve"/>
      <point x="196" y="0" type="line"/>
      <point x="267" y="58"/>
      <point x="363" y="184"/>
      <point x="422" y="276" type="curve"/>
      <point x="352" y="276" type="line"/>
      <point x="297" y="198"/>
      <point x="239" y="132"/>
      <point x="215" y="107" type="curve"/>
      <point x="195" y="127" type="line"/>
      <point x="250" y="368"/>
      <point x="504.7741285810698" y="1230.9137619368994"/>
      <point x="542" y="1355" type="curve"/>
      <point x="171" y="1355" type="line"/>
      <point x="161" y="1295" type="line"/>
      <point x="319" y="1295" type="line"/>
      <point x="339" y="1275" type="line"/>
      <point x="54" y="214" type="line" smooth="yes"/>
      <point x="25" y="107"/>
      <point x="39" y="37"/>
    </contour>
  </outline>
</glyph>
<glyph name="m" format="1">
  <advance width="1568"/>
  <unicode hex="006D"/>
  <outline>
    <contour>
      <point x="322" y="436" type="line"/>
      <point x="401" y="662" type="line" smooth="yes"/>
      <point x="448" y="797"/>
      <point x="448" y="882"/>
      <point x="404" y="919" type="curve"/>
      <point x="286" y="919" type="line"/>
      <point x="228" y="875"/>
      <point x="146" y="778"/>
      <point x="60" y="643" type="curve"/>
      <point x="130" y="643" type="line"/>
      <point x="214" y="764"/>
      <point x="248" y="798"/>
      <point x="263" y="812" type="curve"/>
      <point x="283" y="792" type="line"/>
      <point x="60" y="0" type="line"/>
      <point x="188" y="0" type="line"/>
    </contour>
    <contour>
      <point x="556" y="0" type="line"/>
      <point x="684" y="0" type="line"/>
      <point x="818" y="436" type="line"/>
      <point x="897" y="662" type="line" smooth="yes"/>
      <point x="957" y="833"/>
      <point x="936" y="939"/>
      <point x="810" y="939" type="curve"/>
      <point x="556" y="939"/>
      <point x="408" y="598"/>
      <point x="342" y="436" type="curve"/>
      <point x="322" y="436" type="line"/>
      <point x="188" y="0" type="line"/>
      <point x="208" y="0" type="line"/>
      <point x="313" y="292"/>
      <point x="574" y="824"/>
      <point x="718" y="824" type="curve"/>
      <point x="774" y="824"/>
      <point x="766" y="749"/>
      <point x="738" y="651" type="curve"/>
    </contour>
    <contour>
      <point x="1163" y="0" type="curve"/>
      <point x="1262" y="0" type="line"/>
      <point x="1333" y="58"/>
      <point x="1429" y="184"/>
      <point x="1488" y="276" type="curve"/>
      <point x="1418" y="276" type="line"/>
      <point x="1363" y="198"/>
      <point x="1305" y="132"/>
      <point x="1281" y="107" type="curve"/>
      <point x="1261" y="127" type="line"/>
      <point x="1415" y="662" type="line" smooth="yes"/>
      <point x="1462" y="825"/>
      <point x="1432" y="939"/>
      <point x="1304" y="939" type="curve"/>
      <point x="1052" y="939"/>
      <point x="904" y="598"/>
      <point x="838" y="436" type="curve"/>
      <point x="818" y="436" type="line"/>
      <point x="684" y="0" type="line"/>
      <point x="704" y="0" type="line"/>
      <point x="810" y="292"/>
      <point x="1071" y="824"/>
      <point x="1214" y="824" type="curve"/>
      <point x="1270" y="824"/>
      <point x="1262" y="749"/>
      <point x="1234" y="651" type="curve" smooth="yes"/>
      <point x="1111" y="214" type="line" smooth="yes"/>
      <point x="1081" y="109"/>
      <point x="1094" y="37"/>
    </contour>
  </outline>
</glyph>
<glyph name="n" format="1">
  <advance width="1076"/>
  <unicode hex="006E"/>
  <outline>
    <contour>
      <point x="322" y="436" type="line"/>
      <point x="401" y="662" type="line" smooth="yes"/>
      <point x="449" y="799"/>
      <point x="448" y="882"/>
      <point x="404" y="919" type="curve"/>
      <point x="286" y="919" type="line"/>
      <point x="228" y="875"/>
      <point x="146" y="778"/>
      <point x="60" y="643" type="curve"/>
      <point x="130" y="643" type="line"/>
      <point x="214" y="764"/>
      <point x="248" y="798"/>
      <point x="263" y="812" type="curve"/>
      <point x="283" y="792" type="line"/>
      <point x="60" y="0" type="line"/>
      <point x="188" y="0" type="line"/>
    </contour>
    <contour>
      <point x="681" y="0" type="curve"/>
      <point x="770" y="0" type="line"/>
      <point x="841" y="58"/>
      <point x="937" y="184"/>
      <point x="996" y="276" type="curve"/>
      <point x="926" y="276" type="line"/>
      <point x="871" y="198"/>
      <point x="813" y="132"/>
      <point x="789" y="107" type="curve"/>
      <point x="769" y="127" type="line"/>
      <point x="923" y="662" type="line" smooth="yes"/>
      <point x="973" y="834"/>
      <point x="940" y="939"/>
      <point x="820" y="939" type="curve"/>
      <point x="569" y="939"/>
      <point x="414" y="608"/>
      <point x="342" y="436" type="curve"/>
      <point x="322" y="436" type="line"/>
      <point x="188" y="0" type="line"/>
      <point x="208" y="0" type="line"/>
      <point x="334" y="350"/>
      <point x="596" y="824"/>
      <point x="732" y="824" type="curve"/>
      <point x="788" y="824"/>
      <point x="780" y="749"/>
      <point x="752" y="651" type="curve" smooth="yes"/>
      <point x="629" y="214" type="line" smooth="yes"/>
      <point x="599" y="109"/>
      <point x="612" y="37"/>
    </contour>
    <contour>
      <point x="628" y="959" type="move" name="top"/>
    </contour>
  </outline>
</glyph>
<glyph name="o" format="1">
  <advance width="974"/>
  <unicode hex="006F"/>
  <outline>
    <contour>
      <point x="284" y="939"/>
      <point x="40" y="602"/>
      <point x="40" y="306" type="curve"/>
      <point x="40" y="114"/>
      <point x="154" y="-20"/>
      <point x="352" y="-20" type="curve"/>
      <point x="680" y="-20"/>
      <point x="924" y="326"/>
      <point x="924" y="617" type="curve"/>
      <point x="924" y="809"/>
      <point x="809" y="939"/>
      <point x="614" y="939" type="curve"/>
    </contour>
    <contour>
      <point x="232" y="509"/>
      <point x="382" y="869"/>
      <point x="586" y="869" type="curve"/>
      <point x="710" y="869"/>
      <point x="732" y="768"/>
      <point x="732" y="628" type="curve"/>
      <point x="732" y="424"/>
      <point x="599" y="50"/>
      <point x="378" y="50" type="curve"/>
      <point x="257" y="50"/>
      <point x="232" y="147"/>
      <point x="232" y="282" type="curve"/>
    </contour>
    <contour>
      <point x="636" y="959" type="move" name="top"/>
    </contour>
  </outline>
</glyph>
<glyph name="p" format="1">
  <advance width="1020"/>
  <unicode hex="0070"/>
  <outline>
    <contour>
      <point x="-46" y="-360" type="line"/>
      <point x="-71" y="-380" type="line"/>
      <point x="-220" y="-380" type="line"/>
      <point x="-230" y="-440" type="line"/>
      <point x="231" y="-440" type="line"/>
      <point x="241" y="-380" type="line"/>
      <point x="129" y="-380" type="line"/>
      <point x="114" y="-360" type="line"/>
    </contour>
    <contour>
      <point x="277" y="792" type="line"/>
      <point x="-72" y="-440" type="line"/>
      <point x="93" y="-440" type="line"/>
      <point x="400" y="662" type="line" smooth="yes"/>
      <point x="438" y="798"/>
      <point x="446" y="880"/>
      <point x="396" y="919" type="curve"/>
      <point x="280" y="919" type="line"/>
      <point x="222" y="875"/>
      <point x="140" y="778"/>
      <point x="54" y="643" type="curve"/>
      <point x="124" y="643" type="line"/>
      <point x="208" y="764"/>
      <point x="242" y="798"/>
      <point x="257" y="812" type="curve"/>
    </contour>
    <contour>
      <point x="235" y="71" type="line"/>
      <point x="255" y="71" type="line"/>
      <point x="276" y="40"/>
      <point x="317" y="-20"/>
      <point x="424" y="-20" type="curve"/>
      <point x="700" y="-20"/>
      <point x="980" y="385"/>
      <point x="980" y="687" type="curve"/>
      <point x="980" y="877"/>
      <point x="888" y="939"/>
      <point x="782" y="939" type="curve"/>
      <point x="626" y="939"/>
      <point x="485" y="775"/>
      <point x="419" y="659" type="curve"/>
      <point x="399" y="659" type="line"/>
      <point x="339" y="443" type="line"/>
      <point x="362" y="491"/>
      <point x="526" y="805"/>
      <point x="694" y="805" type="curve"/>
      <point x="748" y="805"/>
      <point x="794" y="759"/>
      <point x="794" y="647" type="curve"/>
      <point x="794" y="389"/>
      <point x="591" y="45"/>
      <point x="390" y="45" type="curve"/>
      <point x="293" y="45"/>
      <point x="265" y="125"/>
      <point x="265" y="216" type="curve"/>
      <point x="235" y="216" type="line"/>
    </contour>
  </outline>
</glyph>
<glyph name="q" format="2">
  <advance width="996"/>
  <unicode hex="0071"/>
  <outline>
    <contour>
      <point x="447" y="-360" type="line"/>
      <point x="422" y="-380" type="line"/>
      <point x="273" y="-380" type="line"/>
      <point x="263" y="-440" type="line"/>
      <point x="724" y="-440" type="line"/>
      <point x="734" y="-380" type="line"/>
      <point x="622" y="-380" type="line"/>
      <point x="607" y="-360" type="line"/>
    </contour>
    <contour>
      <point x="631" y="258" type="line"/>
      <point x="421" y="-440" type="line"/>
      <point x="586" y="-440" type="line"/>
      <point x="966" y="920" type="line"/>
      <point x="825" y="920" type="line"/>
      <point x="759" y="704" type="line"/>
      <point x="621" y="258" type="line"/>
    </contour>
    <contour>
      <point x="803" y="848" type="line"/>
      <point x="783" y="848" type="line"/>
      <point x="762" y="879"/>
      <point x="721" y="939"/>
      <point x="614" y="939" type="curve"/>
      <point x="338" y="939"/>
      <point x="50" y="534"/>
      <point x="50" y="232" type="curve"/>
      <point x="50" y="42"/>
      <point x="142" y="-20"/>
      <point x="248" y="-20" type="curve"/>
      <point x="404" y="-20"/>
      <point x="545" y="142"/>
      <point x="611" y="258" type="curve"/>
      <point x="621" y="258" type="line"/>
      <point x="686" y="468" type="line"/>
      <point x="663" y="420"/>
      <point x="504" y="114"/>
      <point x="336" y="114" type="curve"/>
      <point x="282" y="114"/>
      <point x="236" y="160"/>
      <point x="236" y="272" type="curve"/>
      <point x="236" y="530"/>
      <point x="447" y="874"/>
      <point x="648" y="874" type="curve"/>
      <point x="745" y="874"/>
      <point x="773" y="794"/>
      <point x="773" y="703" type="curve"/>
      <point x="803" y="703" type="line"/>
    </contour>
  </outline>
</glyph>
<glyph name="r" format="2">
  <advance width="731"/>
  <unicode hex="0072"/>
  <guideline x="371" y="426" angle="0" identifier="jrLscjmsFi"/>
  <outline>
    <contour>
      <point x="393" y="613" type="line"/>
      <point x="409" y="659" type="line" smooth="yes"/>
      <point x="456" y="794"/>
      <point x="462" y="880"/>
      <point x="412" y="919" type="curve"/>
      <point x="296" y="919" type="line"/>
      <point x="238" y="875"/>
      <point x="156" y="778"/>
      <point x="70" y="643" type="curve"/>
      <point x="140" y="643" type="line"/>
      <point x="224" y="764"/>
      <point x="258" y="798"/>
      <point x="273" y="812" type="curve"/>
      <point x="293" y="792" type="line"/>
      <point x="70" y="0" type="line"/>
      <point x="198" y="0" type="line"/>
    </contour>
    <contour>
      <point x="841" y="919" type="line"/>
      <point x="826" y="939" type="line"/>
      <point x="704" y="934" type="line" smooth="yes"/>
      <point x="590" y="929"/>
      <point x="485" y="775"/>
      <point x="423" y="613" type="curve"/>
      <point x="393" y="613" type="line"/>
      <point x="198" y="0" type="line"/>
      <point x="218" y="0" type="line"/>
      <point x="422" y="579"/>
      <point x="496" y="778"/>
      <point x="694" y="778" type="curve"/>
      <point x="776" y="778" type="line"/>
    </contour>
  </outline>
</glyph>
<glyph name="s" format="1">
  <advance width="766"/>
  <unicode hex="0073"/>
  <outline>
    <contour>
      <point x="698" y="643" type="line"/>
      <point x="766" y="939" type="line"/>
      <point x="698" y="939" type="line"/>
      <point x="682" y="880" type="line"/>
      <point x="662" y="880" type="line"/>
      <point x="626" y="900"/>
      <point x="558" y="939"/>
      <point x="462" y="939" type="curve"/>
      <point x="296" y="939"/>
      <point x="192" y="844"/>
      <point x="192" y="706" type="curve"/>
      <point x="192" y="580"/>
      <point x="256" y="511"/>
      <point x="328" y="424" type="curve" smooth="yes"/>
      <point x="405" y="331"/>
      <point x="448" y="275"/>
      <point x="448" y="176" type="curve"/>
      <point x="448" y="92"/>
      <point x="398" y="40"/>
      <point x="306" y="40" type="curve"/>
      <point x="176" y="40"/>
      <point x="78" y="152"/>
      <point x="104" y="295" type="curve" smooth="yes"/>
      <point x="111" y="334" type="line"/>
      <point x="45" y="334" type="line"/>
      <point x="-20" y="0" type="line"/>
      <point x="48" y="0" type="line"/>
      <point x="60" y="50" type="line"/>
      <point x="80" y="50" type="line"/>
      <point x="105" y="38"/>
      <point x="180" y="-20"/>
      <point x="300" y="-20" type="curve"/>
      <point x="496" y="-20"/>
      <point x="614" y="94"/>
      <point x="614" y="250" type="curve"/>
      <point x="614" y="382"/>
      <point x="555" y="446"/>
      <point x="478" y="543" type="curve" smooth="yes"/>
      <point x="393" y="651"/>
      <point x="344" y="694"/>
      <point x="344" y="762" type="curve"/>
      <point x="344" y="830"/>
      <point x="384" y="879"/>
      <point x="470" y="879" type="curve"/>
      <point x="596" y="879"/>
      <point x="656" y="766"/>
      <point x="644" y="705" type="curve" smooth="yes"/>
      <point x="632" y="643" type="line"/>
    </contour>
  </outline>
</glyph>
<glyph name="t" format="1">
  <advance width="634"/>
  <unicode hex="0074"/>
  <outline>
    <contour>
      <point x="338" y="844" type="line"/>
      <point x="614" y="844" type="line"/>
      <point x="634" y="919" type="line"/>
      <point x="358" y="919" type="line"/>
    </contour>
    <contour>
      <point x="255" y="127" type="line"/>
      <point x="532" y="1120" type="line"/>
      <point x="512" y="1120" type="line"/>
      <point x="136" y="864" type="line"/>
      <point x="151" y="844" type="line"/>
      <point x="291" y="844" type="line"/>
      <point x="115" y="214" type="line" smooth="yes"/>
      <point x="86" y="109"/>
      <point x="98" y="37"/>
      <point x="167" y="0" type="curve"/>
      <point x="256" y="0" type="line"/>
      <point x="334" y="62"/>
      <point x="450" y="215"/>
      <point x="493" y="276" type="curve"/>
      <point x="423" y="276" type="line"/>
      <point x="382" y="224"/>
      <point x="314" y="144"/>
      <point x="275" y="107" type="curve"/>
    </contour>
  </outline>
</glyph>
<glyph name="u" format="1">
  <advance width="1061"/>
  <unicode hex="0075"/>
  <outline>
    <contour>
      <point x="715" y="483" type="line"/>
      <point x="636" y="257" type="line" smooth="yes"/>
      <point x="582" y="102"/>
      <point x="599" y="36"/>
      <point x="663" y="0" type="curve"/>
      <point x="755" y="0" type="line"/>
      <point x="811" y="44"/>
      <point x="893" y="142"/>
      <point x="981" y="276" type="curve"/>
      <point x="911" y="276" type="line"/>
      <point x="827" y="160"/>
      <point x="789" y="121"/>
      <point x="774" y="107" type="curve"/>
      <point x="754" y="127" type="line"/>
      <point x="977" y="919" type="line"/>
      <point x="849" y="919" type="line"/>
    </contour>
    <contour>
      <point x="404" y="919" type="curve"/>
      <point x="282" y="919" type="line"/>
      <point x="214" y="862"/>
      <point x="119" y="735"/>
      <point x="60" y="643" type="curve"/>
      <point x="130" y="643" type="line"/>
      <point x="185" y="721"/>
      <point x="235" y="787"/>
      <point x="263" y="812" type="curve"/>
      <point x="283" y="792" type="line"/>
      <point x="128" y="258" type="line" smooth="yes"/>
      <point x="78" y="86"/>
      <point x="99" y="-20"/>
      <point x="229" y="-20" type="curve"/>
      <point x="482" y="-20"/>
      <point x="620" y="312"/>
      <point x="695" y="483" type="curve"/>
      <point x="715" y="483" type="line"/>
      <point x="849" y="919" type="line"/>
      <point x="829" y="919" type="line"/>
      <point x="726" y="638"/>
      <point x="470" y="95"/>
      <point x="317" y="95" type="curve"/>
      <point x="265" y="95"/>
      <point x="270" y="171"/>
      <point x="298" y="268" type="curve" smooth="yes"/>
      <point x="422" y="704" type="line" smooth="yes"/>
      <point x="452" y="809"/>
      <point x="444" y="884"/>
    </contour>
    <contour>
      <point x="601" y="959" type="move" name="top"/>
    </contour>
  </outline>
</glyph>
<glyph name="v" format="2">
  <advance width="888"/>
  <unicode hex="0076"/>
  <guideline x="514" y="218" angle="0" identifier="QGAQs3HGhf"/>
  <outline>
    <contour>
      <point x="802" y="919" type="curve"/>
      <point x="722" y="919" type="line"/>
      <point x="657" y="778" type="line"/>
      <point x="672" y="758" type="line"/>
      <point x="712" y="758" type="line" smooth="yes"/>
      <point x="741" y="758"/>
      <point x="754" y="744"/>
      <point x="754" y="716" type="curve"/>
      <point x="754" y="631"/>
      <point x="606" y="404"/>
      <point x="464" y="218" type="curve"/>
      <point x="444" y="218" type="line"/>
      <point x="444" y="618"/>
      <point x="389" y="886"/>
      <point x="314" y="919" type="curve"/>
      <point x="192" y="919" type="line"/>
      <point x="134" y="862"/>
      <point x="89" y="795"/>
      <point x="30" y="703" type="curve"/>
      <point x="100" y="703" type="line"/>
      <point x="119" y="734"/>
      <point x="152" y="787"/>
      <point x="173" y="812" type="curve"/>
      <point x="193" y="812" type="line"/>
      <point x="230" y="742"/>
      <point x="258" y="490"/>
      <point x="306" y="-20" type="curve"/>
      <point x="326" y="-20" type="line"/>
      <point x="585" y="282"/>
      <point x="908" y="660"/>
      <point x="908" y="812" type="curve"/>
      <point x="908" y="872"/>
      <point x="884" y="919"/>
    </contour>
  </outline>
</glyph>
<glyph name="w" format="1">
  <advance width="1395"/>
  <unicode hex="0077"/>
  <outline>
    <contour>
      <point x="830" y="-20" type="line"/>
      <point x="850" y="-20" type="line"/>
      <point x="1112" y="284"/>
      <point x="1442" y="657"/>
      <point x="1442" y="815" type="curve"/>
      <point x="1442" y="894"/>
      <point x="1394" y="919"/>
      <point x="1333" y="919" type="curve"/>
      <point x="1256" y="919" type="line"/>
      <point x="1191" y="778" type="line"/>
      <point x="1206" y="758" type="line"/>
      <point x="1246" y="758" type="line"/>
      <point x="1259" y="758"/>
      <point x="1288" y="755"/>
      <point x="1288" y="718" type="curve"/>
      <point x="1288" y="631"/>
      <point x="1130" y="404"/>
      <point x="988" y="218" type="curve"/>
      <point x="968" y="218" type="line"/>
      <point x="944" y="722"/>
      <point x="894" y="890"/>
      <point x="884" y="919" type="curve"/>
      <point x="848" y="919" type="line"/>
      <point x="661" y="624"/>
      <point x="598" y="519"/>
      <point x="482" y="302" type="curve"/>
      <point x="462" y="302" type="line"/>
      <point x="457" y="603"/>
      <point x="416" y="878"/>
      <point x="334" y="919" type="curve"/>
      <point x="212" y="919" type="line"/>
      <point x="154" y="862"/>
      <point x="109" y="795"/>
      <point x="50" y="703" type="curve"/>
      <point x="120" y="703" type="line"/>
      <point x="139" y="734"/>
      <point x="172" y="787"/>
      <point x="193" y="812" type="curve"/>
      <point x="213" y="812" type="line"/>
      <point x="250" y="740"/>
      <point x="281" y="470"/>
      <point x="326" y="-20" type="curve"/>
      <point x="346" y="-20" type="line"/>
      <point x="593" y="356"/>
      <point x="644" y="436"/>
      <point x="744" y="618" type="curve"/>
      <point x="764" y="618" type="line"/>
    </contour>
  </outline>
</glyph>
<glyph name="x" format="1">
  <advance width="866.0"/>
  <unicode hex="0078"/>
  <outline>
    <contour>
      <point x="413" y="154" type="line" smooth="yes"/>
      <point x="439" y="49"/>
      <point x="457" y="25"/>
      <point x="506" y="0" type="curve"/>
      <point x="595" y="0" type="line"/>
      <point x="666" y="58"/>
      <point x="762" y="184"/>
      <point x="821" y="276" type="curve"/>
      <point x="751" y="276" type="line"/>
      <point x="696" y="198"/>
      <point x="638" y="132"/>
      <point x="614" y="107" type="curve"/>
      <point x="594" y="107" type="line"/>
      <point x="412" y="840" type="line" smooth="yes"/>
      <point x="402" y="880"/>
      <point x="392" y="910"/>
      <point x="369" y="919" type="curve"/>
      <point x="247" y="919" type="line"/>
      <point x="189" y="862"/>
      <point x="144" y="795"/>
      <point x="85" y="703" type="curve"/>
      <point x="155" y="703" type="line"/>
      <point x="174" y="734"/>
      <point x="207" y="787"/>
      <point x="228" y="812" type="curve"/>
      <point x="248" y="812" type="line"/>
    </contour>
    <contour>
      <point x="465" y="554" type="line"/>
      <point x="559" y="709"/>
      <point x="612" y="778"/>
      <point x="711" y="778" type="curve"/>
      <point x="821" y="778" type="line"/>
      <point x="886" y="919" type="line"/>
      <point x="866" y="939" type="line"/>
      <point x="772" y="934" type="line" smooth="yes"/>
      <point x="715" y="931"/>
      <point x="684" y="930"/>
      <point x="633" y="887" type="curve" smooth="yes"/>
      <point x="574" y="837"/>
      <point x="531" y="770"/>
      <point x="476" y="662" type="curve"/>
      <point x="456" y="662" type="line"/>
    </contour>
    <contour>
      <point x="342" y="357" type="curve"/>
      <point x="362" y="357" type="line"/>
      <point x="352" y="506" type="line"/>
      <point x="214" y="188"/>
      <point x="160" y="141"/>
      <point x="35" y="141" type="curve"/>
      <point x="-55" y="141" type="line"/>
      <point x="-120" y="0" type="line"/>
      <point x="-100" y="-20" type="line"/>
      <point x="0" y="-14" type="line" smooth="yes"/>
      <point x="68" y="-10"/>
      <point x="100" y="0"/>
      <point x="147" y="43" type="curve" smooth="yes"/>
      <point x="191" y="84"/>
      <point x="275" y="198"/>
    </contour>
  </outline>
</glyph>
<glyph name="y" format="1">
  <advance width="938"/>
  <unicode hex="0079"/>
  <outline>
    <contour>
      <point x="330" y="-50" type="curve"/>
      <point x="182" y="-220"/>
      <point x="84" y="-289"/>
      <point x="-26" y="-289" type="curve" smooth="yes"/>
      <point x="-185" y="-289" type="line"/>
      <point x="-250" y="-430" type="line"/>
      <point x="-235" y="-450" type="line"/>
      <point x="-111" y="-440" type="line"/>
      <point x="-6" y="-431"/>
      <point x="104" y="-385"/>
      <point x="360" y="-94" type="curve" smooth="yes"/>
      <point x="694" y="285"/>
      <point x="968" y="634"/>
      <point x="968" y="818" type="curve"/>
      <point x="968" y="876"/>
      <point x="928" y="919"/>
      <point x="854" y="919" type="curve"/>
      <point x="772" y="919" type="line"/>
      <point x="707" y="778" type="line"/>
      <point x="722" y="758" type="line"/>
      <point x="762" y="758" type="line"/>
      <point x="791" y="758"/>
      <point x="804" y="743"/>
      <point x="804" y="718" type="curve"/>
      <point x="804" y="611"/>
      <point x="624" y="318"/>
      <point x="482" y="132" type="curve"/>
      <point x="462" y="132" type="line"/>
      <point x="470" y="657"/>
      <point x="401" y="887"/>
      <point x="334" y="919" type="curve"/>
      <point x="212" y="919" type="line"/>
      <point x="154" y="862"/>
      <point x="109" y="795"/>
      <point x="50" y="703" type="curve"/>
      <point x="120" y="703" type="line"/>
      <point x="139" y="734"/>
      <point x="172" y="787"/>
      <point x="193" y="812" type="curve"/>
      <point x="213" y="812" type="line"/>
      <point x="250" y="745"/>
      <point x="291" y="418"/>
    </contour>
    <contour>
      <point x="594" y="959" type="move" name="top"/>
    </contour>
  </outline>
</glyph>
<glyph name="z" format="2">
  <advance width="845"/>
  <unicode hex="007A"/>
  <guideline x="598" y="749" angle="0" identifier="ckpXr5sCli"/>
  <guideline x="83" y="170" angle="0" identifier="bqUgo8yZ4N"/>
  <outline>
    <contour>
      <point x="151" y="160" type="line"/>
      <point x="456" y="406"/>
      <point x="701" y="706"/>
      <point x="875" y="899" type="curve"/>
      <point x="875" y="919" type="line"/>
      <point x="203" y="919" type="line"/>
      <point x="112" y="643" type="line"/>
      <point x="172" y="643" type="line"/>
      <point x="227" y="764"/>
      <point x="308" y="779"/>
      <point x="417" y="779" type="curve"/>
      <point x="687" y="779" type="line"/>
      <point x="687" y="759" type="line"/>
      <point x="356" y="476"/>
      <point x="140" y="215"/>
      <point x="-40" y="20" type="curve"/>
      <point x="-40" y="0" type="line"/>
      <point x="648" y="0" type="line"/>
      <point x="755" y="314" type="line"/>
      <point x="695" y="314" type="line"/>
      <point x="630" y="165"/>
      <point x="549" y="140"/>
      <point x="430" y="140" type="curve"/>
      <point x="151" y="140" type="line"/>
    </contour>
  </outline>
</glyph>
<glyph name="braceleft" format="1">
  <advance width="772"/>
  <unicode hex="007B"/>
  <outline>
    <contour>
      <point x="248" y="263" type="curve" smooth="yes"/>
      <point x="248" y="150"/>
      <point x="154" y="-45"/>
      <point x="154" y="-160" type="curve" smooth="yes"/>
      <point x="154" y="-281"/>
      <point x="232" y="-345"/>
      <point x="461" y="-345" type="curve"/>
      <point x="481" y="-275" type="line"/>
      <point x="347" y="-275"/>
      <point x="298" y="-218"/>
      <point x="298" y="-121" type="curve" smooth="yes"/>
      <point x="298" y="-7"/>
      <point x="387" y="192"/>
      <point x="387" y="291" type="curve" smooth="yes"/>
      <point x="387" y="388"/>
      <point x="329" y="423"/>
      <point x="183" y="450" type="curve"/>
      <point x="183" y="470" type="line"/>
      <point x="419" y="510"/>
      <point x="489" y="565"/>
      <point x="547" y="805" type="curve" smooth="yes"/>
      <point x="605" y="1041"/>
      <point x="681" y="1195"/>
      <point x="902" y="1195" type="curve"/>
      <point x="922" y="1265" type="line"/>
      <point x="580" y="1265"/>
      <point x="493" y="1122"/>
      <point x="432" y="858" type="curve" smooth="yes"/>
      <point x="381" y="642"/>
      <point x="313" y="516"/>
      <point x="71" y="496" type="curve"/>
      <point x="50" y="424" type="line"/>
      <point x="196" y="411"/>
      <point x="248" y="356"/>
    </contour>
  </outline>
</glyph>
<glyph name="bar" format="1">
  <advance width="230"/>
  <unicode hex="007C"/>
  <outline>
    <contour>
      <point x="275" y="1375" type="line"/>
      <point x="-119" y="0" type="line"/>
      <point x="-45" y="0" type="line"/>
      <point x="349" y="1375" type="line"/>
    </contour>
  </outline>
</glyph>
<glyph name="braceright" format="1">
  <advance width="872"/>
  <unicode hex="007D"/>
  <outline>
    <contour>
      <point x="324" y="115" type="curve" smooth="yes"/>
      <point x="266" y="-121"/>
      <point x="191" y="-275"/>
      <point x="-30" y="-275" type="curve"/>
      <point x="-50" y="-345" type="line"/>
      <point x="292" y="-345"/>
      <point x="379" y="-201"/>
      <point x="440" y="62" type="curve" smooth="yes"/>
      <point x="491" y="278"/>
      <point x="559" y="404"/>
      <point x="801" y="424" type="curve"/>
      <point x="822" y="496" type="line"/>
      <point x="676" y="509"/>
      <point x="624" y="564"/>
      <point x="624" y="657" type="curve" smooth="yes"/>
      <point x="624" y="711"/>
      <point x="642" y="779"/>
      <point x="669" y="858" type="curve" smooth="yes"/>
      <point x="698" y="946"/>
      <point x="718" y="1020"/>
      <point x="718" y="1080" type="curve" smooth="yes"/>
      <point x="718" y="1201"/>
      <point x="640" y="1265"/>
      <point x="411" y="1265" type="curve"/>
      <point x="391" y="1195" type="line"/>
      <point x="525" y="1195"/>
      <point x="573" y="1139"/>
      <point x="573" y="1042" type="curve" smooth="yes"/>
      <point x="573" y="979"/>
      <point x="552" y="898"/>
      <point x="521" y="805" type="curve" smooth="yes"/>
      <point x="497" y="730"/>
      <point x="484" y="674"/>
      <point x="484" y="630" type="curve" smooth="yes"/>
      <point x="484" y="532"/>
      <point x="548" y="498"/>
      <point x="694" y="470" type="curve"/>
      <point x="694" y="450" type="line"/>
      <point x="458" y="410"/>
      <point x="382" y="355"/>
    </contour>
  </outline>
</glyph>
<glyph name="sterling" format="2">
  <advance width="1138"/>
  <unicode hex="00A3"/>
  <anchor x="835" y="958" name="top"/>
  <anchor x="554" y="-21" name="bottom"/>
  <outline>
    <contour>
      <point x="90" y="0" type="line"/>
      <point x="869" y="0" type="line"/>
      <point x="902" y="116" type="line"/>
      <point x="385" y="116" type="line"/>
      <point x="365" y="116" type="line"/>
      <point x="-37" y="116" type="line"/>
      <point x="-67" y="0" type="line"/>
    </contour>
    <contour>
      <point x="652" y="116" type="curve"/>
      <point x="902" y="116" type="line"/>
      <point x="985" y="405" type="line"/>
      <point x="915" y="405" type="line"/>
      <point x="897" y="342" type="line"/>
      <point x="851" y="182"/>
      <point x="792" y="116"/>
    </contour>
    <contour>
      <point x="791" y="714" type="line"/>
      <point x="135" y="714" type="line"/>
      <point x="115" y="644" type="line"/>
      <point x="771" y="644" type="line"/>
    </contour>
    <contour>
      <point x="860" y="1295" type="curve"/>
      <point x="1016" y="1295"/>
      <point x="1087" y="1199"/>
      <point x="1087" y="1066" type="curve" smooth="yes"/>
      <point x="1087" y="1027"/>
      <point x="1081" y="984"/>
      <point x="1068" y="939" type="curve"/>
      <point x="1051" y="879" type="line"/>
      <point x="1121" y="879" type="line"/>
      <point x="1258" y="1355" type="line"/>
      <point x="1258" y="1355"/>
      <point x="1188" y="1355"/>
      <point x="1188" y="1355" type="curve"/>
      <point x="1165" y="1275" type="line"/>
      <point x="1145" y="1275" type="line"/>
      <point x="1082" y="1316"/>
      <point x="1002" y="1375"/>
      <point x="838" y="1375" type="curve"/>
      <point x="392" y="1375"/>
      <point x="316" y="998"/>
      <point x="316" y="612" type="curve" smooth="yes"/>
      <point x="316" y="318"/>
      <point x="222" y="116"/>
      <point x="30" y="116" type="curve"/>
      <point x="19" y="76" type="line"/>
      <point x="229" y="76" type="line"/>
      <point x="229" y="136" type="line"/>
      <point x="316" y="216"/>
      <point x="539" y="380"/>
      <point x="539" y="729" type="curve"/>
      <point x="539" y="936"/>
      <point x="569" y="1295"/>
    </contour>
  </outline>
</glyph>
<glyph name="yen" format="1">
  <advance width="1179"/>
  <unicode hex="00A5"/>
  <outline>
    <contour>
      <point x="1086" y="578" type="line"/>
      <point x="265" y="578" type="line"/>
      <point x="245" y="508" type="line"/>
      <point x="1066" y="508" type="line"/>
    </contour>
    <contour>
      <point x="497" y="868" type="line"/>
      <point x="497" y="848" type="line"/>
      <point x="322" y="848" type="line"/>
      <point x="302" y="778" type="line"/>
      <point x="638" y="778" type="line"/>
    </contour>
    <contour>
      <point x="957" y="868" type="line"/>
      <point x="825" y="778" type="line"/>
      <point x="1131" y="778" type="line"/>
      <point x="1151" y="848" type="line"/>
      <point x="957" y="848" type="line"/>
    </contour>
    <component base="Y"/>
  </outline>
</glyph>
<glyph name="brokenbar" format="1">
  <advance width="230"/>
  <unicode hex="00A6"/>
  <outline>
    <contour>
      <point x="45" y="571" type="line"/>
      <point x="-119" y="0" type="line"/>
      <point x="-45" y="0" type="line"/>
      <point x="119" y="571" type="line"/>
    </contour>
    <contour>
      <point x="275" y="1375" type="line"/>
      <point x="112" y="804" type="line"/>
      <point x="186" y="804" type="line"/>
      <point x="349" y="1375" type="line"/>
    </contour>
  </outline>
</glyph>
<glyph name="section" format="1">
  <advance width="943"/>
  <unicode hex="00A7"/>
  <outline>
    <contour>
      <point x="470" y="944" type="line"/>
      <point x="470" y="924" type="line"/>
      <point x="320" y="899"/>
      <point x="196" y="808"/>
      <point x="196" y="644" type="curve"/>
      <point x="196" y="577"/>
      <point x="214" y="525"/>
      <point x="264" y="474" type="curve" smooth="yes"/>
      <point x="437" y="300" type="line" smooth="yes"/>
      <point x="476" y="260"/>
      <point x="508" y="229"/>
      <point x="508" y="165" type="curve"/>
      <point x="508" y="100"/>
      <point x="462" y="42"/>
      <point x="376" y="42" type="curve"/>
      <point x="272" y="42"/>
      <point x="216" y="117"/>
      <point x="216" y="204" type="curve" smooth="yes"/>
      <point x="216" y="233"/>
      <point x="221" y="264"/>
      <point x="230" y="295" type="curve"/>
      <point x="241" y="334" type="line"/>
      <point x="176" y="334" type="line"/>
      <point x="80" y="0" type="line"/>
      <point x="145" y="0" type="line"/>
      <point x="156" y="40" type="line"/>
      <point x="176" y="40" type="line"/>
      <point x="222" y="14"/>
      <point x="274" y="-20"/>
      <point x="380" y="-20" type="curve"/>
      <point x="525" y="-20"/>
      <point x="631" y="86"/>
      <point x="631" y="225" type="curve"/>
      <point x="631" y="324"/>
      <point x="586" y="374"/>
      <point x="553" y="409" type="curve" smooth="yes"/>
      <point x="362" y="614" type="line" smooth="yes"/>
      <point x="335" y="643"/>
      <point x="316" y="670"/>
      <point x="316" y="719" type="curve"/>
      <point x="316" y="814"/>
      <point x="402" y="872"/>
      <point x="476" y="872" type="curve"/>
      <point x="529" y="872"/>
      <point x="552" y="856"/>
      <point x="584" y="821" type="curve"/>
      <point x="620" y="944" type="line"/>
    </contour>
    <contour>
      <point x="553" y="409" type="line"/>
      <point x="553" y="429" type="line"/>
      <point x="703" y="454"/>
      <point x="827" y="548"/>
      <point x="827" y="711" type="curve"/>
      <point x="827" y="779"/>
      <point x="805" y="832"/>
      <point x="752" y="886" type="curve" smooth="yes"/>
      <point x="586" y="1053" type="line" smooth="yes"/>
      <point x="545" y="1094"/>
      <point x="510" y="1126"/>
      <point x="510" y="1186" type="curve"/>
      <point x="510" y="1253"/>
      <point x="554" y="1312"/>
      <point x="632" y="1312" type="curve"/>
      <point x="732" y="1312"/>
      <point x="807" y="1237"/>
      <point x="807" y="1148" type="curve" smooth="yes"/>
      <point x="807" y="1120"/>
      <point x="802" y="1089"/>
      <point x="793" y="1058" type="curve"/>
      <point x="782" y="1019" type="line"/>
      <point x="847" y="1019" type="line"/>
      <point x="943" y="1353" type="line"/>
      <point x="878" y="1353" type="line"/>
      <point x="866" y="1313" type="line"/>
      <point x="846" y="1313" type="line"/>
      <point x="812" y="1332"/>
      <point x="749" y="1375"/>
      <point x="645" y="1375" type="curve"/>
      <point x="486" y="1375"/>
      <point x="392" y="1260"/>
      <point x="392" y="1128" type="curve"/>
      <point x="392" y="1029"/>
      <point x="437" y="979"/>
      <point x="470" y="944" type="curve" smooth="yes"/>
      <point x="661" y="739" type="line" smooth="yes"/>
      <point x="688" y="710"/>
      <point x="706" y="683"/>
      <point x="706" y="634" type="curve"/>
      <point x="706" y="539"/>
      <point x="621" y="481"/>
      <point x="547" y="481" type="curve"/>
      <point x="494" y="481"/>
      <point x="471" y="497"/>
      <point x="439" y="532" type="curve"/>
      <point x="403" y="409" type="line"/>
    </contour>
  </outline>
</glyph>
<glyph name="dieresis" format="1">
  <advance width="590"/>
  <unicode hex="00A8"/>
  <outline>
    <contour>
      <point x="40" y="1177" type="line"/>
      <point x="218" y="1177" type="line"/>
      <point x="218" y="1355" type="line"/>
      <point x="40" y="1355" type="line"/>
    </contour>
    <contour>
      <point x="372" y="1177" type="line"/>
      <point x="550" y="1177" type="line"/>
      <point x="550" y="1355" type="line"/>
      <point x="372" y="1355" type="line"/>
    </contour>
    <contour>
      <point x="295.0" y="959" type="move" name="_top"/>
    </contour>
  </outline>
</glyph>
<glyph name="copyright" format="1">
  <advance width="1516"/>
  <unicode hex="00A9"/>
  <outline>
    <contour>
      <point x="1072" y="796" type="line"/>
      <point x="1072" y="1084" type="line"/>
      <point x="1072" y="1084"/>
      <point x="1029" y="1084"/>
      <point x="1029" y="1084" type="curve"/>
      <point x="1029" y="1035" type="line"/>
      <point x="1017" y="1035" type="line"/>
      <point x="1017" y="1035"/>
      <point x="933" y="1096"/>
      <point x="784" y="1096" type="curve"/>
      <point x="548" y="1096"/>
      <point x="360" y="926"/>
      <point x="360" y="678" type="curve"/>
      <point x="360" y="427"/>
      <point x="542" y="251"/>
      <point x="772" y="251" type="curve"/>
      <point x="993" y="251"/>
      <point x="1077" y="388"/>
      <point x="1109" y="435" type="curve"/>
      <point x="1109" y="435"/>
      <point x="1081" y="467"/>
      <point x="1081" y="467" type="curve"/>
      <point x="1056" y="422"/>
      <point x="992" y="312"/>
      <point x="809" y="312" type="curve"/>
      <point x="596" y="312"/>
      <point x="503" y="491"/>
      <point x="503" y="684" type="curve"/>
      <point x="503" y="880"/>
      <point x="606" y="1047"/>
      <point x="795" y="1047" type="curve"/>
      <point x="940" y="1047"/>
      <point x="1029" y="949"/>
      <point x="1029" y="832" type="curve"/>
      <point x="1029" y="796" type="line"/>
    </contour>
    <contour>
      <point x="60" y="678" type="curve" smooth="yes"/>
      <point x="60" y="271"/>
      <point x="352" y="-20"/>
      <point x="758" y="-20" type="curve" smooth="yes"/>
      <point x="1162" y="-20"/>
      <point x="1456" y="271"/>
      <point x="1456" y="678" type="curve" smooth="yes"/>
      <point x="1456" y="1081"/>
      <point x="1162" y="1375"/>
      <point x="758" y="1375" type="curve" smooth="yes"/>
      <point x="352" y="1375"/>
      <point x="60" y="1081"/>
    </contour>
    <contour>
      <point x="140" y="678" type="curve" smooth="yes"/>
      <point x="140" y="1044"/>
      <point x="392" y="1305"/>
      <point x="758" y="1305" type="curve" smooth="yes"/>
      <point x="1113" y="1305"/>
      <point x="1376" y="1044"/>
      <point x="1376" y="678" type="curve" smooth="yes"/>
      <point x="1376" y="313"/>
      <point x="1123" y="50"/>
      <point x="758" y="50" type="curve" smooth="yes"/>
      <point x="392" y="50"/>
      <point x="140" y="313"/>
    </contour>
  </outline>
</glyph>
<glyph name="ordfeminine" format="1">
  <advance width="669"/>
  <unicode hex="00AA"/>
  <outline>
    <contour>
      <point x="430" y="849" type="line"/>
      <point x="409" y="771"/>
      <point x="414" y="720"/>
      <point x="464" y="693" type="curve"/>
      <point x="513" y="693" type="line"/>
      <point x="564" y="735"/>
      <point x="634" y="827"/>
      <point x="677" y="894" type="curve"/>
      <point x="626" y="894" type="line"/>
      <point x="586" y="837"/>
      <point x="544" y="789"/>
      <point x="527" y="771" type="curve"/>
      <point x="512" y="785" type="line"/>
      <point x="670" y="1361" type="line"/>
      <point x="580" y="1361" type="line"/>
      <point x="432" y="881" type="line"/>
      <point x="439" y="881" type="line"/>
    </contour>
    <contour>
      <point x="564" y="1310" type="line"/>
      <point x="549" y="1310" type="line"/>
      <point x="534" y="1332"/>
      <point x="508" y="1375"/>
      <point x="437" y="1375" type="curve"/>
      <point x="237" y="1375"/>
      <point x="30" y="1080"/>
      <point x="30" y="862" type="curve"/>
      <point x="30" y="723"/>
      <point x="94" y="678"/>
      <point x="171" y="678" type="curve"/>
      <point x="285" y="678"/>
      <point x="376" y="796"/>
      <point x="424" y="881" type="curve"/>
      <point x="432" y="881" type="line"/>
      <point x="480" y="1036" type="line"/>
      <point x="462" y="999"/>
      <point x="347" y="776"/>
      <point x="225" y="776" type="curve"/>
      <point x="186" y="776"/>
      <point x="153" y="809"/>
      <point x="153" y="891" type="curve"/>
      <point x="153" y="1077"/>
      <point x="306" y="1328"/>
      <point x="451" y="1328" type="curve"/>
      <point x="522" y="1328"/>
      <point x="542" y="1270"/>
      <point x="542" y="1204" type="curve"/>
      <point x="564" y="1204" type="line"/>
    </contour>
  </outline>
</glyph>
<glyph name="guillemotleft" format="1">
  <advance width="1168"/>
  <unicode hex="00AB"/>
  <outline>
    <contour>
      <point x="434" y="0" type="line"/>
      <point x="504" y="0" type="line"/>
      <point x="263" y="449" type="line"/>
      <point x="263" y="469" type="line"/>
      <point x="768" y="919" type="line"/>
      <point x="698" y="919" type="line"/>
      <point x="55" y="469" type="line"/>
      <point x="55" y="449" type="line"/>
    </contour>
    <contour>
      <point x="884" y="0" type="line"/>
      <point x="954" y="0" type="line"/>
      <point x="713" y="449" type="line"/>
      <point x="713" y="469" type="line"/>
      <point x="1218" y="919" type="line"/>
      <point x="1148" y="919" type="line"/>
      <point x="505" y="469" type="line"/>
      <point x="505" y="449" type="line"/>
    </contour>
  </outline>
</glyph>
<glyph name="degree" format="1">
  <advance width="575"/>
  <unicode hex="00B0"/>
  <outline>
    <contour>
      <point x="383" y="953"/>
      <point x="450" y="1028"/>
      <point x="450" y="1131" type="curve" smooth="yes"/>
      <point x="450" y="1235"/>
      <point x="383" y="1308"/>
      <point x="288" y="1308" type="curve" smooth="yes"/>
      <point x="192" y="1308"/>
      <point x="125" y="1235"/>
      <point x="125" y="1131" type="curve" smooth="yes"/>
      <point x="125" y="1028"/>
      <point x="192" y="953"/>
      <point x="288" y="953" type="curve" smooth="yes"/>
    </contour>
    <contour>
      <point x="288" y="1375" type="curve" smooth="yes"/>
      <point x="433" y="1375"/>
      <point x="535" y="1265"/>
      <point x="535" y="1131" type="curve" smooth="yes"/>
      <point x="535" y="998"/>
      <point x="433" y="888"/>
      <point x="288" y="888" type="curve" smooth="yes"/>
      <point x="138" y="888"/>
      <point x="40" y="998"/>
      <point x="40" y="1131" type="curve" smooth="yes"/>
      <point x="40" y="1265"/>
      <point x="138" y="1375"/>
    </contour>
    <contour>
      <point x="290" y="959" type="move" name="_top"/>
    </contour>
  </outline>
</glyph>
<glyph name="acute" format="2">
  <advance width="570"/>
  <unicode hex="00B4"/>
  <anchor x="285" y="959" name="_top"/>
  <outline>
    <contour>
      <point x="200" y="1016" type="line"/>
      <point x="140" y="1016" type="line"/>
      <point x="520" y="1395" type="line"/>
      <point x="630" y="1281" type="line"/>
    </contour>
  </outline>
</glyph>
<glyph name="paragraph" format="1">
  <advance width="1007"/>
  <unicode hex="00B6"/>
  <outline>
    <contour>
      <point x="653" y="1355" type="line"/>
      <point x="264" y="0" type="line"/>
      <point x="354" y="0" type="line"/>
      <point x="743" y="1355" type="line"/>
    </contour>
    <contour>
      <point x="881" y="1355" type="line"/>
      <point x="492" y="0" type="line"/>
      <point x="582" y="0" type="line"/>
      <point x="971" y="1355" type="line"/>
    </contour>
    <contour>
      <point x="627" y="1265" type="line"/>
      <point x="717" y="1265" type="line"/>
      <point x="747" y="1285" type="line"/>
      <point x="835" y="1285" type="line"/>
      <point x="855" y="1265" type="line"/>
      <point x="945" y="1265" type="line"/>
      <point x="975" y="1285" type="line"/>
      <point x="1132" y="1285" type="line"/>
      <point x="1152" y="1355" type="line"/>
      <point x="653" y="1355" type="line"/>
    </contour>
    <contour>
      <point x="433" y="587" type="curve"/>
      <point x="653" y="1355" type="line"/>
      <point x="342" y="1355"/>
      <point x="111" y="1085"/>
      <point x="111" y="853" type="curve" smooth="yes"/>
      <point x="111" y="694"/>
      <point x="221" y="587"/>
    </contour>
    <contour>
      <point x="260" y="70" type="line"/>
      <point x="109" y="70" type="line"/>
      <point x="89" y="0" type="line"/>
      <point x="763" y="0" type="line"/>
      <point x="783" y="70" type="line"/>
      <point x="628" y="70" type="line"/>
      <point x="608" y="90" type="line"/>
      <point x="518" y="90" type="line"/>
      <point x="488" y="70" type="line"/>
      <point x="400" y="70" type="line"/>
      <point x="380" y="90" type="line"/>
      <point x="290" y="90" type="line"/>
    </contour>
  </outline>
</glyph>
<glyph name="periodcentered" format="1">
  <advance width="508"/>
  <unicode hex="00B7"/>
  <outline>
    <contour>
      <point x="100" y="355" type="line"/>
      <point x="308" y="355" type="line"/>
      <point x="308" y="563" type="line"/>
      <point x="100" y="563" type="line"/>
    </contour>
  </outline>
</glyph>
<glyph name="cedilla" format="1">
  <advance width="500"/>
  <unicode hex="00B8"/>
  <outline>
    <contour>
      <point x="343" y="-16" type="line"/>
      <point x="273" y="-16" type="line"/>
      <point x="145" y="-197" type="line"/>
      <point x="165" y="-217" type="line"/>
      <point x="180" y="-212"/>
      <point x="204" y="-204"/>
      <point x="234" y="-204" type="curve"/>
      <point x="275" y="-204"/>
      <point x="303" y="-229"/>
      <point x="303" y="-273" type="curve"/>
      <point x="303" y="-324"/>
      <point x="247" y="-372"/>
      <point x="151" y="-372" type="curve"/>
      <point x="113" y="-372"/>
      <point x="76" y="-364"/>
      <point x="36" y="-342" type="curve"/>
      <point x="-4" y="-397" type="line"/>
      <point x="34" y="-416"/>
      <point x="88" y="-440"/>
      <point x="167" y="-440" type="curve"/>
      <point x="354" y="-440"/>
      <point x="460" y="-358"/>
      <point x="460" y="-248" type="curve"/>
      <point x="460" y="-186"/>
      <point x="423" y="-126"/>
      <point x="344" y="-126" type="curve"/>
      <point x="322" y="-126"/>
      <point x="305" y="-132"/>
      <point x="298" y="-135" type="curve"/>
      <point x="278" y="-115" type="line"/>
    </contour>
    <contour>
      <point x="307" y="-20" type="move" name="_bottom"/>
    </contour>
  </outline>
</glyph>
<glyph name="ordmasculine" format="1">
  <advance width="703"/>
  <unicode hex="00BA"/>
  <outline>
    <contour>
      <point x="208" y="1375"/>
      <point x="24" y="1129"/>
      <point x="24" y="915" type="curve"/>
      <point x="24" y="775"/>
      <point x="114" y="678"/>
      <point x="258" y="678" type="curve"/>
      <point x="496" y="678"/>
      <point x="681" y="930"/>
      <point x="681" y="1140" type="curve"/>
      <point x="681" y="1279"/>
      <point x="590" y="1375"/>
      <point x="448" y="1375" type="curve"/>
    </contour>
    <contour>
      <point x="151" y="1062"/>
      <point x="280" y="1324"/>
      <point x="431" y="1324" type="curve"/>
      <point x="519" y="1324"/>
      <point x="554" y="1250"/>
      <point x="554" y="1148" type="curve"/>
      <point x="554" y="1000"/>
      <point x="427" y="729"/>
      <point x="269" y="729" type="curve"/>
      <point x="188" y="729"/>
      <point x="151" y="799"/>
      <point x="151" y="898" type="curve"/>
    </contour>
  </outline>
</glyph>
<glyph name="guillemotright" format="1">
  <advance width="1217"/>
  <unicode hex="00BB"/>
  <outline>
    <contour>
      <point x="450" y="0" type="line"/>
      <point x="520" y="0" type="line"/>
      <point x="1162" y="449" type="line"/>
      <point x="1162" y="469" type="line"/>
      <point x="784" y="919" type="line"/>
      <point x="714" y="919" type="line"/>
      <point x="954" y="469" type="line"/>
      <point x="954" y="449" type="line"/>
    </contour>
    <contour>
      <point x="0" y="0" type="line"/>
      <point x="70" y="0" type="line"/>
      <point x="712" y="449" type="line"/>
      <point x="712" y="469" type="line"/>
      <point x="334" y="919" type="line"/>
      <point x="264" y="919" type="line"/>
      <point x="504" y="469" type="line"/>
      <point x="504" y="449" type="line"/>
    </contour>
  </outline>
</glyph>
<glyph name="AE" format="1">
  <advance width="1847"/>
  <unicode hex="00C6"/>
  <outline>
    <contour>
      <point x="56" y="90" type="curve"/>
      <point x="164" y="90" type="line"/>
      <point x="531" y="546"/>
      <point x="659" y="714"/>
      <point x="1091" y="1285" type="curve"/>
      <point x="1112" y="1355" type="line"/>
      <point x="1042" y="1355" type="line"/>
      <point x="518" y="718"/>
      <point x="464" y="650"/>
    </contour>
    <contour>
      <point x="164" y="90" type="line"/>
      <point x="56" y="90" type="line"/>
      <point x="26" y="70" type="line"/>
      <point x="-80" y="70" type="line"/>
      <point x="-100" y="0" type="line"/>
      <point x="-100" y="0"/>
      <point x="313" y="0"/>
      <point x="313" y="0" type="curve"/>
      <point x="333" y="70" type="line"/>
      <point x="184" y="70" type="line"/>
    </contour>
    <contour>
      <point x="769" y="90" type="line"/>
      <point x="743" y="70" type="line"/>
      <point x="588" y="70" type="line"/>
      <point x="568" y="0" type="line"/>
      <point x="568" y="0"/>
      <point x="743" y="0"/>
      <point x="743" y="0" type="curve"/>
    </contour>
    <contour>
      <point x="1022" y="610" type="line"/>
      <point x="592" y="610" type="line"/>
      <point x="592" y="630" type="line"/>
      <point x="464" y="510" type="line"/>
      <point x="993" y="510" type="line"/>
    </contour>
    <contour>
      <point x="801" y="1285" type="line"/>
      <point x="951" y="1285" type="line"/>
      <point x="971" y="1265" type="line"/>
      <point x="1031" y="1265" type="line"/>
      <point x="1057" y="1355" type="line"/>
      <point x="821" y="1355" type="line"/>
    </contour>
    <contour>
      <point x="1132" y="660" type="line"/>
      <point x="1447" y="660" type="line"/>
      <point x="1467" y="640" type="line"/>
      <point x="1429" y="510" type="line"/>
      <point x="1499" y="510" type="line"/>
      <point x="1614" y="910" type="line"/>
      <point x="1544" y="910" type="line"/>
      <point x="1507" y="780" type="line"/>
      <point x="1477" y="760" type="line"/>
      <point x="1167" y="760" type="line"/>
      <point x="1167" y="780" type="line"/>
      <point x="1298" y="1239" type="line"/>
      <point x="1628" y="1239" type="line" smooth="yes"/>
      <point x="1790" y="1239"/>
      <point x="1841" y="1231"/>
      <point x="1792" y="1060" type="curve" smooth="yes"/>
      <point x="1766" y="970" type="line"/>
      <point x="1836" y="970" type="line"/>
      <point x="1947" y="1355" type="line"/>
      <point x="956" y="1355" type="line"/>
      <point x="935" y="1285" type="line"/>
      <point x="1091" y="1285" type="line"/>
      <point x="1111" y="1285" type="line"/>
      <point x="768" y="90" type="line"/>
      <point x="738" y="70" type="line"/>
      <point x="587" y="70" type="line"/>
      <point x="567" y="0" type="line"/>
      <point x="1608" y="0" type="line"/>
      <point x="1724" y="405" type="line"/>
      <point x="1654" y="405" type="line"/>
      <point x="1627" y="310" type="line"/>
      <point x="1581" y="150"/>
      <point x="1511" y="116"/>
      <point x="1371" y="116" type="curve" smooth="yes"/>
      <point x="981" y="116" type="line"/>
      <point x="981" y="136" type="line"/>
    </contour>
  </outline>
</glyph>
<glyph name="Oslash" format="1">
  <advance width="1518"/>
  <unicode hex="00D8"/>
  <outline>
    <contour>
      <point x="274" y="-120" type="line"/>
      <point x="352" y="-120" type="line"/>
      <point x="1250" y="1475" type="line"/>
      <point x="1172" y="1475" type="line"/>
    </contour>
    <component base="O"/>
  </outline>
</glyph>
<glyph name="germandbls" format="1">
  <advance width="1060"/>
  <unicode hex="00DF"/>
  <outline>
    <contour>
      <point x="930" y="939" type="line"/>
      <point x="792" y="939" type="line"/>
      <point x="646" y="939"/>
      <point x="542" y="844"/>
      <point x="542" y="706" type="curve"/>
      <point x="542" y="580"/>
      <point x="606" y="511"/>
      <point x="678" y="424" type="curve" smooth="yes"/>
      <point x="755" y="331"/>
      <point x="798" y="275"/>
      <point x="798" y="176" type="curve"/>
      <point x="798" y="92"/>
      <point x="748" y="40"/>
      <point x="656" y="40" type="curve"/>
      <point x="526" y="40"/>
      <point x="428" y="152"/>
      <point x="454" y="295" type="curve" smooth="yes"/>
      <point x="461" y="334" type="line"/>
      <point x="395" y="334" type="line"/>
      <point x="330" y="0" type="line"/>
      <point x="398" y="0" type="line"/>
      <point x="410" y="50" type="line"/>
      <point x="430" y="50" type="line"/>
      <point x="455" y="38"/>
      <point x="530" y="-20"/>
      <point x="650" y="-20" type="curve"/>
      <point x="846" y="-20"/>
      <point x="964" y="94"/>
      <point x="964" y="250" type="curve"/>
      <point x="964" y="382"/>
      <point x="905" y="446"/>
      <point x="828" y="543" type="curve" smooth="yes"/>
      <point x="743" y="651"/>
      <point x="694" y="694"/>
      <point x="694" y="762" type="curve"/>
      <point x="694" y="830"/>
      <point x="734" y="879"/>
      <point x="820" y="879" type="curve"/>
      <point x="952" y="879" type="line"/>
      <point x="1020" y="879" type="line"/>
      <point x="1020" y="1049" type="line"/>
      <point x="1020" y="1245"/>
      <point x="955" y="1355"/>
      <point x="770" y="1355" type="curve"/>
      <point x="524" y="1355"/>
      <point x="437" y="1144"/>
      <point x="303" y="870" type="curve"/>
      <point x="273" y="850" type="line"/>
      <point x="122" y="850" type="line"/>
      <point x="102" y="775" type="line"/>
      <point x="274" y="775" type="line"/>
      <point x="28" y="-172" type="line" smooth="yes"/>
      <point x="11" y="-239"/>
      <point x="-22" y="-289"/>
      <point x="-114" y="-289" type="curve" smooth="yes"/>
      <point x="-335" y="-289" type="line"/>
      <point x="-400" y="-430" type="line"/>
      <point x="-385" y="-450" type="line"/>
      <point x="-248" y="-442" type="line" smooth="yes"/>
      <point x="-18" y="-429"/>
      <point x="170" y="-174"/>
      <point x="240" y="68" type="curve"/>
      <point x="559" y="1161" type="line" smooth="yes"/>
      <point x="583" y="1244"/>
      <point x="644" y="1295"/>
      <point x="760" y="1295" type="curve"/>
      <point x="913" y="1295"/>
      <point x="950" y="1200"/>
      <point x="950" y="1049" type="curve"/>
      <point x="950" y="959" type="line"/>
    </contour>
  </outline>
</glyph>
<glyph name="ae" format="1">
  <advance width="1455.0"/>
  <unicode hex="00E6"/>
  <outline>
    <contour>
      <point x="777" y="280" type="line"/>
      <point x="910" y="788" type="line"/>
      <point x="941" y="827" type="line"/>
      <point x="920" y="827" type="line"/>
      <point x="952" y="939" type="line"/>
      <point x="811" y="939" type="line"/>
      <point x="667" y="472" type="line"/>
      <point x="623" y="280" type="line"/>
      <point x="633" y="280" type="line"/>
    </contour>
    <contour>
      <point x="783" y="848" type="line"/>
      <point x="763" y="848" type="line"/>
      <point x="742" y="879"/>
      <point x="701" y="939"/>
      <point x="594" y="939" type="curve"/>
      <point x="318" y="939"/>
      <point x="30" y="534"/>
      <point x="30" y="232" type="curve"/>
      <point x="30" y="42"/>
      <point x="122" y="-20"/>
      <point x="228" y="-20" type="curve"/>
      <point x="384" y="-20"/>
      <point x="547" y="164"/>
      <point x="613" y="280" type="curve"/>
      <point x="623" y="280" type="line"/>
      <point x="667" y="472" type="line"/>
      <point x="643" y="421"/>
      <point x="484" y="114"/>
      <point x="316" y="114" type="curve"/>
      <point x="262" y="114"/>
      <point x="216" y="160"/>
      <point x="216" y="272" type="curve"/>
      <point x="216" y="530"/>
      <point x="427" y="874"/>
      <point x="628" y="874" type="curve"/>
      <point x="725" y="874"/>
      <point x="753" y="787"/>
      <point x="753" y="704" type="curve"/>
      <point x="783" y="704" type="line"/>
    </contour>
    <component base="e" xOffset="603"/>
  </outline>
</glyph>
<glyph name="divide" format="1">
  <advance width="1041"/>
  <unicode hex="00F7"/>
  <outline>
    <contour>
      <point x="423" y="909" type="line"/>
      <point x="621" y="909" type="line"/>
      <point x="621" y="1107" type="line"/>
      <point x="423" y="1107" type="line"/>
    </contour>
    <contour>
      <point x="423" y="228" type="line"/>
      <point x="621" y="228" type="line"/>
      <point x="621" y="426" type="line"/>
      <point x="423" y="426" type="line"/>
    </contour>
    <component base="minus" yOffset="1"/>
  </outline>
</glyph>
<glyph name="dotlessi" format="1">
  <advance width="584"/>
  <unicode hex="0131"/>
  <outline>
    <contour>
      <point x="272" y="127" type="line"/>
      <point x="430" y="662" type="line" smooth="yes"/>
      <point x="475" y="813"/>
      <point x="457" y="874"/>
      <point x="402" y="919" type="curve"/>
      <point x="286" y="919" type="line"/>
      <point x="228" y="875"/>
      <point x="146" y="778"/>
      <point x="60" y="643" type="curve"/>
      <point x="130" y="643" type="line"/>
      <point x="214" y="764"/>
      <point x="248" y="798"/>
      <point x="263" y="812" type="curve"/>
      <point x="283" y="792" type="line"/>
      <point x="124" y="214" type="line" smooth="yes"/>
      <point x="95" y="107"/>
      <point x="110" y="37"/>
      <point x="179" y="0" type="curve"/>
      <point x="273" y="0" type="line"/>
      <point x="344" y="58"/>
      <point x="440" y="184"/>
      <point x="499" y="276" type="curve"/>
      <point x="429" y="276" type="line"/>
      <point x="374" y="198"/>
      <point x="316" y="132"/>
      <point x="292" y="107" type="curve"/>
    </contour>
    <contour>
      <point x="422" y="959" type="move" name="top"/>
    </contour>
  </outline>
</glyph>
<glyph name="OE" format="1">
  <advance width="1833"/>
  <unicode hex="0152"/>
  <outline>
    <contour>
      <point x="683" y="70" type="line"/>
      <point x="462" y="70"/>
      <point x="360" y="244"/>
      <point x="360" y="484" type="curve"/>
      <point x="360" y="846"/>
      <point x="615" y="1285"/>
      <point x="1001" y="1285" type="curve"/>
      <point x="1047" y="1285" type="line"/>
      <point x="1068" y="1355" type="line"/>
      <point x="1047" y="1355" type="line"/>
      <point x="508" y="1355"/>
      <point x="110" y="875"/>
      <point x="110" y="440" type="curve"/>
      <point x="110" y="150"/>
      <point x="291" y="0"/>
      <point x="598" y="0" type="curve"/>
      <point x="663" y="0" type="line"/>
    </contour>
    <contour>
      <point x="1118" y="660" type="line"/>
      <point x="1433" y="660" type="line"/>
      <point x="1453" y="640" type="line"/>
      <point x="1415" y="510" type="line"/>
      <point x="1485" y="510" type="line"/>
      <point x="1600" y="910" type="line"/>
      <point x="1530" y="910" type="line"/>
      <point x="1493" y="780" type="line"/>
      <point x="1463" y="760" type="line"/>
      <point x="1153" y="760" type="line"/>
      <point x="1153" y="780" type="line"/>
      <point x="1284" y="1239" type="line"/>
      <point x="1614" y="1239" type="line" smooth="yes"/>
      <point x="1776" y="1239"/>
      <point x="1827" y="1231"/>
      <point x="1778" y="1060" type="curve" smooth="yes"/>
      <point x="1752" y="970" type="line"/>
      <point x="1822" y="970" type="line"/>
      <point x="1933" y="1355" type="line"/>
      <point x="1068" y="1355" type="line"/>
      <point x="1047" y="1285" type="line"/>
      <point x="1071" y="1285" type="line"/>
      <point x="1091" y="1265" type="line"/>
      <point x="754" y="90" type="line"/>
      <point x="724" y="70" type="line"/>
      <point x="683" y="70" type="line"/>
      <point x="663" y="0" type="line"/>
      <point x="1594" y="0" type="line"/>
      <point x="1710" y="405" type="line"/>
      <point x="1640" y="405" type="line"/>
      <point x="1613" y="310" type="line"/>
      <point x="1567" y="150"/>
      <point x="1497" y="116"/>
      <point x="1357" y="116" type="curve" smooth="yes"/>
      <point x="967" y="116" type="line"/>
      <point x="967" y="136" type="line"/>
    </contour>
  </outline>
</glyph>
<glyph name="oe" format="1">
  <advance width="1524.0"/>
  <unicode hex="0153"/>
  <outline>
    <contour>
      <point x="284" y="939"/>
      <point x="40" y="602"/>
      <point x="40" y="306" type="curve"/>
      <point x="40" y="114"/>
      <point x="154" y="-20"/>
      <point x="352" y="-20" type="curve"/>
      <point x="481" y="-20"/>
      <point x="613" y="34"/>
      <point x="709" y="137" type="curve"/>
      <point x="729" y="137" type="line"/>
      <point x="760" y="167"/>
      <point x="781" y="205"/>
      <point x="806" y="241" type="curve" smooth="yes"/>
      <point x="887" y="355"/>
      <point x="934" y="492"/>
      <point x="934" y="617" type="curve"/>
      <point x="912" y="745" type="line"/>
      <point x="892" y="745" type="line"/>
      <point x="856" y="856"/>
      <point x="756" y="939"/>
      <point x="614" y="939" type="curve"/>
    </contour>
    <contour>
      <point x="232" y="509"/>
      <point x="382" y="869"/>
      <point x="586" y="869" type="curve"/>
      <point x="710" y="869"/>
      <point x="732" y="768"/>
      <point x="732" y="628" type="curve"/>
      <point x="732" y="424"/>
      <point x="599" y="50"/>
      <point x="378" y="50" type="curve"/>
      <point x="257" y="50"/>
      <point x="232" y="147"/>
      <point x="232" y="282" type="curve"/>
    </contour>
    <component base="e" xOffset="672"/>
  </outline>
</glyph>
<glyph name="circumflex" format="2">
  <advance width="660"/>
  <unicode hex="02C6"/>
  <anchor x="330" y="959" name="_top"/>
  <outline>
    <contour>
      <point x="560" y="1016" type="line"/>
      <point x="620" y="1016" type="line"/>
      <point x="480" y="1355" type="line"/>
      <point x="380" y="1355" type="line"/>
      <point x="40" y="1016" type="line"/>
      <point x="100" y="1016" type="line"/>
      <point x="362" y="1222" type="line"/>
      <point x="382" y="1222" type="line"/>
    </contour>
  </outline>
</glyph>
<glyph name="tilde" format="1">
  <advance width="698"/>
  <unicode hex="02DC"/>
  <outline>
    <contour>
      <point x="658" y="1355" type="curve"/>
      <point x="599" y="1355" type="line"/>
      <point x="599" y="1305"/>
      <point x="568" y="1246"/>
      <point x="498" y="1246" type="curve"/>
      <point x="408" y="1246"/>
      <point x="360" y="1345"/>
      <point x="240" y="1345" type="curve"/>
      <point x="100" y="1345"/>
      <point x="50" y="1217"/>
      <point x="40" y="1127" type="curve"/>
      <point x="99" y="1127" type="line"/>
      <point x="99" y="1177"/>
      <point x="130" y="1237"/>
      <point x="200" y="1237" type="curve"/>
      <point x="290" y="1237"/>
      <point x="339" y="1137"/>
      <point x="459" y="1137" type="curve"/>
      <point x="599" y="1137"/>
      <point x="648" y="1265"/>
    </contour>
    <contour>
      <point x="349.0" y="959" type="move" name="_top"/>
    </contour>
  </outline>
</glyph>
<glyph name="quoteleft" format="1">
  <advance width="508"/>
  <unicode hex="2018"/>
  <outline>
    <contour>
      <point x="190" y="999" type="curve" smooth="yes"/>
      <point x="190" y="861" type="line"/>
      <point x="408" y="861" type="line"/>
      <point x="408" y="1069" type="line"/>
      <point x="299" y="1069" type="line"/>
      <point x="284" y="1089" type="line"/>
      <point x="314" y="1203"/>
      <point x="433" y="1285"/>
      <point x="508" y="1323" type="curve"/>
      <point x="508" y="1383" type="line"/>
      <point x="386" y="1323"/>
      <point x="190" y="1213"/>
    </contour>
  </outline>
</glyph>
<glyph name="quoteright" format="1">
  <advance width="508"/>
  <unicode hex="2019"/>
  <outline>
    <contour>
      <point x="508" y="1217" type="curve" smooth="yes"/>
      <point x="508" y="1355" type="line"/>
      <point x="290" y="1355" type="line"/>
      <point x="290" y="1147" type="line"/>
      <point x="399" y="1147" type="line"/>
      <point x="414" y="1127" type="line"/>
      <point x="384" y="1013"/>
      <point x="265" y="931"/>
      <point x="190" y="893" type="curve"/>
      <point x="190" y="833" type="line"/>
      <point x="312" y="893"/>
      <point x="508" y="1003"/>
    </contour>
  </outline>
</glyph>
<glyph name="quotesinglbase" format="1">
  <advance width="508"/>
  <unicode hex="201A"/>
  <outline>
    <contour>
      <point x="318" y="70" type="curve" smooth="yes"/>
      <point x="318" y="208" type="line"/>
      <point x="100" y="208" type="line"/>
      <point x="100" y="0" type="line"/>
      <point x="209" y="0" type="line"/>
      <point x="224" y="-20" type="line"/>
      <point x="194" y="-134"/>
      <point x="75" y="-216"/>
      <point x="0" y="-254" type="curve"/>
      <point x="0" y="-314" type="line"/>
      <point x="122" y="-254"/>
      <point x="318" y="-144"/>
    </contour>
  </outline>
</glyph>
<glyph name="quotedblleft" format="1">
  <advance width="878"/>
  <unicode hex="201C"/>
  <outline>
    <contour>
      <point x="190" y="979" type="curve" smooth="yes"/>
      <point x="190" y="841" type="line"/>
      <point x="408" y="841" type="line"/>
      <point x="408" y="1049" type="line"/>
      <point x="299" y="1049" type="line"/>
      <point x="284" y="1069" type="line"/>
      <point x="314" y="1183"/>
      <point x="433" y="1265"/>
      <point x="508" y="1303" type="curve"/>
      <point x="508" y="1363" type="line"/>
      <point x="386" y="1303"/>
      <point x="190" y="1193"/>
    </contour>
    <contour>
      <point x="560" y="979" type="curve" smooth="yes"/>
      <point x="560" y="841" type="line"/>
      <point x="778" y="841" type="line"/>
      <point x="778" y="1049" type="line"/>
      <point x="669" y="1049" type="line"/>
      <point x="654" y="1069" type="line"/>
      <point x="684" y="1183"/>
      <point x="803" y="1265"/>
      <point x="878" y="1303" type="curve"/>
      <point x="878" y="1363" type="line"/>
      <point x="756" y="1303"/>
      <point x="560" y="1193"/>
    </contour>
  </outline>
</glyph>
<glyph name="quotedblright" format="1">
  <advance width="878"/>
  <unicode hex="201D"/>
  <outline>
    <contour>
      <point x="878" y="1217" type="curve" smooth="yes"/>
      <point x="878" y="1355" type="line"/>
      <point x="660" y="1355" type="line"/>
      <point x="660" y="1147" type="line"/>
      <point x="769" y="1147" type="line"/>
      <point x="784" y="1127" type="line"/>
      <point x="754" y="1013"/>
      <point x="635" y="931"/>
      <point x="560" y="893" type="curve"/>
      <point x="560" y="833" type="line"/>
      <point x="682" y="893"/>
      <point x="878" y="1003"/>
    </contour>
    <contour>
      <point x="508" y="1217" type="curve" smooth="yes"/>
      <point x="508" y="1355" type="line"/>
      <point x="290" y="1355" type="line"/>
      <point x="290" y="1147" type="line"/>
      <point x="399" y="1147" type="line"/>
      <point x="414" y="1127" type="line"/>
      <point x="384" y="1013"/>
      <point x="265" y="931"/>
      <point x="190" y="893" type="curve"/>
      <point x="190" y="833" type="line"/>
      <point x="312" y="893"/>
      <point x="508" y="1003"/>
    </contour>
  </outline>
</glyph>
<glyph name="quotedblbase" format="1">
  <advance width="878"/>
  <unicode hex="201E"/>
  <outline>
    <contour>
      <point x="688" y="70" type="curve" smooth="yes"/>
      <point x="688" y="208" type="line"/>
      <point x="470" y="208" type="line"/>
      <point x="470" y="0" type="line"/>
      <point x="579" y="0" type="line"/>
      <point x="594" y="-20" type="line"/>
      <point x="564" y="-134"/>
      <point x="445" y="-216"/>
      <point x="370" y="-254" type="curve"/>
      <point x="370" y="-314" type="line"/>
      <point x="492" y="-254"/>
      <point x="688" y="-144"/>
    </contour>
    <contour>
      <point x="318" y="70" type="curve" smooth="yes"/>
      <point x="318" y="208" type="line"/>
      <point x="100" y="208" type="line"/>
      <point x="100" y="0" type="line"/>
      <point x="209" y="0" type="line"/>
      <point x="224" y="-20" type="line"/>
      <point x="194" y="-134"/>
      <point x="75" y="-216"/>
      <point x="0" y="-254" type="curve"/>
      <point x="0" y="-314" type="line"/>
      <point x="122" y="-254"/>
      <point x="318" y="-144"/>
    </contour>
  </outline>
</glyph>
<glyph name="dagger" format="1">
  <advance width="1040"/>
  <unicode hex="2020"/>
  <outline>
    <contour>
      <point x="1107" y="931" type="line"/>
      <point x="708" y="931" type="line"/>
      <point x="688" y="951" type="line"/>
      <point x="834" y="1355" type="line"/>
      <point x="704" y="1355" type="line"/>
      <point x="618" y="951" type="line" smooth="yes"/>
      <point x="588" y="931" type="line"/>
      <point x="187" y="931" type="line"/>
      <point x="167" y="861" type="line"/>
      <point x="566" y="861" type="line" smooth="yes"/>
      <point x="586" y="841" type="line"/>
      <point x="315" y="0" type="line"/>
      <point x="445" y="0" type="line"/>
      <point x="656" y="841" type="line" smooth="yes"/>
      <point x="686" y="861" type="line"/>
      <point x="1087" y="861" type="line"/>
    </contour>
  </outline>
</glyph>
<glyph name="bullet" format="1">
  <advance width="590"/>
  <unicode hex="2022"/>
  <outline>
    <contour>
      <point x="296" y="235" type="curve" smooth="yes"/>
      <point x="424" y="235"/>
      <point x="530" y="341"/>
      <point x="530" y="471" type="curve" smooth="yes"/>
      <point x="530" y="599"/>
      <point x="424" y="705"/>
      <point x="296" y="705" type="curve" smooth="yes"/>
      <point x="166" y="705"/>
      <point x="60" y="599"/>
      <point x="60" y="471" type="curve" smooth="yes"/>
      <point x="60" y="341"/>
      <point x="166" y="235"/>
    </contour>
  </outline>
</glyph>
<glyph name="guilsinglleft" format="1">
  <advance width="718"/>
  <unicode hex="2039"/>
  <outline>
    <contour>
      <point x="434" y="0" type="line"/>
      <point x="504" y="0" type="line"/>
      <point x="263" y="449" type="line"/>
      <point x="263" y="469" type="line"/>
      <point x="768" y="919" type="line"/>
      <point x="698" y="919" type="line"/>
      <point x="55" y="469" type="line"/>
      <point x="55" y="449" type="line"/>
    </contour>
  </outline>
</glyph>
<glyph name="guilsinglright" format="1">
  <advance width="767"/>
  <unicode hex="203A"/>
  <outline>
    <contour>
      <point x="0" y="0" type="line"/>
      <point x="70" y="0" type="line"/>
      <point x="712" y="449" type="line"/>
      <point x="712" y="469" type="line"/>
      <point x="334" y="919" type="line"/>
      <point x="264" y="919" type="line"/>
      <point x="504" y="469" type="line"/>
      <point x="504" y="449" type="line"/>
    </contour>
  </outline>
</glyph>
<glyph name="Euro" format="1">
  <advance width="1477"/>
  <unicode hex="20AC"/>
  <outline>
    <contour>
      <point x="1277" y="138" type="curve"/>
      <point x="1307" y="248" type="line"/>
      <point x="1160" y="137"/>
      <point x="1016" y="70"/>
      <point x="804" y="70" type="curve" smooth="yes"/>
      <point x="532" y="70"/>
      <point x="343" y="236"/>
      <point x="343" y="487" type="curve" smooth="yes"/>
      <point x="343" y="488"/>
      <point x="343" y="488"/>
      <point x="343" y="488" type="curve"/>
      <point x="343" y="508" type="line"/>
      <point x="1170" y="508" type="line"/>
      <point x="1190" y="578" type="line"/>
      <point x="353" y="578" type="line"/>
      <point x="361" y="643"/>
      <point x="382" y="715"/>
      <point x="410" y="778" type="curve"/>
      <point x="1323" y="778" type="line"/>
      <point x="1343" y="848" type="line"/>
      <point x="452" y="848" type="line"/>
      <point x="452" y="868" type="line"/>
      <point x="599" y="1119"/>
      <point x="869" y="1285"/>
      <point x="1132" y="1285" type="curve"/>
      <point x="1346" y="1285"/>
      <point x="1470" y="1216"/>
      <point x="1532" y="1176" type="curve"/>
      <point x="1562" y="1276" type="line"/>
      <point x="1508" y="1310"/>
      <point x="1384" y="1375"/>
      <point x="1168" y="1375" type="curve"/>
      <point x="805" y="1375"/>
      <point x="513" y="1157"/>
      <point x="351" y="848" type="curve"/>
      <point x="163" y="848" type="line"/>
      <point x="143" y="778" type="line"/>
      <point x="316" y="778" type="line"/>
      <point x="292" y="718"/>
      <point x="272" y="652"/>
      <point x="258" y="578" type="curve"/>
      <point x="86" y="578" type="line"/>
      <point x="66" y="508" type="line"/>
      <point x="253" y="508" type="line"/>
      <point x="252" y="495"/>
      <point x="251" y="481"/>
      <point x="251" y="468" type="curve" smooth="yes"/>
      <point x="251" y="179"/>
      <point x="449" y="-20"/>
      <point x="778" y="-20" type="curve" smooth="yes"/>
      <point x="977" y="-20"/>
      <point x="1137" y="40"/>
    </contour>
    <contour>
      <point x="1225.0" y="1395.0" type="move" name="top"/>
    </contour>
    <contour>
      <point x="819.0" y="-20.0" type="move" name="bottom"/>
    </contour>
  </outline>
</glyph>
<glyph name="numero" format="1">
  <advance width="2191"/>
  <unicode hex="2116"/>
  <outline>
    <contour>
      <point x="1941" y="70" type="line"/>
      <point x="1318" y="70" type="line"/>
      <point x="1318" y="0" type="line"/>
      <point x="1941" y="0" type="line"/>
    </contour>
    <component base="N"/>
    <component base="ordmasculine" xOffset="1478" yOffset="-241"/>
  </outline>
</glyph>
<glyph name="trademark" format="1">
  <advance width="1478"/>
  <unicode hex="2122"/>
  <outline>
    <contour>
      <point x="1263" y="1375" type="line"/>
      <point x="1254" y="1375" type="line"/>
      <point x="1145" y="1122"/>
      <point x="1123" y="1069"/>
      <point x="1032" y="834" type="curve"/>
      <point x="1021" y="834" type="line"/>
      <point x="783" y="1375" type="line"/>
      <point x="721" y="1375" type="line"/>
      <point x="721" y="1229" type="line"/>
      <point x="732" y="1229" type="line"/>
      <point x="985" y="668" type="line"/>
      <point x="1006" y="668" type="line"/>
      <point x="1159" y="1022"/>
      <point x="1177" y="1064"/>
      <point x="1253" y="1253" type="curve"/>
      <point x="1263" y="1253" type="line"/>
    </contour>
    <contour>
      <point x="721" y="1375" type="curve"/>
      <point x="583" y="1375" type="line"/>
      <point x="583" y="1339" type="line"/>
      <point x="657" y="1339" type="line"/>
      <point x="667" y="1329" type="line"/>
      <point x="663" y="1019"/>
      <point x="663" y="967"/>
      <point x="667" y="725" type="curve"/>
      <point x="657" y="714" type="line"/>
      <point x="578" y="714" type="line"/>
      <point x="578" y="678" type="line"/>
      <point x="821" y="678" type="line"/>
      <point x="821" y="714" type="line"/>
      <point x="732" y="714" type="line"/>
      <point x="721" y="725" type="line"/>
      <point x="727" y="966"/>
      <point x="728" y="1019"/>
    </contour>
    <contour>
      <point x="1263" y="1375" type="line"/>
      <point x="1263" y="725" type="line"/>
      <point x="1253" y="714" type="line"/>
      <point x="1163" y="714" type="line"/>
      <point x="1163" y="678" type="line"/>
      <point x="1458" y="678" type="line"/>
      <point x="1458" y="714" type="line"/>
      <point x="1379" y="714" type="line"/>
      <point x="1369" y="725" type="line"/>
      <point x="1369" y="1329" type="line"/>
      <point x="1379" y="1339" type="line"/>
      <point x="1458" y="1339" type="line"/>
      <point x="1458" y="1375" type="line"/>
    </contour>
    <contour>
      <point x="369" y="714" type="line"/>
      <point x="369" y="1324" type="line"/>
      <point x="369" y="1324"/>
      <point x="264" y="1324"/>
      <point x="264" y="1324" type="curve"/>
      <point x="264" y="714" type="line"/>
    </contour>
    <contour>
      <point x="369" y="725" type="line"/>
      <point x="264" y="725" type="line"/>
      <point x="253" y="714" type="line"/>
      <point x="174" y="714" type="line"/>
      <point x="174" y="678" type="line"/>
      <point x="174" y="678"/>
      <point x="459" y="678"/>
      <point x="459" y="678" type="curve"/>
      <point x="459" y="714" type="line"/>
      <point x="380" y="714" type="line"/>
    </contour>
    <contour>
      <point x="56" y="1218" type="line"/>
      <point x="56" y="1305"/>
      <point x="84" y="1315"/>
      <point x="182" y="1315" type="curve"/>
      <point x="540" y="1315" type="line"/>
      <point x="638" y="1315"/>
      <point x="665" y="1305"/>
      <point x="665" y="1218" type="curve"/>
      <point x="665" y="1161" type="line"/>
      <point x="701" y="1161" type="line"/>
      <point x="701" y="1375" type="line"/>
      <point x="20" y="1375" type="line"/>
      <point x="20" y="1161" type="line"/>
      <point x="56" y="1161" type="line"/>
    </contour>
  </outline>
</glyph>
<glyph name="cloud" format="1">
  <advance width="1789"/>
  <unicode hex="2601"/>
  <outline>
    <contour>
      <point x="1455" y="680" type="curve"/>
      <point x="1630" y="654"/>
      <point x="1749" y="513"/>
      <point x="1749" y="342" type="curve" smooth="yes"/>
      <point x="1749" y="151"/>
      <point x="1596" y="0"/>
      <point x="1409" y="0" type="curve" smooth="yes"/>
      <point x="282" y="0" type="line" smooth="yes"/>
      <point x="127" y="0"/>
      <point x="40" y="111"/>
      <point x="40" y="242" type="curve" smooth="yes"/>
      <point x="40" y="373"/>
      <point x="147" y="482"/>
      <point x="312" y="482" type="curve"/>
      <point x="354" y="482" type="line"/>
      <point x="364" y="492" type="line"/>
      <point x="390" y="678"/>
      <point x="543" y="792"/>
      <point x="717" y="792" type="curve" smooth="yes"/>
      <point x="789" y="792"/>
      <point x="860" y="775"/>
      <point x="912" y="730" type="curve"/>
      <point x="922" y="740" type="line"/>
      <point x="938" y="865"/>
      <point x="1050" y="939"/>
      <point x="1185" y="939" type="curve" smooth="yes"/>
      <point x="1325" y="939"/>
      <point x="1445" y="832"/>
    </contour>
    <contour>
      <point x="404" y="401" type="curve"/>
      <point x="394" y="391" type="line"/>
      <point x="360" y="416"/>
      <point x="328" y="426"/>
      <point x="282" y="426" type="curve" smooth="yes"/>
      <point x="175" y="426"/>
      <point x="110" y="347"/>
      <point x="110" y="242" type="curve" smooth="yes"/>
      <point x="110" y="136"/>
      <point x="176" y="70"/>
      <point x="282" y="70" type="curve" smooth="yes"/>
      <point x="1409" y="70" type="line" smooth="yes"/>
      <point x="1567" y="70"/>
      <point x="1679" y="180"/>
      <point x="1679" y="342" type="curve" smooth="yes"/>
      <point x="1679" y="505"/>
      <point x="1568" y="618"/>
      <point x="1409" y="618" type="curve" smooth="yes"/>
      <point x="1246" y="618"/>
      <point x="1113" y="507"/>
      <point x="1113" y="342" type="curve"/>
      <point x="1043" y="342" type="line"/>
      <point x="1043" y="528"/>
      <point x="1208" y="670"/>
      <point x="1386" y="680" type="curve"/>
      <point x="1396" y="690" type="line"/>
      <point x="1379" y="806"/>
      <point x="1300" y="872"/>
      <point x="1185" y="872" type="curve" smooth="yes"/>
      <point x="1061" y="872"/>
      <point x="961" y="792"/>
      <point x="961" y="668" type="curve"/>
      <point x="961" y="638" type="line"/>
      <point x="951" y="628" type="line"/>
      <point x="881" y="686"/>
      <point x="802" y="726"/>
      <point x="717" y="726" type="curve" smooth="yes"/>
      <point x="555" y="726"/>
      <point x="410" y="603"/>
    </contour>
  </outline>
</glyph>
<glyph name="umbrella" format="1">
  <advance width="1789"/>
  <unicode hex="2602"/>
  <outline>
    <contour>
      <point x="1455" y="875" type="curve"/>
      <point x="1630" y="849"/>
      <point x="1749" y="708"/>
      <point x="1749" y="537" type="curve" smooth="yes"/>
      <point x="1749" y="346"/>
      <point x="1596" y="195"/>
      <point x="1409" y="195" type="curve" smooth="yes"/>
      <point x="282" y="195" type="line" smooth="yes"/>
      <point x="127" y="195"/>
      <point x="40" y="306"/>
      <point x="40" y="437" type="curve" smooth="yes"/>
      <point x="40" y="568"/>
      <point x="147" y="677"/>
      <point x="312" y="677" type="curve"/>
      <point x="354" y="677" type="line"/>
      <point x="364" y="687" type="line"/>
      <point x="390" y="873"/>
      <point x="543" y="987"/>
      <point x="717" y="987" type="curve" smooth="yes"/>
      <point x="789" y="987"/>
      <point x="860" y="970"/>
      <point x="912" y="925" type="curve"/>
      <point x="922" y="935" type="line"/>
      <point x="938" y="1060"/>
      <point x="1050" y="1134"/>
      <point x="1185" y="1134" type="curve" smooth="yes"/>
      <point x="1325" y="1134"/>
      <point x="1445" y="1027"/>
    </contour>
    <contour>
      <point x="404" y="596" type="curve"/>
      <point x="394" y="586" type="line"/>
      <point x="360" y="611"/>
      <point x="328" y="621"/>
      <point x="282" y="621" type="curve" smooth="yes"/>
      <point x="175" y="621"/>
      <point x="110" y="542"/>
      <point x="110" y="437" type="curve" smooth="yes"/>
      <point x="110" y="331"/>
      <point x="176" y="265"/>
      <point x="282" y="265" type="curve" smooth="yes"/>
      <point x="1409" y="265" type="line" smooth="yes"/>
      <point x="1567" y="265"/>
      <point x="1679" y="375"/>
      <point x="1679" y="537" type="curve" smooth="yes"/>
      <point x="1679" y="700"/>
      <point x="1568" y="813"/>
      <point x="1409" y="813" type="curve" smooth="yes"/>
      <point x="1246" y="813"/>
      <point x="1113" y="702"/>
      <point x="1113" y="537" type="curve"/>
      <point x="1043" y="537" type="line"/>
      <point x="1043" y="723"/>
      <point x="1208" y="865"/>
      <point x="1386" y="875" type="curve"/>
      <point x="1396" y="885" type="line"/>
      <point x="1379" y="1001"/>
      <point x="1300" y="1067"/>
      <point x="1185" y="1067" type="curve" smooth="yes"/>
      <point x="1061" y="1067"/>
      <point x="961" y="987"/>
      <point x="961" y="863" type="curve"/>
      <point x="961" y="833" type="line"/>
      <point x="951" y="823" type="line"/>
      <point x="881" y="881"/>
      <point x="802" y="921"/>
      <point x="717" y="921" type="curve" smooth="yes"/>
      <point x="555" y="921"/>
      <point x="410" y="798"/>
    </contour>
    <contour>
      <point x="142" y="-164" type="line"/>
      <point x="222" y="-164" type="line"/>
      <point x="422" y="125" type="line"/>
      <point x="342" y="125" type="line"/>
    </contour>
    <contour>
      <point x="647" y="-164" type="line"/>
      <point x="727" y="-164" type="line"/>
      <point x="927" y="125" type="line"/>
      <point x="847" y="125" type="line"/>
    </contour>
    <contour>
      <point x="1152" y="-164" type="line"/>
      <point x="1232" y="-164" type="line"/>
      <point x="1432" y="125" type="line"/>
      <point x="1352" y="125" type="line"/>
    </contour>
  </outline>
</glyph>
<glyph name="checkbox" format="1">
  <advance width="999"/>
  <unicode hex="2610"/>
  <outline>
    <contour>
      <point x="959" y="0" type="line"/>
      <point x="959" y="919" type="line"/>
      <point x="40" y="919" type="line"/>
      <point x="40" y="0" type="line"/>
    </contour>
    <contour>
      <point x="889" y="70" type="line"/>
      <point x="110" y="70" type="line"/>
      <point x="110" y="849" type="line"/>
      <point x="889" y="849" type="line"/>
    </contour>
  </outline>
</glyph>
<glyph name="sunrayswhite" format="1">
  <advance width="1598"/>
  <unicode hex="263C"/>
  <outline>
    <contour>
      <point x="799" y="-20" type="curve" smooth="yes"/>
      <point x="1072" y="-20"/>
      <point x="1278" y="187"/>
      <point x="1278" y="460" type="curve" smooth="yes"/>
      <point x="1278" y="733"/>
      <point x="1072" y="939"/>
      <point x="799" y="939" type="curve" smooth="yes"/>
      <point x="526" y="939"/>
      <point x="320" y="733"/>
      <point x="320" y="460" type="curve" smooth="yes"/>
      <point x="320" y="187"/>
      <point x="526" y="-20"/>
    </contour>
    <contour>
      <point x="799" y="50" type="curve" smooth="yes"/>
      <point x="565" y="50"/>
      <point x="391" y="226"/>
      <point x="391" y="460" type="curve" smooth="yes"/>
      <point x="391" y="694"/>
      <point x="565" y="869"/>
      <point x="799" y="869" type="curve" smooth="yes"/>
      <point x="1033" y="869"/>
      <point x="1209" y="694"/>
      <point x="1209" y="460" type="curve" smooth="yes"/>
      <point x="1209" y="226"/>
      <point x="1033" y="50"/>
    </contour>
    <contour>
      <point x="764" y="1009" type="line"/>
      <point x="834" y="1009" type="line"/>
      <point x="834" y="1219" type="line"/>
      <point x="764" y="1219" type="line"/>
    </contour>
    <contour>
      <point x="764" y="-300" type="line"/>
      <point x="834" y="-300" type="line"/>
      <point x="834" y="-90" type="line"/>
      <point x="764" y="-90" type="line"/>
    </contour>
    <contour>
      <point x="1348" y="494" type="line"/>
      <point x="1348" y="424" type="line"/>
      <point x="1558" y="424" type="line"/>
      <point x="1558" y="494" type="line"/>
    </contour>
    <contour>
      <point x="40" y="494" type="line"/>
      <point x="40" y="424" type="line"/>
      <point x="250" y="424" type="line"/>
      <point x="250" y="494" type="line"/>
    </contour>
    <contour>
      <point x="1163" y="873" type="line"/>
      <point x="1213" y="823" type="line"/>
      <point x="1361" y="972" type="line"/>
      <point x="1312" y="1021" type="line"/>
    </contour>
    <contour>
      <point x="238" y="-53" type="line"/>
      <point x="287" y="-102" type="line"/>
      <point x="436" y="46" type="line"/>
      <point x="386" y="96" type="line"/>
    </contour>
    <contour>
      <point x="1212" y="96" type="line"/>
      <point x="1162" y="46" type="line"/>
      <point x="1311" y="-102" type="line"/>
      <point x="1360" y="-53" type="line"/>
    </contour>
    <contour>
      <point x="287" y="1020" type="line"/>
      <point x="238" y="971" type="line"/>
      <point x="386" y="822" type="line"/>
      <point x="436" y="872" type="line"/>
    </contour>
  </outline>
</glyph>
<glyph name="sunbehindcloud" format="1">
  <advance width="2154"/>
  <unicode hex="26C5"/>
  <outline>
    <contour>
      <point x="1455" y="580" type="curve"/>
      <point x="1630" y="554"/>
      <point x="1749" y="413"/>
      <point x="1749" y="242" type="curve" smooth="yes"/>
      <point x="1749" y="51"/>
      <point x="1596" y="-100"/>
      <point x="1409" y="-100" type="curve" smooth="yes"/>
      <point x="282" y="-100" type="line" smooth="yes"/>
      <point x="127" y="-100"/>
      <point x="40" y="11"/>
      <point x="40" y="142" type="curve" smooth="yes"/>
      <point x="40" y="273"/>
      <point x="147" y="382"/>
      <point x="312" y="382" type="curve"/>
      <point x="354" y="382" type="line"/>
      <point x="364" y="392" type="line"/>
      <point x="390" y="578"/>
      <point x="543" y="692"/>
      <point x="717" y="692" type="curve" smooth="yes"/>
      <point x="789" y="692"/>
      <point x="860" y="675"/>
      <point x="912" y="630" type="curve"/>
      <point x="922" y="640" type="line"/>
      <point x="938" y="765"/>
      <point x="1050" y="839"/>
      <point x="1185" y="839" type="curve" smooth="yes"/>
      <point x="1325" y="839"/>
      <point x="1445" y="732"/>
    </contour>
    <contour>
      <point x="404" y="301" type="curve"/>
      <point x="394" y="291" type="line"/>
      <point x="360" y="316"/>
      <point x="328" y="326"/>
      <point x="282" y="326" type="curve" smooth="yes"/>
      <point x="175" y="326"/>
      <point x="110" y="247"/>
      <point x="110" y="142" type="curve" smooth="yes"/>
      <point x="110" y="36"/>
      <point x="176" y="-30"/>
      <point x="282" y="-30" type="curve" smooth="yes"/>
      <point x="1409" y="-30" type="line" smooth="yes"/>
      <point x="1567" y="-30"/>
      <point x="1679" y="80"/>
      <point x="1679" y="242" type="curve" smooth="yes"/>
      <point x="1679" y="405"/>
      <point x="1568" y="518"/>
      <point x="1409" y="518" type="curve" smooth="yes"/>
      <point x="1246" y="518"/>
      <point x="1113" y="407"/>
      <point x="1113" y="242" type="curve"/>
      <point x="1043" y="242" type="line"/>
      <point x="1043" y="428"/>
      <point x="1208" y="570"/>
      <point x="1386" y="580" type="curve"/>
      <point x="1396" y="590" type="line"/>
      <point x="1379" y="706"/>
      <point x="1300" y="772"/>
      <point x="1185" y="772" type="curve" smooth="yes"/>
      <point x="1061" y="772"/>
      <point x="961" y="692"/>
      <point x="961" y="568" type="curve"/>
      <point x="961" y="538" type="line"/>
      <point x="951" y="528" type="line"/>
      <point x="881" y="586"/>
      <point x="802" y="626"/>
      <point x="717" y="626" type="curve" smooth="yes"/>
      <point x="555" y="626"/>
      <point x="410" y="503"/>
    </contour>
    <contour>
      <point x="1360" y="1104" type="line"/>
      <point x="1430" y="1104" type="line"/>
      <point x="1430" y="1314" type="line"/>
      <point x="1360" y="1314" type="line"/>
    </contour>
    <contour>
      <point x="1944" y="589" type="line"/>
      <point x="1944" y="519" type="line"/>
      <point x="2154" y="519" type="line"/>
      <point x="2154" y="589" type="line"/>
    </contour>
    <contour>
      <point x="1759" y="968" type="line"/>
      <point x="1809" y="918" type="line"/>
      <point x="1957" y="1067" type="line"/>
      <point x="1908" y="1116" type="line"/>
    </contour>
    <contour>
      <point x="1808" y="191" type="line"/>
      <point x="1758" y="141" type="line"/>
      <point x="1907" y="-7" type="line"/>
      <point x="1956" y="42" type="line"/>
    </contour>
    <contour>
      <point x="883" y="1115" type="line"/>
      <point x="834" y="1066" type="line"/>
      <point x="982" y="917" type="line"/>
      <point x="1032" y="967" type="line"/>
    </contour>
    <contour>
      <point x="1792" y="279" type="curve"/>
      <point x="1844" y="356"/>
      <point x="1874" y="451"/>
      <point x="1874" y="555" type="curve" smooth="yes"/>
      <point x="1874" y="828"/>
      <point x="1674" y="1034"/>
      <point x="1401" y="1034" type="curve" smooth="yes"/>
      <point x="1225" y="1034"/>
      <point x="1107" y="958"/>
      <point x="1024" y="834" type="curve"/>
      <point x="1069" y="858"/>
      <point x="1100" y="864"/>
      <point x="1145" y="873" type="curve"/>
      <point x="1187" y="921"/>
      <point x="1260" y="972"/>
      <point x="1394" y="972" type="curve" smooth="yes"/>
      <point x="1628" y="972"/>
      <point x="1805" y="789"/>
      <point x="1805" y="555" type="curve" smooth="yes"/>
      <point x="1805" y="488"/>
      <point x="1794" y="429"/>
      <point x="1768" y="374" type="curve"/>
      <point x="1780" y="347"/>
      <point x="1788" y="321"/>
    </contour>
  </outline>
</glyph>
<glyph name="fi" format="1">
  <advance width="997"/>
  <unicode hex="FB01"/>
  <outline>
    <contour>
      <point x="715" y="127" type="line"/>
      <point x="883" y="662" type="line" smooth="yes"/>
      <point x="910" y="749"/>
      <point x="920" y="844"/>
      <point x="865" y="889" type="curve"/>
      <point x="805" y="889" type="line"/>
      <point x="740" y="870"/>
      <point x="620" y="850"/>
      <point x="466" y="850" type="curve"/>
      <point x="446" y="775" type="line"/>
      <point x="715" y="775" type="line"/>
      <point x="735" y="755" type="line"/>
      <point x="577" y="214" type="line" smooth="yes"/>
      <point x="546" y="109"/>
      <point x="563" y="37"/>
      <point x="632" y="0" type="curve"/>
      <point x="716" y="0" type="line"/>
      <point x="787" y="58"/>
      <point x="883" y="184"/>
      <point x="942" y="276" type="curve"/>
      <point x="872" y="276" type="line"/>
      <point x="817" y="198"/>
      <point x="759" y="132"/>
      <point x="735" y="107" type="curve"/>
    </contour>
    <contour>
      <point x="102" y="775" type="line"/>
      <point x="446" y="775" type="line"/>
      <point x="466" y="850" type="line"/>
      <point x="122" y="850" type="line"/>
    </contour>
    <contour>
      <point x="28" y="-172" type="line" smooth="yes"/>
      <point x="11" y="-239"/>
      <point x="-22" y="-289"/>
      <point x="-114" y="-289" type="curve" smooth="yes"/>
      <point x="-335" y="-289" type="line"/>
      <point x="-400" y="-430" type="line"/>
      <point x="-385" y="-450" type="line"/>
      <point x="-248" y="-442" type="line" smooth="yes"/>
      <point x="-18" y="-429"/>
      <point x="170" y="-174"/>
      <point x="240" y="68" type="curve" smooth="yes"/>
      <point x="466" y="850" type="line"/>
      <point x="506" y="1100" type="line" smooth="yes"/>
      <point x="517" y="1167"/>
      <point x="551" y="1214"/>
      <point x="643" y="1214" type="curve"/>
      <point x="892" y="1214" type="line"/>
      <point x="957" y="1355" type="line"/>
      <point x="942" y="1375" type="line"/>
      <point x="728" y="1362" type="line" smooth="yes"/>
      <point x="542" y="1351"/>
      <point x="437" y="1144"/>
      <point x="303" y="870" type="curve"/>
      <point x="273" y="850" type="line"/>
      <point x="286" y="822" type="line"/>
    </contour>
  </outline>
</glyph>
<glyph name="fl" format="1">
  <advance width="1015"/>
  <unicode hex="FB02"/>
  <outline>
    <contour>
      <point x="102" y="775" type="line"/>
      <point x="620" y="775" type="line"/>
      <point x="640" y="850" type="line"/>
      <point x="122" y="850" type="line"/>
    </contour>
    <contour>
      <point x="28" y="-172" type="line" smooth="yes"/>
      <point x="11" y="-239"/>
      <point x="-22" y="-289"/>
      <point x="-114" y="-289" type="curve" smooth="yes"/>
      <point x="-335" y="-289" type="line"/>
      <point x="-400" y="-430" type="line"/>
      <point x="-385" y="-450" type="line"/>
      <point x="-248" y="-442" type="line" smooth="yes"/>
      <point x="-18" y="-429"/>
      <point x="170" y="-174"/>
      <point x="240" y="68" type="curve" smooth="yes"/>
      <point x="466" y="850" type="line"/>
      <point x="506" y="1100" type="line" smooth="yes"/>
      <point x="517" y="1167"/>
      <point x="551" y="1214"/>
      <point x="643" y="1214" type="curve"/>
      <point x="852" y="1214" type="line"/>
      <point x="917" y="1355" type="line"/>
      <point x="719" y="1355" type="line"/>
      <point x="546" y="1355"/>
      <point x="437" y="1144"/>
      <point x="303" y="870" type="curve"/>
      <point x="273" y="850" type="line"/>
      <point x="286" y="822" type="line"/>
    </contour>
    <contour>
      <point x="637" y="0" type="curve"/>
      <point x="725" y="0" type="line"/>
      <point x="796" y="58"/>
      <point x="892" y="184"/>
      <point x="951" y="276" type="curve"/>
      <point x="881" y="276" type="line"/>
      <point x="826" y="198"/>
      <point x="768" y="132"/>
      <point x="744" y="107" type="curve"/>
      <point x="716" y="107" type="line"/>
      <point x="771" y="348"/>
      <point x="1033.7741285810698" y="1230.9137619368994"/>
      <point x="1071" y="1355" type="curve"/>
      <point x="740" y="1355" type="line"/>
      <point x="730" y="1295" type="line"/>
      <point x="826" y="1214" type="line"/>
      <point x="846" y="1194" type="line"/>
      <point x="583" y="214" type="line" smooth="yes"/>
      <point x="554" y="107"/>
      <point x="568" y="37"/>
    </contour>
  </outline>
</glyph>
